<?xml version="1.0" encoding="UTF-8" standalone="no"?>
<svg
   version="1.1"
   width="1100.0001"
   height="531.04376"
   viewBox="0 0 291.04168 140.50533"
   id="svg1966"
   sodipodi:docname="pot2.svg"
   inkscape:version="1.1.1 (3bf5ae0d25, 2021-09-20)"
   xmlns:inkscape="http://www.inkscape.org/namespaces/inkscape"
   xmlns:sodipodi="http://sodipodi.sourceforge.net/DTD/sodipodi-0.dtd"
   xmlns="http://www.w3.org/2000/svg"
   xmlns:svg="http://www.w3.org/2000/svg"
   xmlns:rdf="http://www.w3.org/1999/02/22-rdf-syntax-ns#"
   xmlns:cc="http://creativecommons.org/ns#"
   xmlns:dc="http://purl.org/dc/elements/1.1/">
  <defs
     id="defs1970" />
  <sodipodi:namedview
     id="namedview1968"
     pagecolor="#ffffff"
     bordercolor="#666666"
     borderopacity="1.0"
     inkscape:pageshadow="2"
     inkscape:pageopacity="0.0"
     inkscape:pagecheckerboard="0"
     inkscape:document-units="mm"
     showgrid="false"
     inkscape:zoom="0.6866332"
     inkscape:cx="535.22026"
     inkscape:cy="187.14504"
     inkscape:window-width="1280"
     inkscape:window-height="736"
     inkscape:window-x="0"
     inkscape:window-y="0"
     inkscape:window-maximized="1"
     inkscape:current-layer="svg1966"
     units="px" />
  <title
     id="title2">SVG Image created as mediciones_p3.svg date 2023/02/26 15:20:48 </title>
  <desc
     id="desc4">Image generated by Eeschema-SVG </desc>
  <g
     style="fill:#000000;fill-opacity:1;stroke:#000000;stroke-linecap:round;stroke-linejoin:round;stroke-opacity:1"
     id="g6"
     transform="translate(-129.57243,-55.803807)" />
  <g
     id="g8"
     style="fill:#000000;fill-opacity:0;stroke:#000000;stroke-width:0.1524;stroke-linecap:round;stroke-linejoin:round;stroke-opacity:1"
     transform="translate(-129.57243,-55.803807)" />
  <g
     id="g250"
     style="fill:#006464;fill-opacity:0;stroke:#006464;stroke-width:0.1524;stroke-linecap:round;stroke-linejoin:round;stroke-opacity:1"
     transform="translate(-129.57243,-55.803807)" />
  <g
     id="g492"
     style="fill:#006464;fill-opacity:0;stroke:#006464;stroke-width:0.1524;stroke-linecap:round;stroke-linejoin:round;stroke-opacity:1"
     transform="translate(-129.57243,-55.803807)" />
  <g
     id="g674"
     style="fill:#006464;fill-opacity:0;stroke:#006464;stroke-width:0.1524;stroke-linecap:round;stroke-linejoin:round;stroke-opacity:1"
     transform="translate(-129.57243,-55.803807)" />
  <g
     id="g916"
     style="fill:#006464;fill-opacity:0;stroke:#006464;stroke-width:0.1524;stroke-linecap:round;stroke-linejoin:round;stroke-opacity:1"
     transform="translate(-129.57243,-55.803807)" />
  <g
     style="fill:#840000;fill-opacity:0;stroke:#840000;stroke-width:0.1524;stroke-linecap:round;stroke-linejoin:round;stroke-opacity:1"
     id="g918"
     transform="translate(-129.57243,-55.803807)" />
  <g
     id="g972"
     style="fill:#006464;fill-opacity:0;stroke:#006464;stroke-width:0.1524;stroke-linecap:round;stroke-linejoin:round;stroke-opacity:1"
     transform="translate(-129.57243,-55.803807)" />
  <g
     id="g1154"
     style="fill:#006464;fill-opacity:0;stroke:#006464;stroke-width:0.1524;stroke-linecap:round;stroke-linejoin:round;stroke-opacity:1"
     transform="translate(-129.57243,-55.803807)" />
  <g
     style="fill:#840000;fill-opacity:0;stroke:#840000;stroke-width:0.1524;stroke-linecap:round;stroke-linejoin:round;stroke-opacity:1"
     id="g1156"
     transform="translate(-129.57243,-55.803807)" />
  <g
     id="g1210"
     style="fill:#006464;fill-opacity:0;stroke:#006464;stroke-width:0.1524;stroke-linecap:round;stroke-linejoin:round;stroke-opacity:1"
     transform="translate(-129.57243,-55.803807)" />
  <g
     id="g1392"
     style="fill:#006464;fill-opacity:0;stroke:#006464;stroke-width:0.1524;stroke-linecap:round;stroke-linejoin:round;stroke-opacity:1"
     transform="translate(-129.57243,-55.803807)" />
  <g
     id="g1574"
     style="fill:#006464;fill-opacity:0;stroke:#006464;stroke-width:0.1524;stroke-linecap:round;stroke-linejoin:round;stroke-opacity:1"
     transform="translate(-129.57243,-55.803807)" />
  <g
     id="g1816"
     style="fill:#006464;fill-opacity:0;stroke:#006464;stroke-width:0.1524;stroke-linecap:round;stroke-linejoin:round;stroke-opacity:1"
     transform="translate(-129.57243,-55.803807)" />
  <g
     style="fill:#840000;fill-opacity:0;stroke:#840000;stroke-width:0.1524;stroke-linecap:round;stroke-linejoin:round;stroke-opacity:1"
     id="g1818"
     transform="translate(-129.57243,-55.803807)" />
  <g
     style="fill:#006464;fill-opacity:0;stroke:#006464;stroke-width:0.1524;stroke-linecap:round;stroke-linejoin:round;stroke-opacity:1"
     id="g1882"
     transform="translate(-129.57243,-55.803807)" />
  <g
     id="g4366"
     transform="matrix(5.9392057,0,0,5.9392057,-756.32812,-318.20108)">
    <g
       style="fill:#840000;fill-opacity:0;stroke:#840000;stroke-width:0.1524;stroke-linecap:round;stroke-linejoin:round;stroke-opacity:1"
       id="g16">
      <path
         style="fill:none;fill-opacity:0;stroke:#840000;stroke-width:0.1524;stroke-linecap:round;stroke-linejoin:round;stroke-opacity:1"
         d="m 137.16,68.58 1.27,-1.27"
         id="path10" />
      <path
         style="fill:none;fill-opacity:0;stroke:#840000;stroke-width:0.1524;stroke-linecap:round;stroke-linejoin:round;stroke-opacity:1"
         d="m 142.24,63.5 1.27,-1.27"
         id="path12" />
      <path
         style="fill:none;fill-opacity:0;stroke:#840000;stroke-width:0.1524;stroke-linecap:round;stroke-linejoin:round;stroke-opacity:1"
         d="m 142.24,62.23 h 1.27 v 1.27"
         id="path14" />
    </g>
    <g
       style="fill:#840000;fill-opacity:0;stroke:#840000;stroke-width:0.254;stroke-linecap:round;stroke-linejoin:round;stroke-opacity:1"
       id="g20">
      <circle
         cx="140.33501"
         cy="65.404999"
         r="2.54"
         id="circle18" />
    </g>
    <g
       style="fill:#840000;fill-opacity:0;stroke:#840000;stroke-width:0.3175;stroke-linecap:round;stroke-linejoin:round;stroke-opacity:1"
       id="g66">
      <text
         x="140.33501"
         y="66.675003"
         textLength="3.1887"
         font-size="3.3866px"
         lengthAdjust="spacingAndGlyphs"
         text-anchor="middle"
         opacity="0"
         id="text22">Ω</text>
      <g
         class="stroked-text"
         id="g64">
        <desc
           id="desc24">Ω</desc>
        <path
           d="m 139.3674,66.3381 h 0.6047"
           id="path26" />
        <path
           d="M 139.9721,66.3381 V 65.8543"
           id="path28" />
        <path
           d="m 139.9721,65.8543 -0.2419,-0.121"
           id="path30" />
        <path
           d="m 139.7302,65.7333 -0.2419,-0.2419"
           id="path32" />
        <path
           d="m 139.4883,65.4914 -0.1209,-0.3628"
           id="path34" />
        <path
           d="M 139.3674,65.1286 V 64.5238"
           id="path36" />
        <path
           d="m 139.3674,64.5238 0.1209,-0.3628"
           id="path38" />
        <path
           d="m 139.4883,64.161 0.2419,-0.2419"
           id="path40" />
        <path
           d="m 139.7302,63.9191 0.3629,-0.121"
           id="path42" />
        <path
           d="m 140.0931,63.7981 h 0.4838"
           id="path44" />
        <path
           d="m 140.5769,63.7981 0.3628,0.121"
           id="path46" />
        <path
           d="m 140.9397,63.9191 0.2419,0.2419"
           id="path48" />
        <path
           d="m 141.1816,64.161 0.121,0.3628"
           id="path50" />
        <path
           d="m 141.3026,64.5238 v 0.6048"
           id="path52" />
        <path
           d="m 141.3026,65.1286 -0.121,0.3628"
           id="path54" />
        <path
           d="m 141.1816,65.4914 -0.2419,0.2419"
           id="path56" />
        <path
           d="m 140.9397,65.7333 -0.2419,0.121"
           id="path58" />
        <path
           d="m 140.6978,65.8543 v 0.4838"
           id="path60" />
        <path
           d="m 140.6978,66.3381 h 0.6048"
           id="path62" />
      </g>
    </g>
    <g
       style="fill:#840000;fill-opacity:0;stroke:#840000;stroke-width:0.1524;stroke-linecap:round;stroke-linejoin:round;stroke-opacity:1"
       id="g72">
      <path
         d="m 140.335,67.945 v 2.54"
         id="path68" />
      <path
         d="m 140.335,62.865 v -2.54"
         id="path70" />
    </g>
    <g
       style="fill:#006464;fill-opacity:0;stroke:#006464;stroke-width:0.1524;stroke-linecap:round;stroke-linejoin:round;stroke-opacity:1"
       id="g246">
      <text
         x="134.3891"
         y="62.23"
         textLength="9.6822004"
         font-size="1.6933px"
         lengthAdjust="spacingAndGlyphs"
         text-anchor="middle"
         opacity="0"
         id="text74">Ohmmeter</text>
      <g
         class="stroked-text"
         id="g244">
        <desc
           id="desc76">Ohmmeter</desc>
        <path
           d="m 130.1557,60.7916 h 0.2419"
           id="path78" />
        <path
           d="m 130.3976,60.7916 0.121,0.0605"
           id="path80" />
        <path
           d="m 130.5186,60.8521 0.1209,0.1209"
           id="path82" />
        <path
           d="M 130.6395,60.973 130.7,61.2149"
           id="path84" />
        <path
           d="m 130.7,61.2149 v 0.4233"
           id="path86" />
        <path
           d="m 130.7,61.6382 -0.0605,0.2419"
           id="path88" />
        <path
           d="m 130.6395,61.8801 -0.1209,0.121"
           id="path90" />
        <path
           d="m 130.5186,62.0011 -0.121,0.0605"
           id="path92" />
        <path
           d="m 130.3976,62.0616 h -0.2419"
           id="path94" />
        <path
           d="m 130.1557,62.0616 -0.1209,-0.0605"
           id="path96" />
        <path
           d="m 130.0348,62.0011 -0.121,-0.121"
           id="path98" />
        <path
           d="m 129.9138,61.8801 -0.0604,-0.2419"
           id="path100" />
        <path
           d="M 129.8534,61.6382 V 61.2149"
           id="path102" />
        <path
           d="m 129.8534,61.2149 0.0604,-0.2419"
           id="path104" />
        <path
           d="m 129.9138,60.973 0.121,-0.1209"
           id="path106" />
        <path
           d="m 130.0348,60.8521 0.1209,-0.0605"
           id="path108" />
        <path
           d="m 131.2443,62.0616 v -1.27"
           id="path110" />
        <path
           d="M 131.7886,62.0616 V 61.3963"
           id="path112" />
        <path
           d="m 131.7886,61.3963 -0.0605,-0.1209"
           id="path114" />
        <path
           d="m 131.7281,61.2754 -0.1209,-0.0605"
           id="path116" />
        <path
           d="m 131.6072,61.2149 h -0.1814"
           id="path118" />
        <path
           d="m 131.4258,61.2149 -0.121,0.0605"
           id="path120" />
        <path
           d="m 131.3048,61.2754 -0.0605,0.0605"
           id="path122" />
        <path
           d="M 132.3933,62.0616 V 61.2149"
           id="path124" />
        <path
           d="m 132.3933,61.3359 0.0605,-0.0605"
           id="path126" />
        <path
           d="m 132.4538,61.2754 0.121,-0.0605"
           id="path128" />
        <path
           d="m 132.5748,61.2149 h 0.1814"
           id="path130" />
        <path
           d="m 132.7562,61.2149 0.1209,0.0605"
           id="path132" />
        <path
           d="m 132.8771,61.2754 0.0605,0.1209"
           id="path134" />
        <path
           d="m 132.9376,61.3963 v 0.6653"
           id="path136" />
        <path
           d="m 132.9376,61.3963 0.0605,-0.1209"
           id="path138" />
        <path
           d="m 132.9981,61.2754 0.1209,-0.0605"
           id="path140" />
        <path
           d="m 133.119,61.2149 h 0.1815"
           id="path142" />
        <path
           d="m 133.3005,61.2149 0.1209,0.0605"
           id="path144" />
        <path
           d="m 133.4214,61.2754 0.0605,0.1209"
           id="path146" />
        <path
           d="m 133.4819,61.3963 v 0.6653"
           id="path148" />
        <path
           d="M 134.0866,62.0616 V 61.2149"
           id="path150" />
        <path
           d="m 134.0866,61.3359 0.0605,-0.0605"
           id="path152" />
        <path
           d="m 134.1471,61.2754 0.121,-0.0605"
           id="path154" />
        <path
           d="m 134.2681,61.2149 h 0.1814"
           id="path156" />
        <path
           d="m 134.4495,61.2149 0.1209,0.0605"
           id="path158" />
        <path
           d="m 134.5704,61.2754 0.0605,0.1209"
           id="path160" />
        <path
           d="m 134.6309,61.3963 v 0.6653"
           id="path162" />
        <path
           d="m 134.6309,61.3963 0.0605,-0.1209"
           id="path164" />
        <path
           d="m 134.6914,61.2754 0.1209,-0.0605"
           id="path166" />
        <path
           d="m 134.8123,61.2149 h 0.1815"
           id="path168" />
        <path
           d="m 134.9938,61.2149 0.1209,0.0605"
           id="path170" />
        <path
           d="m 135.1147,61.2754 0.0605,0.1209"
           id="path172" />
        <path
           d="m 135.1752,61.3963 v 0.6653"
           id="path174" />
        <path
           d="m 136.2637,62.0011 -0.1209,0.0605"
           id="path176" />
        <path
           d="m 136.1428,62.0616 h -0.2419"
           id="path178" />
        <path
           d="m 135.9009,62.0616 -0.121,-0.0605"
           id="path180" />
        <path
           d="m 135.7799,62.0011 -0.0604,-0.121"
           id="path182" />
        <path
           d="M 135.7195,61.8801 V 61.3963"
           id="path184" />
        <path
           d="m 135.7195,61.3963 0.0604,-0.1209"
           id="path186" />
        <path
           d="m 135.7799,61.2754 0.121,-0.0605"
           id="path188" />
        <path
           d="m 135.9009,61.2149 h 0.2419"
           id="path190" />
        <path
           d="m 136.1428,61.2149 0.1209,0.0605"
           id="path192" />
        <path
           d="m 136.2637,61.2754 0.0605,0.1209"
           id="path194" />
        <path
           d="m 136.3242,61.3963 v 0.121"
           id="path196" />
        <path
           d="m 136.3242,61.5173 -0.6047,0.1209"
           id="path198" />
        <path
           d="m 136.6871,61.2149 h 0.4838"
           id="path200" />
        <path
           d="m 136.8685,60.7916 v 1.0885"
           id="path202" />
        <path
           d="m 136.8685,61.8801 0.0605,0.121"
           id="path204" />
        <path
           d="m 136.929,62.0011 0.121,0.0605"
           id="path206" />
        <path
           d="m 137.05,62.0616 h 0.1209"
           id="path208" />
        <path
           d="m 138.078,62.0011 -0.1209,0.0605"
           id="path210" />
        <path
           d="m 137.9571,62.0616 h -0.2419"
           id="path212" />
        <path
           d="m 137.7152,62.0616 -0.121,-0.0605"
           id="path214" />
        <path
           d="m 137.5942,62.0011 -0.0604,-0.121"
           id="path216" />
        <path
           d="M 137.5338,61.8801 V 61.3963"
           id="path218" />
        <path
           d="m 137.5338,61.3963 0.0604,-0.1209"
           id="path220" />
        <path
           d="m 137.5942,61.2754 0.121,-0.0605"
           id="path222" />
        <path
           d="m 137.7152,61.2149 h 0.2419"
           id="path224" />
        <path
           d="m 137.9571,61.2149 0.1209,0.0605"
           id="path226" />
        <path
           d="m 138.078,61.2754 0.0605,0.1209"
           id="path228" />
        <path
           d="m 138.1385,61.3963 v 0.121"
           id="path230" />
        <path
           d="m 138.1385,61.5173 -0.6047,0.1209"
           id="path232" />
        <path
           d="M 138.6828,62.0616 V 61.2149"
           id="path234" />
        <path
           d="m 138.6828,61.4568 0.0605,-0.1209"
           id="path236" />
        <path
           d="m 138.7433,61.3359 0.0605,-0.0605"
           id="path238" />
        <path
           d="m 138.8038,61.2754 0.1209,-0.0605"
           id="path240" />
        <path
           d="m 138.9247,61.2149 h 0.121"
           id="path242" />
      </g>
    </g>
    <g
       style="fill:#840000;fill-opacity:0;stroke:#840000;stroke-width:0.1524;stroke-linecap:round;stroke-linejoin:round;stroke-opacity:1"
       id="g1396">
      <path
         style="fill:none;fill-opacity:0;stroke:#840000;stroke-width:0.1524;stroke-linecap:round;stroke-linejoin:round;stroke-opacity:1"
         d="m 166.37,64.77 h 1.016"
         id="path1394" />
    </g>
    <g
       style="fill:#840000;fill-opacity:1;stroke:#840000;stroke-width:0.1524;stroke-linecap:round;stroke-linejoin:round;stroke-opacity:1"
       id="g1400">
      <path
         style="fill:#840000;fill-opacity:1;fill-rule:evenodd;stroke:#840000;stroke-width:0.1524;stroke-linecap:round;stroke-linejoin:round;stroke-opacity:1"
         d="m 167.767,64.77 -1.143,-0.508 v 1.016 z"
         id="path1398" />
    </g>
    <g
       style="fill:#840000;fill-opacity:0;stroke:#840000;stroke-width:0.254;stroke-linecap:round;stroke-linejoin:round;stroke-opacity:1"
       id="g1404">
      <rect
         x="167.894"
         y="62.23"
         width="2.0320001"
         height="5.0799999"
         rx="0.000000"
         id="rect1402" />
    </g>
    <g
       style="fill:#840000;fill-opacity:0;stroke:#840000;stroke-width:0.1524;stroke-linecap:round;stroke-linejoin:round;stroke-opacity:1"
       id="g1408">
      <path
         d="M 168.91,62.23 V 60.96"
         id="path1406" />
    </g>
    <g
       style="fill:#a90000;fill-opacity:0;stroke:#a90000;stroke-width:0.1524;stroke-linecap:round;stroke-linejoin:round;stroke-opacity:1"
       id="g1428">
      <g
         transform="rotate(-90,168.656,61.595)"
         id="g1412">
        <text
           x="168.65601"
           y="61.595001"
           textLength="1.3365"
           font-size="1.6933px"
           lengthAdjust="spacingAndGlyphs"
           text-anchor="middle"
           opacity="0"
           id="text1410">1</text>
      </g>
      <g
         class="stroked-text"
         id="g1426">
        <desc
           id="desc1414">1</desc>
        <path
           d="m 168.3796,61.232 v 0.7257"
           id="path1416" />
        <path
           d="m 168.3796,61.5949 h -1.27"
           id="path1418" />
        <path
           d="m 167.1096,61.5949 0.1814,0.1209"
           id="path1420" />
        <path
           d="m 167.291,61.7158 0.121,0.121"
           id="path1422" />
        <path
           d="m 167.412,61.8368 0.0604,0.1209"
           id="path1424" />
      </g>
    </g>
    <g
       style="fill:#840000;fill-opacity:0;stroke:#840000;stroke-width:0.1524;stroke-linecap:round;stroke-linejoin:round;stroke-opacity:1"
       id="g1432">
      <path
         d="M 166.37,64.77 H 165.1"
         id="path1430" />
    </g>
    <g
       style="fill:#a90000;fill-opacity:0;stroke:#a90000;stroke-width:0.1524;stroke-linecap:round;stroke-linejoin:round;stroke-opacity:1"
       id="g1460">
      <text
         x="165.735"
         y="64.515999"
         textLength="1.3365"
         font-size="1.6933px"
         lengthAdjust="spacingAndGlyphs"
         text-anchor="middle"
         opacity="0"
         id="text1434">2</text>
      <g
         class="stroked-text"
         id="g1458">
        <desc
           id="desc1436">2</desc>
        <path
           d="m 165.3722,63.0905 0.0604,-0.0604"
           id="path1438" />
        <path
           d="m 165.4326,63.0301 0.121,-0.0605"
           id="path1440" />
        <path
           d="m 165.5536,62.9696 h 0.3024"
           id="path1442" />
        <path
           d="m 165.856,62.9696 0.1209,0.0605"
           id="path1444" />
        <path
           d="m 165.9769,63.0301 0.0605,0.0604"
           id="path1446" />
        <path
           d="m 166.0374,63.0905 0.0605,0.121"
           id="path1448" />
        <path
           d="m 166.0979,63.2115 v 0.1209"
           id="path1450" />
        <path
           d="m 166.0979,63.3324 -0.0605,0.1815"
           id="path1452" />
        <path
           d="m 166.0374,63.5139 -0.7257,0.7257"
           id="path1454" />
        <path
           d="m 165.3117,64.2396 h 0.7862"
           id="path1456" />
      </g>
    </g>
    <g
       style="fill:#840000;fill-opacity:0;stroke:#840000;stroke-width:0.1524;stroke-linecap:round;stroke-linejoin:round;stroke-opacity:1"
       id="g1464">
      <path
         d="m 168.91,67.31 v 1.27"
         id="path1462" />
    </g>
    <g
       style="fill:#a90000;fill-opacity:0;stroke:#a90000;stroke-width:0.1524;stroke-linecap:round;stroke-linejoin:round;stroke-opacity:1"
       id="g1500">
      <g
         transform="rotate(-90,168.656,67.945)"
         id="g1468">
        <text
           x="168.65601"
           y="67.945"
           textLength="1.3365"
           font-size="1.6933px"
           lengthAdjust="spacingAndGlyphs"
           text-anchor="middle"
           opacity="0"
           id="text1466">3</text>
      </g>
      <g
         class="stroked-text"
         id="g1498">
        <desc
           id="desc1470">3</desc>
        <path
           d="M 167.1096,68.3682 V 67.582"
           id="path1472" />
        <path
           d="m 167.1096,67.582 0.4838,0.4234"
           id="path1474" />
        <path
           d="M 167.5934,68.0054 V 67.8239"
           id="path1476" />
        <path
           d="m 167.5934,67.8239 0.0605,-0.1209"
           id="path1478" />
        <path
           d="m 167.6539,67.703 0.0604,-0.0605"
           id="path1480" />
        <path
           d="m 167.7143,67.6425 0.121,-0.0605"
           id="path1482" />
        <path
           d="m 167.8353,67.582 h 0.3024"
           id="path1484" />
        <path
           d="m 168.1377,67.582 0.1209,0.0605"
           id="path1486" />
        <path
           d="m 168.2586,67.6425 0.0605,0.0605"
           id="path1488" />
        <path
           d="m 168.3191,67.703 0.0605,0.1209"
           id="path1490" />
        <path
           d="m 168.3796,67.8239 v 0.3629"
           id="path1492" />
        <path
           d="m 168.3796,68.1868 -0.0605,0.1209"
           id="path1494" />
        <path
           d="m 168.3191,68.3077 -0.0605,0.0605"
           id="path1496" />
      </g>
    </g>
    <g
       style="fill:#006464;fill-opacity:0;stroke:#006464;stroke-width:0.1524;stroke-linecap:round;stroke-linejoin:round;stroke-opacity:1"
       id="g1570">
      <text
         x="172.4588"
         y="65.404999"
         textLength="3.2716999"
         font-size="1.6933px"
         lengthAdjust="spacingAndGlyphs"
         text-anchor="middle"
         opacity="0"
         id="text1502">Pot</text>
      <g
         class="stroked-text"
         id="g1568">
        <desc
           id="desc1504">Pot</desc>
        <path
           d="m 171.1888,65.2366 v -1.27"
           id="path1506" />
        <path
           d="m 171.1888,63.9666 h 0.4838"
           id="path1508" />
        <path
           d="m 171.6726,63.9666 0.121,0.0605"
           id="path1510" />
        <path
           d="m 171.7936,64.0271 0.0605,0.0604"
           id="path1512" />
        <path
           d="m 171.8541,64.0875 0.0604,0.121"
           id="path1514" />
        <path
           d="m 171.9145,64.2085 v 0.1814"
           id="path1516" />
        <path
           d="m 171.9145,64.3899 -0.0604,0.121"
           id="path1518" />
        <path
           d="m 171.8541,64.5109 -0.0605,0.0604"
           id="path1520" />
        <path
           d="m 171.7936,64.5713 -0.121,0.0605"
           id="path1522" />
        <path
           d="m 171.6726,64.6318 h -0.4838"
           id="path1524" />
        <path
           d="m 172.6403,65.2366 -0.121,-0.0605"
           id="path1526" />
        <path
           d="m 172.5193,65.1761 -0.0605,-0.0605"
           id="path1528" />
        <path
           d="m 172.4588,65.1156 -0.0604,-0.1209"
           id="path1530" />
        <path
           d="M 172.3984,64.9947 V 64.6318"
           id="path1532" />
        <path
           d="m 172.3984,64.6318 0.0604,-0.1209"
           id="path1534" />
        <path
           d="m 172.4588,64.5109 0.0605,-0.0605"
           id="path1536" />
        <path
           d="m 172.5193,64.4504 0.121,-0.0605"
           id="path1538" />
        <path
           d="m 172.6403,64.3899 h 0.1814"
           id="path1540" />
        <path
           d="m 172.8217,64.3899 0.1209,0.0605"
           id="path1542" />
        <path
           d="m 172.9426,64.4504 0.0605,0.0605"
           id="path1544" />
        <path
           d="m 173.0031,64.5109 0.0605,0.1209"
           id="path1546" />
        <path
           d="m 173.0636,64.6318 v 0.3629"
           id="path1548" />
        <path
           d="m 173.0636,64.9947 -0.0605,0.1209"
           id="path1550" />
        <path
           d="m 173.0031,65.1156 -0.0605,0.0605"
           id="path1552" />
        <path
           d="m 172.9426,65.1761 -0.1209,0.0605"
           id="path1554" />
        <path
           d="m 172.8217,65.2366 h -0.1814"
           id="path1556" />
        <path
           d="m 173.4264,64.3899 h 0.4838"
           id="path1558" />
        <path
           d="m 173.6078,63.9666 v 1.0885"
           id="path1560" />
        <path
           d="m 173.6078,65.0551 0.0605,0.121"
           id="path1562" />
        <path
           d="m 173.6683,65.1761 0.121,0.0605"
           id="path1564" />
        <path
           d="m 173.7893,65.2366 h 0.1209"
           id="path1566" />
      </g>
    </g>
    <path
       d="m 156.21,64.77 h 8.89"
       id="path1922"
       style="fill:#009600;fill-opacity:0;stroke:#009600;stroke-width:0.1524;stroke-linecap:round;stroke-linejoin:round;stroke-opacity:1" />
    <path
       d="M 140.335,74.93 H 168.91"
       id="path1924"
       style="fill:#009600;fill-opacity:0;stroke:#009600;stroke-width:0.1524;stroke-linecap:round;stroke-linejoin:round;stroke-opacity:1" />
    <path
       d="m 156.21,55.88 v 8.89"
       id="path1942"
       style="fill:#009600;fill-opacity:0;stroke:#009600;stroke-width:0.1524;stroke-linecap:round;stroke-linejoin:round;stroke-opacity:1" />
    <path
       d="M 140.335,55.88 H 156.21"
       id="path1944"
       style="fill:#009600;fill-opacity:0;stroke:#009600;stroke-width:0.1524;stroke-linecap:round;stroke-linejoin:round;stroke-opacity:1" />
    <path
       d="m 140.335,55.88 v 4.445"
       id="path1946"
       style="fill:#009600;fill-opacity:0;stroke:#009600;stroke-width:0.1524;stroke-linecap:round;stroke-linejoin:round;stroke-opacity:1" />
    <path
       d="M 140.335,74.93 V 70.485"
       id="path1948"
       style="fill:#009600;fill-opacity:0;stroke:#009600;stroke-width:0.1524;stroke-linecap:round;stroke-linejoin:round;stroke-opacity:1" />
    <path
       d="M 168.91,74.93 V 68.58"
       id="path1956"
       style="fill:#009600;fill-opacity:0;stroke:#009600;stroke-width:0.1524;stroke-linecap:round;stroke-linejoin:round;stroke-opacity:1" />
  </g>
  <metadata
     id="metadata2787">
    <rdf:RDF>
      <cc:Work
         rdf:about="">
        <dc:title>SVG Image created as mediciones_p3.svg date 2023/02/26 15:20:48 </dc:title>
      </cc:Work>
    </rdf:RDF>
  </metadata>
</svg>
