<?xml version="1.0" encoding="UTF-8" standalone="no"?>
<svg
   version="1.1"
   width="1100.0001"
   height="601.4505"
   viewBox="0 0 291.04168 159.13377"
   id="svg1966"
   sodipodi:docname="pot4.svg"
   inkscape:version="1.1.1 (3bf5ae0d25, 2021-09-20)"
   xmlns:inkscape="http://www.inkscape.org/namespaces/inkscape"
   xmlns:sodipodi="http://sodipodi.sourceforge.net/DTD/sodipodi-0.dtd"
   xmlns="http://www.w3.org/2000/svg"
   xmlns:svg="http://www.w3.org/2000/svg"
   xmlns:rdf="http://www.w3.org/1999/02/22-rdf-syntax-ns#"
   xmlns:cc="http://creativecommons.org/ns#"
   xmlns:dc="http://purl.org/dc/elements/1.1/">
  <defs
     id="defs1970" />
  <sodipodi:namedview
     id="namedview1968"
     pagecolor="#ffffff"
     bordercolor="#666666"
     borderopacity="1.0"
     inkscape:pageshadow="2"
     inkscape:pageopacity="0.0"
     inkscape:pagecheckerboard="0"
     inkscape:document-units="mm"
     showgrid="false"
     units="px"
     width="1100.0001px"
     inkscape:zoom="0.6866332"
     inkscape:cx="500.2671"
     inkscape:cy="175.49399"
     inkscape:window-width="1280"
     inkscape:window-height="736"
     inkscape:window-x="0"
     inkscape:window-y="0"
     inkscape:window-maximized="1"
     inkscape:current-layer="svg1966" />
  <title
     id="title2">SVG Image created as mediciones_p3.svg date 2023/02/26 15:20:48 </title>
  <desc
     id="desc4">Image generated by Eeschema-SVG </desc>
  <g
     style="fill:#000000;fill-opacity:1;stroke:#000000;stroke-linecap:round;stroke-linejoin:round;stroke-opacity:1"
     id="g6"
     transform="translate(-127.03244,-91.195406)" />
  <g
     id="g8"
     style="fill:#000000;fill-opacity:0;stroke:#000000;stroke-width:0.1524;stroke-linecap:round;stroke-linejoin:round;stroke-opacity:1"
     transform="translate(-127.03244,-91.195406)" />
  <g
     id="g250"
     style="fill:#006464;fill-opacity:0;stroke:#006464;stroke-width:0.1524;stroke-linecap:round;stroke-linejoin:round;stroke-opacity:1"
     transform="translate(-127.03244,-91.195406)" />
  <g
     id="g492"
     style="fill:#006464;fill-opacity:0;stroke:#006464;stroke-width:0.1524;stroke-linecap:round;stroke-linejoin:round;stroke-opacity:1"
     transform="translate(-127.03244,-91.195406)" />
  <g
     id="g674"
     style="fill:#006464;fill-opacity:0;stroke:#006464;stroke-width:0.1524;stroke-linecap:round;stroke-linejoin:round;stroke-opacity:1"
     transform="translate(-127.03244,-91.195406)" />
  <g
     id="g916"
     style="fill:#006464;fill-opacity:0;stroke:#006464;stroke-width:0.1524;stroke-linecap:round;stroke-linejoin:round;stroke-opacity:1"
     transform="translate(-127.03244,-91.195406)" />
  <g
     style="fill:#840000;fill-opacity:0;stroke:#840000;stroke-width:0.1524;stroke-linecap:round;stroke-linejoin:round;stroke-opacity:1"
     id="g918"
     transform="translate(-127.03244,-91.195406)" />
  <g
     id="g972"
     style="fill:#006464;fill-opacity:0;stroke:#006464;stroke-width:0.1524;stroke-linecap:round;stroke-linejoin:round;stroke-opacity:1"
     transform="translate(-127.03244,-91.195406)" />
  <g
     id="g1154"
     style="fill:#006464;fill-opacity:0;stroke:#006464;stroke-width:0.1524;stroke-linecap:round;stroke-linejoin:round;stroke-opacity:1"
     transform="translate(-127.03244,-91.195406)" />
  <g
     style="fill:#840000;fill-opacity:0;stroke:#840000;stroke-width:0.1524;stroke-linecap:round;stroke-linejoin:round;stroke-opacity:1"
     id="g1156"
     transform="translate(-127.03244,-91.195406)" />
  <g
     id="g1210"
     style="fill:#006464;fill-opacity:0;stroke:#006464;stroke-width:0.1524;stroke-linecap:round;stroke-linejoin:round;stroke-opacity:1"
     transform="translate(-127.03244,-91.195406)" />
  <g
     id="g1392"
     style="fill:#006464;fill-opacity:0;stroke:#006464;stroke-width:0.1524;stroke-linecap:round;stroke-linejoin:round;stroke-opacity:1"
     transform="translate(-127.03244,-91.195406)" />
  <g
     id="g1574"
     style="fill:#006464;fill-opacity:0;stroke:#006464;stroke-width:0.1524;stroke-linecap:round;stroke-linejoin:round;stroke-opacity:1"
     transform="translate(-127.03244,-91.195406)" />
  <g
     id="g1816"
     style="fill:#006464;fill-opacity:0;stroke:#006464;stroke-width:0.1524;stroke-linecap:round;stroke-linejoin:round;stroke-opacity:1"
     transform="translate(-127.03244,-91.195406)" />
  <g
     style="fill:#840000;fill-opacity:0;stroke:#840000;stroke-width:0.1524;stroke-linecap:round;stroke-linejoin:round;stroke-opacity:1"
     id="g1818"
     transform="translate(-127.03244,-91.195406)" />
  <g
     style="fill:#006464;fill-opacity:0;stroke:#006464;stroke-width:0.1524;stroke-linecap:round;stroke-linejoin:round;stroke-opacity:1"
     id="g1882"
     transform="translate(-127.03244,-91.195406)" />
  <g
     id="g4190"
     transform="matrix(5.6188406,0,0,5.6188406,-700.54582,-499.18325)">
    <g
       style="fill:#840000;fill-opacity:0;stroke:#840000;stroke-width:0.254;stroke-linecap:round;stroke-linejoin:round;stroke-opacity:1"
       id="g1160">
      <rect
         x="151.13"
         y="93.598999"
         width="5.0799999"
         height="2.0320001"
         rx="0.000000"
         id="rect1158" />
    </g>
    <g
       style="fill:#840000;fill-opacity:0;stroke:#840000;stroke-width:0.1524;stroke-linecap:round;stroke-linejoin:round;stroke-opacity:1"
       id="g1166">
      <path
         d="m 151.13,94.615 h -1.27"
         id="path1162" />
      <path
         d="m 156.21,94.615 h 1.27"
         id="path1164" />
    </g>
    <g
       style="fill:#006464;fill-opacity:0;stroke:#006464;stroke-width:0.1524;stroke-linecap:round;stroke-linejoin:round;stroke-opacity:1"
       id="g1206">
      <text
         x="153.66991"
         y="92.709999"
         textLength="2.6064999"
         font-size="1.6933px"
         lengthAdjust="spacingAndGlyphs"
         text-anchor="middle"
         opacity="0"
         id="text1168">R1</text>
      <g
         class="stroked-text"
         id="g1204">
        <desc
           id="desc1170">R1</desc>
        <path
           d="m 153.4582,92.5416 -0.4233,-0.6048"
           id="path1172" />
        <path
           d="m 152.7325,92.5416 v -1.27"
           id="path1174" />
        <path
           d="m 152.7325,91.2716 h 0.4838"
           id="path1176" />
        <path
           d="m 153.2163,91.2716 0.121,0.0605"
           id="path1178" />
        <path
           d="m 153.3373,91.3321 0.0605,0.0604"
           id="path1180" />
        <path
           d="m 153.3978,91.3925 0.0604,0.121"
           id="path1182" />
        <path
           d="m 153.4582,91.5135 v 0.1814"
           id="path1184" />
        <path
           d="m 153.4582,91.6949 -0.0604,0.121"
           id="path1186" />
        <path
           d="m 153.3978,91.8159 -0.0605,0.0604"
           id="path1188" />
        <path
           d="m 153.3373,91.8763 -0.121,0.0605"
           id="path1190" />
        <path
           d="m 153.2163,91.9368 h -0.4838"
           id="path1192" />
        <path
           d="m 154.6678,92.5416 h -0.7257"
           id="path1194" />
        <path
           d="m 154.3049,92.5416 v -1.27"
           id="path1196" />
        <path
           d="M 154.3049,91.2716 154.184,91.453"
           id="path1198" />
        <path
           d="m 154.184,91.453 -0.121,0.121"
           id="path1200" />
        <path
           d="m 154.063,91.574 -0.1209,0.0604"
           id="path1202" />
      </g>
    </g>
    <g
       style="fill:#840000;fill-opacity:0;stroke:#840000;stroke-width:0.1524;stroke-linecap:round;stroke-linejoin:round;stroke-opacity:1"
       id="g1214">
      <path
         style="fill:none;fill-opacity:0;stroke:#840000;stroke-width:0.1524;stroke-linecap:round;stroke-linejoin:round;stroke-opacity:1"
         d="m 166.37,103.505 h 1.016"
         id="path1212" />
    </g>
    <g
       style="fill:#840000;fill-opacity:1;stroke:#840000;stroke-width:0.1524;stroke-linecap:round;stroke-linejoin:round;stroke-opacity:1"
       id="g1218">
      <path
         style="fill:#840000;fill-opacity:1;fill-rule:evenodd;stroke:#840000;stroke-width:0.1524;stroke-linecap:round;stroke-linejoin:round;stroke-opacity:1"
         d="m 167.767,103.505 -1.143,-0.508 v 1.016 z"
         id="path1216" />
    </g>
    <g
       style="fill:#840000;fill-opacity:0;stroke:#840000;stroke-width:0.254;stroke-linecap:round;stroke-linejoin:round;stroke-opacity:1"
       id="g1222">
      <rect
         x="167.894"
         y="100.965"
         width="2.0320001"
         height="5.0799999"
         rx="0.000000"
         id="rect1220" />
    </g>
    <g
       style="fill:#840000;fill-opacity:0;stroke:#840000;stroke-width:0.1524;stroke-linecap:round;stroke-linejoin:round;stroke-opacity:1"
       id="g1226">
      <path
         d="m 168.91,100.965 v -1.27"
         id="path1224" />
    </g>
    <g
       style="fill:#a90000;fill-opacity:0;stroke:#a90000;stroke-width:0.1524;stroke-linecap:round;stroke-linejoin:round;stroke-opacity:1"
       id="g1246">
      <g
         transform="rotate(-90,168.656,100.33)"
         id="g1230">
        <text
           x="168.65601"
           y="100.33"
           textLength="1.3365"
           font-size="1.6933px"
           lengthAdjust="spacingAndGlyphs"
           text-anchor="middle"
           opacity="0"
           id="text1228">1</text>
      </g>
      <g
         class="stroked-text"
         id="g1244">
        <desc
           id="desc1232">1</desc>
        <path
           d="m 168.3796,99.967 v 0.7257"
           id="path1234" />
        <path
           d="m 168.3796,100.3299 h -1.27"
           id="path1236" />
        <path
           d="m 167.1096,100.3299 0.1814,0.1209"
           id="path1238" />
        <path
           d="m 167.291,100.4508 0.121,0.121"
           id="path1240" />
        <path
           d="m 167.412,100.5718 0.0604,0.1209"
           id="path1242" />
      </g>
    </g>
    <g
       style="fill:#840000;fill-opacity:0;stroke:#840000;stroke-width:0.1524;stroke-linecap:round;stroke-linejoin:round;stroke-opacity:1"
       id="g1250">
      <path
         d="M 166.37,103.505 H 165.1"
         id="path1248" />
    </g>
    <g
       style="fill:#a90000;fill-opacity:0;stroke:#a90000;stroke-width:0.1524;stroke-linecap:round;stroke-linejoin:round;stroke-opacity:1"
       id="g1278">
      <text
         x="165.735"
         y="103.251"
         textLength="1.3365"
         font-size="1.6933px"
         lengthAdjust="spacingAndGlyphs"
         text-anchor="middle"
         opacity="0"
         id="text1252">2</text>
      <g
         class="stroked-text"
         id="g1276">
        <desc
           id="desc1254">2</desc>
        <path
           d="m 165.3722,101.8255 0.0604,-0.0604"
           id="path1256" />
        <path
           d="m 165.4326,101.7651 0.121,-0.0605"
           id="path1258" />
        <path
           d="m 165.5536,101.7046 h 0.3024"
           id="path1260" />
        <path
           d="m 165.856,101.7046 0.1209,0.0605"
           id="path1262" />
        <path
           d="m 165.9769,101.7651 0.0605,0.0604"
           id="path1264" />
        <path
           d="m 166.0374,101.8255 0.0605,0.121"
           id="path1266" />
        <path
           d="m 166.0979,101.9465 v 0.1209"
           id="path1268" />
        <path
           d="m 166.0979,102.0674 -0.0605,0.1815"
           id="path1270" />
        <path
           d="m 166.0374,102.2489 -0.7257,0.7257"
           id="path1272" />
        <path
           d="m 165.3117,102.9746 h 0.7862"
           id="path1274" />
      </g>
    </g>
    <g
       style="fill:#840000;fill-opacity:0;stroke:#840000;stroke-width:0.1524;stroke-linecap:round;stroke-linejoin:round;stroke-opacity:1"
       id="g1282">
      <path
         d="m 168.91,106.045 v 1.27"
         id="path1280" />
    </g>
    <g
       style="fill:#a90000;fill-opacity:0;stroke:#a90000;stroke-width:0.1524;stroke-linecap:round;stroke-linejoin:round;stroke-opacity:1"
       id="g1318">
      <g
         transform="rotate(-90,168.656,106.68)"
         id="g1286">
        <text
           x="168.65601"
           y="106.68"
           textLength="1.3365"
           font-size="1.6933px"
           lengthAdjust="spacingAndGlyphs"
           text-anchor="middle"
           opacity="0"
           id="text1284">3</text>
      </g>
      <g
         class="stroked-text"
         id="g1316">
        <desc
           id="desc1288">3</desc>
        <path
           d="M 167.1096,107.1032 V 106.317"
           id="path1290" />
        <path
           d="m 167.1096,106.317 0.4838,0.4234"
           id="path1292" />
        <path
           d="m 167.5934,106.7404 v -0.1815"
           id="path1294" />
        <path
           d="m 167.5934,106.5589 0.0605,-0.1209"
           id="path1296" />
        <path
           d="m 167.6539,106.438 0.0604,-0.0605"
           id="path1298" />
        <path
           d="m 167.7143,106.3775 0.121,-0.0605"
           id="path1300" />
        <path
           d="m 167.8353,106.317 h 0.3024"
           id="path1302" />
        <path
           d="m 168.1377,106.317 0.1209,0.0605"
           id="path1304" />
        <path
           d="m 168.2586,106.3775 0.0605,0.0605"
           id="path1306" />
        <path
           d="m 168.3191,106.438 0.0605,0.1209"
           id="path1308" />
        <path
           d="m 168.3796,106.5589 v 0.3629"
           id="path1310" />
        <path
           d="m 168.3796,106.9218 -0.0605,0.1209"
           id="path1312" />
        <path
           d="m 168.3191,107.0427 -0.0605,0.0605"
           id="path1314" />
      </g>
    </g>
    <g
       style="fill:#006464;fill-opacity:0;stroke:#006464;stroke-width:0.1524;stroke-linecap:round;stroke-linejoin:round;stroke-opacity:1"
       id="g1388">
      <text
         x="172.4588"
         y="104.14"
         textLength="3.2716999"
         font-size="1.6933px"
         lengthAdjust="spacingAndGlyphs"
         text-anchor="middle"
         opacity="0"
         id="text1320">Pot</text>
      <g
         class="stroked-text"
         id="g1386">
        <desc
           id="desc1322">Pot</desc>
        <path
           d="m 171.1888,103.9716 v -1.27"
           id="path1324" />
        <path
           d="m 171.1888,102.7016 h 0.4838"
           id="path1326" />
        <path
           d="m 171.6726,102.7016 0.121,0.0605"
           id="path1328" />
        <path
           d="m 171.7936,102.7621 0.0605,0.0604"
           id="path1330" />
        <path
           d="m 171.8541,102.8225 0.0604,0.121"
           id="path1332" />
        <path
           d="m 171.9145,102.9435 v 0.1814"
           id="path1334" />
        <path
           d="m 171.9145,103.1249 -0.0604,0.121"
           id="path1336" />
        <path
           d="m 171.8541,103.2459 -0.0605,0.0604"
           id="path1338" />
        <path
           d="m 171.7936,103.3063 -0.121,0.0605"
           id="path1340" />
        <path
           d="m 171.6726,103.3668 h -0.4838"
           id="path1342" />
        <path
           d="m 172.6403,103.9716 -0.121,-0.0605"
           id="path1344" />
        <path
           d="m 172.5193,103.9111 -0.0605,-0.0605"
           id="path1346" />
        <path
           d="m 172.4588,103.8506 -0.0604,-0.1209"
           id="path1348" />
        <path
           d="m 172.3984,103.7297 v -0.3629"
           id="path1350" />
        <path
           d="m 172.3984,103.3668 0.0604,-0.1209"
           id="path1352" />
        <path
           d="m 172.4588,103.2459 0.0605,-0.0605"
           id="path1354" />
        <path
           d="m 172.5193,103.1854 0.121,-0.0605"
           id="path1356" />
        <path
           d="m 172.6403,103.1249 h 0.1814"
           id="path1358" />
        <path
           d="m 172.8217,103.1249 0.1209,0.0605"
           id="path1360" />
        <path
           d="m 172.9426,103.1854 0.0605,0.0605"
           id="path1362" />
        <path
           d="m 173.0031,103.2459 0.0605,0.1209"
           id="path1364" />
        <path
           d="m 173.0636,103.3668 v 0.3629"
           id="path1366" />
        <path
           d="m 173.0636,103.7297 -0.0605,0.1209"
           id="path1368" />
        <path
           d="m 173.0031,103.8506 -0.0605,0.0605"
           id="path1370" />
        <path
           d="m 172.9426,103.9111 -0.1209,0.0605"
           id="path1372" />
        <path
           d="m 172.8217,103.9716 h -0.1814"
           id="path1374" />
        <path
           d="m 173.4264,103.1249 h 0.4838"
           id="path1376" />
        <path
           d="m 173.6078,102.7016 v 1.0885"
           id="path1378" />
        <path
           d="m 173.6078,103.7901 0.0605,0.121"
           id="path1380" />
        <path
           d="m 173.6683,103.9111 0.121,0.0605"
           id="path1382" />
        <path
           d="m 173.7893,103.9716 h 0.1209"
           id="path1384" />
      </g>
    </g>
    <g
       style="fill:#840000;fill-opacity:0;stroke:#840000;stroke-width:0.1524;stroke-linecap:round;stroke-linejoin:round;stroke-opacity:1"
       id="g1582">
      <path
         style="fill:none;fill-opacity:0;stroke:#840000;stroke-width:0.1524;stroke-linecap:round;stroke-linejoin:round;stroke-opacity:1"
         d="m 134.62,107.315 1.27,-1.27"
         id="path1576" />
      <path
         style="fill:none;fill-opacity:0;stroke:#840000;stroke-width:0.1524;stroke-linecap:round;stroke-linejoin:round;stroke-opacity:1"
         d="m 139.7,102.235 1.27,-1.27"
         id="path1578" />
      <path
         style="fill:none;fill-opacity:0;stroke:#840000;stroke-width:0.1524;stroke-linecap:round;stroke-linejoin:round;stroke-opacity:1"
         d="m 139.7,100.965 h 1.27 v 1.27"
         id="path1580" />
    </g>
    <g
       style="fill:#840000;fill-opacity:0;stroke:#840000;stroke-width:0.254;stroke-linecap:round;stroke-linejoin:round;stroke-opacity:1"
       id="g1586">
      <circle
         cx="137.795"
         cy="104.14"
         r="2.54"
         id="circle1584" />
    </g>
    <g
       style="fill:#840000;fill-opacity:0;stroke:#840000;stroke-width:0.3175;stroke-linecap:round;stroke-linejoin:round;stroke-opacity:1"
       id="g1632">
      <text
         x="137.795"
         y="105.41"
         textLength="3.1887"
         font-size="3.3866px"
         lengthAdjust="spacingAndGlyphs"
         text-anchor="middle"
         opacity="0"
         id="text1588">Ω</text>
      <g
         class="stroked-text"
         id="g1630">
        <desc
           id="desc1590">Ω</desc>
        <path
           d="m 136.8274,105.0731 h 0.6047"
           id="path1592" />
        <path
           d="m 137.4321,105.0731 v -0.4838"
           id="path1594" />
        <path
           d="m 137.4321,104.5893 -0.2419,-0.121"
           id="path1596" />
        <path
           d="m 137.1902,104.4683 -0.2419,-0.2419"
           id="path1598" />
        <path
           d="m 136.9483,104.2264 -0.1209,-0.3628"
           id="path1600" />
        <path
           d="m 136.8274,103.8636 v -0.6048"
           id="path1602" />
        <path
           d="m 136.8274,103.2588 0.1209,-0.3628"
           id="path1604" />
        <path
           d="m 136.9483,102.896 0.2419,-0.2419"
           id="path1606" />
        <path
           d="m 137.1902,102.6541 0.3629,-0.121"
           id="path1608" />
        <path
           d="m 137.5531,102.5331 h 0.4838"
           id="path1610" />
        <path
           d="m 138.0369,102.5331 0.3628,0.121"
           id="path1612" />
        <path
           d="m 138.3997,102.6541 0.2419,0.2419"
           id="path1614" />
        <path
           d="m 138.6416,102.896 0.121,0.3628"
           id="path1616" />
        <path
           d="m 138.7626,103.2588 v 0.6048"
           id="path1618" />
        <path
           d="m 138.7626,103.8636 -0.121,0.3628"
           id="path1620" />
        <path
           d="m 138.6416,104.2264 -0.2419,0.2419"
           id="path1622" />
        <path
           d="m 138.3997,104.4683 -0.2419,0.121"
           id="path1624" />
        <path
           d="m 138.1578,104.5893 v 0.4838"
           id="path1626" />
        <path
           d="m 138.1578,105.0731 h 0.6048"
           id="path1628" />
      </g>
    </g>
    <g
       style="fill:#840000;fill-opacity:0;stroke:#840000;stroke-width:0.1524;stroke-linecap:round;stroke-linejoin:round;stroke-opacity:1"
       id="g1638">
      <path
         d="m 137.795,106.68 v 2.54"
         id="path1634" />
      <path
         d="M 137.795,101.6 V 99.06"
         id="path1636" />
    </g>
    <g
       style="fill:#006464;fill-opacity:0;stroke:#006464;stroke-width:0.1524;stroke-linecap:round;stroke-linejoin:round;stroke-opacity:1"
       id="g1812">
      <text
         x="131.84911"
         y="99.695"
         textLength="9.6822004"
         font-size="1.6933px"
         lengthAdjust="spacingAndGlyphs"
         text-anchor="middle"
         opacity="0"
         id="text1640">Ohmmeter</text>
      <g
         class="stroked-text"
         id="g1810">
        <desc
           id="desc1642">Ohmmeter</desc>
        <path
           d="m 127.6157,98.2566 h 0.2419"
           id="path1644" />
        <path
           d="m 127.8576,98.2566 0.121,0.0605"
           id="path1646" />
        <path
           d="m 127.9786,98.3171 0.1209,0.1209"
           id="path1648" />
        <path
           d="m 128.0995,98.438 0.0605,0.2419"
           id="path1650" />
        <path
           d="m 128.16,98.6799 v 0.4233"
           id="path1652" />
        <path
           d="m 128.16,99.1032 -0.0605,0.2419"
           id="path1654" />
        <path
           d="m 128.0995,99.3451 -0.1209,0.121"
           id="path1656" />
        <path
           d="m 127.9786,99.4661 -0.121,0.0605"
           id="path1658" />
        <path
           d="m 127.8576,99.5266 h -0.2419"
           id="path1660" />
        <path
           d="m 127.6157,99.5266 -0.1209,-0.0605"
           id="path1662" />
        <path
           d="m 127.4948,99.4661 -0.121,-0.121"
           id="path1664" />
        <path
           d="m 127.3738,99.3451 -0.0604,-0.2419"
           id="path1666" />
        <path
           d="M 127.3134,99.1032 V 98.6799"
           id="path1668" />
        <path
           d="m 127.3134,98.6799 0.0604,-0.2419"
           id="path1670" />
        <path
           d="m 127.3738,98.438 0.121,-0.1209"
           id="path1672" />
        <path
           d="m 127.4948,98.3171 0.1209,-0.0605"
           id="path1674" />
        <path
           d="m 128.7043,99.5266 v -1.27"
           id="path1676" />
        <path
           d="M 129.2486,99.5266 V 98.8613"
           id="path1678" />
        <path
           d="m 129.2486,98.8613 -0.0605,-0.1209"
           id="path1680" />
        <path
           d="m 129.1881,98.7404 -0.1209,-0.0605"
           id="path1682" />
        <path
           d="m 129.0672,98.6799 h -0.1814"
           id="path1684" />
        <path
           d="m 128.8858,98.6799 -0.121,0.0605"
           id="path1686" />
        <path
           d="m 128.7648,98.7404 -0.0605,0.0605"
           id="path1688" />
        <path
           d="M 129.8533,99.5266 V 98.6799"
           id="path1690" />
        <path
           d="m 129.8533,98.8009 0.0605,-0.0605"
           id="path1692" />
        <path
           d="m 129.9138,98.7404 0.121,-0.0605"
           id="path1694" />
        <path
           d="m 130.0348,98.6799 h 0.1814"
           id="path1696" />
        <path
           d="m 130.2162,98.6799 0.1209,0.0605"
           id="path1698" />
        <path
           d="m 130.3371,98.7404 0.0605,0.1209"
           id="path1700" />
        <path
           d="m 130.3976,98.8613 v 0.6653"
           id="path1702" />
        <path
           d="m 130.3976,98.8613 0.0605,-0.1209"
           id="path1704" />
        <path
           d="m 130.4581,98.7404 0.1209,-0.0605"
           id="path1706" />
        <path
           d="m 130.579,98.6799 h 0.1815"
           id="path1708" />
        <path
           d="m 130.7605,98.6799 0.1209,0.0605"
           id="path1710" />
        <path
           d="m 130.8814,98.7404 0.0605,0.1209"
           id="path1712" />
        <path
           d="m 130.9419,98.8613 v 0.6653"
           id="path1714" />
        <path
           d="M 131.5466,99.5266 V 98.6799"
           id="path1716" />
        <path
           d="m 131.5466,98.8009 0.0605,-0.0605"
           id="path1718" />
        <path
           d="m 131.6071,98.7404 0.121,-0.0605"
           id="path1720" />
        <path
           d="m 131.7281,98.6799 h 0.1814"
           id="path1722" />
        <path
           d="m 131.9095,98.6799 0.1209,0.0605"
           id="path1724" />
        <path
           d="m 132.0304,98.7404 0.0605,0.1209"
           id="path1726" />
        <path
           d="m 132.0909,98.8613 v 0.6653"
           id="path1728" />
        <path
           d="m 132.0909,98.8613 0.0605,-0.1209"
           id="path1730" />
        <path
           d="m 132.1514,98.7404 0.1209,-0.0605"
           id="path1732" />
        <path
           d="m 132.2723,98.6799 h 0.1815"
           id="path1734" />
        <path
           d="m 132.4538,98.6799 0.1209,0.0605"
           id="path1736" />
        <path
           d="m 132.5747,98.7404 0.0605,0.1209"
           id="path1738" />
        <path
           d="m 132.6352,98.8613 v 0.6653"
           id="path1740" />
        <path
           d="m 133.7237,99.4661 -0.1209,0.0605"
           id="path1742" />
        <path
           d="m 133.6028,99.5266 h -0.2419"
           id="path1744" />
        <path
           d="m 133.3609,99.5266 -0.121,-0.0605"
           id="path1746" />
        <path
           d="m 133.2399,99.4661 -0.0604,-0.121"
           id="path1748" />
        <path
           d="M 133.1795,99.3451 V 98.8613"
           id="path1750" />
        <path
           d="m 133.1795,98.8613 0.0604,-0.1209"
           id="path1752" />
        <path
           d="m 133.2399,98.7404 0.121,-0.0605"
           id="path1754" />
        <path
           d="m 133.3609,98.6799 h 0.2419"
           id="path1756" />
        <path
           d="m 133.6028,98.6799 0.1209,0.0605"
           id="path1758" />
        <path
           d="m 133.7237,98.7404 0.0605,0.1209"
           id="path1760" />
        <path
           d="m 133.7842,98.8613 v 0.121"
           id="path1762" />
        <path
           d="m 133.7842,98.9823 -0.6047,0.1209"
           id="path1764" />
        <path
           d="m 134.1471,98.6799 h 0.4838"
           id="path1766" />
        <path
           d="m 134.3285,98.2566 v 1.0885"
           id="path1768" />
        <path
           d="m 134.3285,99.3451 0.0605,0.121"
           id="path1770" />
        <path
           d="m 134.389,99.4661 0.121,0.0605"
           id="path1772" />
        <path
           d="m 134.51,99.5266 h 0.1209"
           id="path1774" />
        <path
           d="m 135.538,99.4661 -0.1209,0.0605"
           id="path1776" />
        <path
           d="m 135.4171,99.5266 h -0.2419"
           id="path1778" />
        <path
           d="m 135.1752,99.5266 -0.121,-0.0605"
           id="path1780" />
        <path
           d="m 135.0542,99.4661 -0.0604,-0.121"
           id="path1782" />
        <path
           d="M 134.9938,99.3451 V 98.8613"
           id="path1784" />
        <path
           d="m 134.9938,98.8613 0.0604,-0.1209"
           id="path1786" />
        <path
           d="m 135.0542,98.7404 0.121,-0.0605"
           id="path1788" />
        <path
           d="m 135.1752,98.6799 h 0.2419"
           id="path1790" />
        <path
           d="m 135.4171,98.6799 0.1209,0.0605"
           id="path1792" />
        <path
           d="m 135.538,98.7404 0.0605,0.1209"
           id="path1794" />
        <path
           d="m 135.5985,98.8613 v 0.121"
           id="path1796" />
        <path
           d="m 135.5985,98.9823 -0.6047,0.1209"
           id="path1798" />
        <path
           d="M 136.1428,99.5266 V 98.6799"
           id="path1800" />
        <path
           d="m 136.1428,98.9218 0.0605,-0.1209"
           id="path1802" />
        <path
           d="m 136.2033,98.8009 0.0605,-0.0605"
           id="path1804" />
        <path
           d="m 136.2638,98.7404 0.1209,-0.0605"
           id="path1806" />
        <path
           d="m 136.3847,98.6799 h 0.121"
           id="path1808" />
      </g>
    </g>
    <g
       style="fill:#840000;fill-opacity:0;stroke:#840000;stroke-width:0.254;stroke-linecap:round;stroke-linejoin:round;stroke-opacity:1"
       id="g1822">
      <rect
         x="151.13"
         y="112.649"
         width="5.0799999"
         height="2.0320001"
         rx="0.000000"
         id="rect1820" />
    </g>
    <g
       style="fill:#840000;fill-opacity:0;stroke:#840000;stroke-width:0.1524;stroke-linecap:round;stroke-linejoin:round;stroke-opacity:1"
       id="g1828">
      <path
         d="m 151.13,113.665 h -1.27"
         id="path1824" />
      <path
         d="m 156.21,113.665 h 1.27"
         id="path1826" />
    </g>
    <g
       style="fill:#006464;fill-opacity:0;stroke:#006464;stroke-width:0.1524;stroke-linecap:round;stroke-linejoin:round;stroke-opacity:1"
       id="g1878">
      <text
         x="153.66991"
         y="111.76"
         textLength="2.6064999"
         font-size="1.6933px"
         lengthAdjust="spacingAndGlyphs"
         text-anchor="middle"
         opacity="0"
         id="text1830">R2</text>
      <g
         class="stroked-text"
         id="g1876">
        <desc
           id="desc1832">R2</desc>
        <path
           d="m 153.4582,111.5916 -0.4233,-0.6048"
           id="path1834" />
        <path
           d="m 152.7325,111.5916 v -1.27"
           id="path1836" />
        <path
           d="m 152.7325,110.3216 h 0.4838"
           id="path1838" />
        <path
           d="m 153.2163,110.3216 0.121,0.0605"
           id="path1840" />
        <path
           d="m 153.3373,110.3821 0.0605,0.0604"
           id="path1842" />
        <path
           d="m 153.3978,110.4425 0.0604,0.121"
           id="path1844" />
        <path
           d="m 153.4582,110.5635 v 0.1814"
           id="path1846" />
        <path
           d="m 153.4582,110.7449 -0.0604,0.121"
           id="path1848" />
        <path
           d="m 153.3978,110.8659 -0.0605,0.0604"
           id="path1850" />
        <path
           d="m 153.3373,110.9263 -0.121,0.0605"
           id="path1852" />
        <path
           d="m 153.2163,110.9868 h -0.4838"
           id="path1854" />
        <path
           d="m 153.9421,110.4425 0.0604,-0.0604"
           id="path1856" />
        <path
           d="m 154.0025,110.3821 0.121,-0.0605"
           id="path1858" />
        <path
           d="m 154.1235,110.3216 h 0.3024"
           id="path1860" />
        <path
           d="m 154.4259,110.3216 0.1209,0.0605"
           id="path1862" />
        <path
           d="m 154.5468,110.3821 0.0605,0.0604"
           id="path1864" />
        <path
           d="m 154.6073,110.4425 0.0605,0.121"
           id="path1866" />
        <path
           d="m 154.6678,110.5635 v 0.1209"
           id="path1868" />
        <path
           d="m 154.6678,110.6844 -0.0605,0.1815"
           id="path1870" />
        <path
           d="m 154.6073,110.8659 -0.7257,0.7257"
           id="path1872" />
        <path
           d="m 153.8816,111.5916 h 0.7862"
           id="path1874" />
      </g>
    </g>
    <path
       d="M 137.795,113.665 H 149.86"
       id="path1886"
       style="fill:#009600;fill-opacity:0;stroke:#009600;stroke-width:0.1524;stroke-linecap:round;stroke-linejoin:round;stroke-opacity:1" />
    <path
       d="M 137.795,94.615 H 149.86"
       id="path1890"
       style="fill:#009600;fill-opacity:0;stroke:#009600;stroke-width:0.1524;stroke-linecap:round;stroke-linejoin:round;stroke-opacity:1" />
    <path
       d="M 137.795,113.665 V 109.22"
       id="path1894"
       style="fill:#009600;fill-opacity:0;stroke:#009600;stroke-width:0.1524;stroke-linecap:round;stroke-linejoin:round;stroke-opacity:1" />
    <path
       d="M 137.795,94.615 V 99.06"
       id="path1912"
       style="fill:#009600;fill-opacity:0;stroke:#009600;stroke-width:0.1524;stroke-linecap:round;stroke-linejoin:round;stroke-opacity:1" />
    <path
       d="m 157.48,94.615 h 11.43"
       id="path1920"
       style="fill:#009600;fill-opacity:0;stroke:#009600;stroke-width:0.1524;stroke-linecap:round;stroke-linejoin:round;stroke-opacity:1" />
    <path
       d="m 157.48,113.665 h 11.43"
       id="path1926"
       style="fill:#009600;fill-opacity:0;stroke:#009600;stroke-width:0.1524;stroke-linecap:round;stroke-linejoin:round;stroke-opacity:1" />
    <path
       d="m 162.56,103.505 v 6.35"
       id="path1928"
       style="fill:#009600;fill-opacity:0;stroke:#009600;stroke-width:0.1524;stroke-linecap:round;stroke-linejoin:round;stroke-opacity:1" />
    <path
       d="m 165.1,103.505 h -2.54"
       id="path1930"
       style="fill:#009600;fill-opacity:0;stroke:#009600;stroke-width:0.1524;stroke-linecap:round;stroke-linejoin:round;stroke-opacity:1" />
    <path
       d="m 162.56,109.855 h 6.35"
       id="path1932"
       style="fill:#009600;fill-opacity:0;stroke:#009600;stroke-width:0.1524;stroke-linecap:round;stroke-linejoin:round;stroke-opacity:1" />
    <path
       d="m 168.91,94.615 v 5.08"
       id="path1934"
       style="fill:#009600;fill-opacity:0;stroke:#009600;stroke-width:0.1524;stroke-linecap:round;stroke-linejoin:round;stroke-opacity:1" />
    <path
       d="m 168.91,109.855 v 3.81"
       id="path1936"
       style="fill:#009600;fill-opacity:0;stroke:#009600;stroke-width:0.1524;stroke-linecap:round;stroke-linejoin:round;stroke-opacity:1" />
    <path
       d="m 168.91,107.315 v 2.54"
       id="path1938"
       style="fill:#009600;fill-opacity:0;stroke:#009600;stroke-width:0.1524;stroke-linecap:round;stroke-linejoin:round;stroke-opacity:1" />
    <circle
       cx="168.91"
       cy="109.855"
       r="0.45719999"
       id="circle1960"
       style="fill:#009600;fill-opacity:1;stroke:#009600;stroke-width:0.1524;stroke-linecap:round;stroke-linejoin:round;stroke-opacity:1" />
  </g>
  <metadata
     id="metadata2787">
    <rdf:RDF>
      <cc:Work
         rdf:about="">
        <dc:title>SVG Image created as mediciones_p3.svg date 2023/02/26 15:20:48 </dc:title>
      </cc:Work>
    </rdf:RDF>
  </metadata>
</svg>
