<?xml version="1.0" encoding="UTF-8" standalone="no"?>
<svg
   xmlns:dc="http://purl.org/dc/elements/1.1/"
   xmlns:cc="http://creativecommons.org/ns#"
   xmlns:rdf="http://www.w3.org/1999/02/22-rdf-syntax-ns#"
   xmlns:svg="http://www.w3.org/2000/svg"
   xmlns="http://www.w3.org/2000/svg"
   xmlns:sodipodi="http://sodipodi.sourceforge.net/DTD/sodipodi-0.dtd"
   xmlns:inkscape="http://www.inkscape.org/namespaces/inkscape"
   version="1.1"
   width="8.4666672cm"
   height="5.8387208cm"
   viewBox="0 0 33333.337 22987.092"
   id="svg182"
   sodipodi:docname="Circuitoos.svg"
   inkscape:version="1.0.2 (e86c870879, 2021-01-15)">
  <metadata
     id="metadata188">
    <rdf:RDF>
      <cc:Work
         rdf:about="">
        <dc:format>image/svg+xml</dc:format>
        <dc:type
           rdf:resource="http://purl.org/dc/dcmitype/StillImage" />
      </cc:Work>
    </rdf:RDF>
  </metadata>
  <defs
     id="defs186" />
  <sodipodi:namedview
     pagecolor="#ffffff"
     bordercolor="#666666"
     borderopacity="1"
     objecttolerance="10"
     gridtolerance="10"
     guidetolerance="10"
     inkscape:pageopacity="0"
     inkscape:pageshadow="2"
     inkscape:window-width="1920"
     inkscape:window-height="1018"
     id="namedview184"
     showgrid="false"
     inkscape:zoom="1.2739411"
     inkscape:cx="11.644491"
     inkscape:cy="170.46224"
     inkscape:window-x="0"
     inkscape:window-y="0"
     inkscape:window-maximized="1"
     inkscape:current-layer="svg182"
     inkscape:document-rotation="0" />
  <title
     id="title2">SVG Picture created as Circuitoos.svg date 2022/01/21 13:06:27 </title>
  <desc
     id="desc4">Picture generated by Eeschema-SVG </desc>
  <g
     style="fill:#000000;fill-opacity:1;stroke:#000000;stroke-linecap:round;stroke-linejoin:round;stroke-opacity:1"
     id="g6"
     transform="translate(-46170.007,-28696.008)" />
  <g
     id="g1267"
     transform="matrix(0.64000001,0,0,0.64000001,-0.00187904,-0.00240435)">
    <g
       style="fill:#000000;fill-opacity:0;stroke:#000000;stroke-width:60;stroke-linecap:round;stroke-linejoin:round;stroke-opacity:1"
       id="g48"
       transform="matrix(4.5848008,0,0,4.5848008,-211680.25,-131565.44)">
      <g
         id="g8" />
      <g
         style="fill:#840000;fill-opacity:0;stroke:#840000;stroke-width:60;stroke-linecap:round;stroke-linejoin:round;stroke-opacity:1"
         id="g10" />
      <g
         style="fill:#840000;fill-opacity:0;stroke:#840000;stroke-width:100;stroke-linecap:round;stroke-linejoin:round;stroke-opacity:1"
         id="g14">
        <rect
           x="51000"
           y="31100"
           width="2000"
           height="800"
           rx="0.000000"
           id="rect12" />
      </g>
      <g
         style="fill:#840000;fill-opacity:0;stroke:#840000;stroke-width:60;stroke-linecap:round;stroke-linejoin:round;stroke-opacity:1"
         id="g20">
        <path
           d="m 51000,31500 h -500"
           id="path16" />
        <path
           d="m 53000,31500 h 500"
           id="path18" />
      </g>
      <g
         style="fill:#006464;fill-opacity:0;stroke:#006464;stroke-width:60;stroke-linecap:round;stroke-linejoin:round;stroke-opacity:1"
         id="g46">
        <text
           x="52000"
           y="29249.961"
           textLength="988.5827"
           font-size="666.654px"
           lengthAdjust="spacingAndGlyphs"
           text-anchor="middle"
           opacity="0"
           id="text22">R?</text>
        <g
           class="stroked-text"
           id="g34">
          <desc
             id="desc24">R?</desc>
          <path
             d="m 51940,29226 -167,-238"
             id="path26" />
          <path
             d="m 51654,29226 v -500 h 191 l 47,23 24,24 24,48 v 71 l -24,48 -24,24 -47,24 h -191"
             id="path28" />
          <path
             d="m 52226,29178 24,24 -24,24 -24,-24 24,-24 v 48"
             id="path30" />
          <path
             d="m 52130,28749 48,-23 h 119 l 48,23 24,48 v 48 l -24,47 -24,24 -48,24 -23,24 -24,47 v 24"
             id="path32" />
        </g>
        <text
           x="52000"
           y="30249.961"
           textLength="560"
           font-size="666.654px"
           lengthAdjust="spacingAndGlyphs"
           text-anchor="middle"
           opacity="0"
           id="text36">R</text>
        <g
           class="stroked-text"
           id="g44">
          <desc
             id="desc38">R</desc>
          <path
             d="m 52154,30226 -166,-238"
             id="path40" />
          <path
             d="m 51869,30226 v -500 h 190 l 48,23 23,24 24,48 v 71 l -24,48 -23,24 -48,24 h -190"
             id="path42" />
        </g>
      </g>
    </g>
    <g
       style="fill:#006464;fill-opacity:0;stroke:#006464;stroke-width:60;stroke-linecap:round;stroke-linejoin:round;stroke-opacity:1"
       id="g90"
       transform="matrix(4.5848008,0,0,4.5848008,-211680.25,-131565.44)">
      <g
         id="g50" />
      <g
         style="fill:#840000;fill-opacity:0;stroke:#840000;stroke-width:60;stroke-linecap:round;stroke-linejoin:round;stroke-opacity:1"
         id="g52" />
      <g
         style="fill:#840000;fill-opacity:0;stroke:#840000;stroke-width:100;stroke-linecap:round;stroke-linejoin:round;stroke-opacity:1"
         id="g56">
        <rect
           x="55000"
           y="31100"
           width="2000"
           height="800"
           rx="0.000000"
           id="rect54" />
      </g>
      <g
         style="fill:#840000;fill-opacity:0;stroke:#840000;stroke-width:60;stroke-linecap:round;stroke-linejoin:round;stroke-opacity:1"
         id="g62">
        <path
           d="m 55000,31500 h -500"
           id="path58" />
        <path
           d="m 57000,31500 h 500"
           id="path60" />
      </g>
      <g
         style="fill:#006464;fill-opacity:0;stroke:#006464;stroke-width:60;stroke-linecap:round;stroke-linejoin:round;stroke-opacity:1"
         id="g88">
        <text
           x="56000"
           y="29249.961"
           textLength="988.5827"
           font-size="666.654px"
           lengthAdjust="spacingAndGlyphs"
           text-anchor="middle"
           opacity="0"
           id="text64">R?</text>
        <g
           class="stroked-text"
           id="g76">
          <desc
             id="desc66">R?</desc>
          <path
             d="m 55940,29226 -167,-238"
             id="path68" />
          <path
             d="m 55654,29226 v -500 h 191 l 47,23 24,24 24,48 v 71 l -24,48 -24,24 -47,24 h -191"
             id="path70" />
          <path
             d="m 56226,29178 24,24 -24,24 -24,-24 24,-24 v 48"
             id="path72" />
          <path
             d="m 56130,28749 48,-23 h 119 l 48,23 24,48 v 48 l -24,47 -24,24 -48,24 -23,24 -24,47 v 24"
             id="path74" />
        </g>
        <text
           x="56000"
           y="30249.961"
           textLength="560"
           font-size="666.654px"
           lengthAdjust="spacingAndGlyphs"
           text-anchor="middle"
           opacity="0"
           id="text78">R</text>
        <g
           class="stroked-text"
           id="g86">
          <desc
             id="desc80">R</desc>
          <path
             d="m 56154,30226 -166,-238"
             id="path82" />
          <path
             d="m 55869,30226 v -500 h 190 l 48,23 23,24 24,48 v 71 l -24,48 -23,24 -48,24 h -190"
             id="path84" />
        </g>
      </g>
    </g>
    <g
       style="fill:#006464;fill-opacity:0;stroke:#006464;stroke-width:60;stroke-linecap:round;stroke-linejoin:round;stroke-opacity:1"
       id="g180"
       transform="matrix(4.5848008,0,0,4.5848008,-211680.25,-131565.44)">
      <g
         id="g92" />
      <g
         style="fill:#840000;fill-opacity:0;stroke:#840000;stroke-width:60;stroke-linecap:round;stroke-linejoin:round;stroke-opacity:1"
         id="g94" />
      <g
         style="fill:#840000;fill-opacity:1;stroke:#840000;stroke-width:60;stroke-linecap:round;stroke-linejoin:round;stroke-opacity:1"
         id="g104">
        <rect
           x="46200"
           y="35050"
           width="1600"
           height="100"
           rx="0.000000"
           id="rect96" />
        <rect
           x="46200"
           y="33800"
           width="1600"
           height="100"
           rx="0.000000"
           id="rect98" />
        <rect
           x="46480"
           y="35280"
           width="1020"
           height="200"
           rx="0.000000"
           id="rect100" />
        <rect
           x="46480"
           y="34030"
           width="1020"
           height="200"
           rx="0.000000"
           id="rect102" />
      </g>
      <g
         style="fill:#840000;fill-opacity:0;stroke:#840000;stroke-width:60;stroke-linecap:round;stroke-linejoin:round;stroke-opacity:1"
         id="g118">
        <path
           style="fill:none;fill-opacity:0;stroke:#840000;stroke-width:60;stroke-linecap:round;stroke-linejoin:round;stroke-opacity:1"
           d="m 47000,35100 v -100"
           id="path106" />
        <path
           style="fill:none;fill-opacity:0;stroke:#840000;stroke-width:60;stroke-linecap:round;stroke-linejoin:round;stroke-opacity:1"
           d="m 47000,34900 v -100"
           id="path108" />
        <path
           style="fill:none;fill-opacity:0;stroke:#840000;stroke-width:60;stroke-linecap:round;stroke-linejoin:round;stroke-opacity:1"
           d="m 47000,34700 v -100"
           id="path110" />
        <path
           style="fill:none;fill-opacity:0;stroke:#840000;stroke-width:60;stroke-linecap:round;stroke-linejoin:round;stroke-opacity:1"
           d="m 47000,34500 v -100"
           id="path112" />
        <path
           style="fill:none;fill-opacity:0;stroke:#840000;stroke-width:60;stroke-linecap:round;stroke-linejoin:round;stroke-opacity:1"
           d="m 47000,34300 v -100"
           id="path114" />
        <path
           style="fill:none;fill-opacity:0;stroke:#840000;stroke-width:60;stroke-linecap:round;stroke-linejoin:round;stroke-opacity:1"
           d="m 47000,33800 v -300"
           id="path116" />
      </g>
      <g
         style="fill:#840000;fill-opacity:0;stroke:#840000;stroke-width:100;stroke-linecap:round;stroke-linejoin:round;stroke-opacity:1"
         id="g124">
        <path
           style="fill:none;fill-opacity:0;stroke:#840000;stroke-width:100;stroke-linecap:round;stroke-linejoin:round;stroke-opacity:1"
           d="m 47100,33450 h 400"
           id="path120" />
        <path
           style="fill:none;fill-opacity:0;stroke:#840000;stroke-width:100;stroke-linecap:round;stroke-linejoin:round;stroke-opacity:1"
           d="m 47300,33250 v 400"
           id="path122" />
      </g>
      <g
         style="fill:#840000;fill-opacity:0;stroke:#840000;stroke-width:60;stroke-linecap:round;stroke-linejoin:round;stroke-opacity:1"
         id="g130">
        <path
           d="M 47000,33500 V 32500"
           id="path126" />
        <path
           d="m 47000,35500 v 1000"
           id="path128" />
      </g>
      <g
         style="fill:#006464;fill-opacity:0;stroke:#006464;stroke-width:60;stroke-linecap:round;stroke-linejoin:round;stroke-opacity:1"
         id="g178">
        <text
           x="49186.023"
           y="34099.961"
           textLength="1369.5276"
           font-size="666.654px"
           lengthAdjust="spacingAndGlyphs"
           text-anchor="middle"
           opacity="0"
           id="text132">BT?</text>
        <g
           class="stroked-text"
           id="g146">
          <desc
             id="desc134">BT?</desc>
          <path
             d="m 48816,33814 72,24 24,23 24,48 v 71 l -24,48 -24,24 -48,24 h -190 v -500 h 166 l 48,23 24,24 24,48 v 47 l -24,48 -24,24 -48,24 h -166"
             id="path136" />
          <path
             d="m 49078,33576 h 286"
             id="path138" />
          <path
             d="m 49221,34076 v -500"
             id="path140" />
          <path
             d="m 49602,34028 24,24 -24,24 -24,-24 24,-24 v 48"
             id="path142" />
          <path
             d="m 49507,33599 48,-23 h 119 l 47,23 24,48 v 48 l -24,47 -24,24 -47,24 -24,24 -24,47 v 24"
             id="path144" />
        </g>
        <text
           x="49852.676"
           y="35099.961"
           textLength="2702.874"
           font-size="666.654px"
           lengthAdjust="spacingAndGlyphs"
           text-anchor="middle"
           opacity="0"
           id="text148">Battery</text>
        <g
           class="stroked-text"
           id="g176">
          <desc
             id="desc150">Battery</desc>
          <path
             d="m 48816,34814 72,24 24,23 23,48 v 71 l -23,48 -24,24 -48,24 h -190 v -500 h 166 l 48,23 24,24 24,48 v 47 l -24,48 -24,24 -48,24 h -166"
             id="path152" />
          <path
             d="m 49364,35076 v -262 l -24,-48 -47,-24 h -96 l -47,24"
             id="path154" />
          <path
             d="m 49364,35052 -48,24 h -119 l -47,-24 -24,-48 v -47 l 24,-48 47,-24 h 119 l 48,-24"
             id="path156" />
          <path
             d="m 49531,34742 h 190"
             id="path158" />
          <path
             d="m 49602,34576 v 428 l 24,48 48,24 h 47"
             id="path160" />
          <path
             d="m 49816,34742 h 191"
             id="path162" />
          <path
             d="m 49888,34576 v 428 l 24,48 47,24 h 48"
             id="path164" />
          <path
             d="m 50364,35052 -48,24 h -95 l -47,-24 -24,-48 v -190 l 24,-48 47,-24 h 95 l 48,24 24,48 v 47 l -238,48"
             id="path166" />
          <path
             d="m 50602,35076 v -334"
             id="path168" />
          <path
             d="m 50602,34838 24,-48 24,-24 47,-24 h 48"
             id="path170" />
          <path
             d="m 50864,34742 119,334"
             id="path172" />
          <path
             d="m 51102,34742 -119,334 -48,119 -23,23 -48,24"
             id="path174" />
        </g>
      </g>
    </g>
    <g
       style="fill:#000000;fill-opacity:0;stroke:#000000;stroke-width:60;stroke-linecap:round;stroke-linejoin:round;stroke-opacity:1"
       id="g959"
       transform="matrix(4.5848008,0,0,4.5848008,-211680.25,-131565.44)">
      <g
         id="g919" />
      <g
         style="fill:#840000;fill-opacity:0;stroke:#840000;stroke-width:60;stroke-linecap:round;stroke-linejoin:round;stroke-opacity:1"
         id="g921" />
      <g
         style="fill:#840000;fill-opacity:0;stroke:#840000;stroke-width:100;stroke-linecap:round;stroke-linejoin:round;stroke-opacity:1"
         id="g925">
        <rect
           x="51000"
           y="31100"
           width="2000"
           height="800"
           rx="0.000000"
           id="rect923" />
      </g>
      <g
         style="fill:#840000;fill-opacity:0;stroke:#840000;stroke-width:60;stroke-linecap:round;stroke-linejoin:round;stroke-opacity:1"
         id="g931">
        <path
           d="m 51000,31500 h -500"
           id="path927" />
        <path
           d="m 53000,31500 h 500"
           id="path929" />
      </g>
      <g
         style="fill:#006464;fill-opacity:0;stroke:#006464;stroke-width:60;stroke-linecap:round;stroke-linejoin:round;stroke-opacity:1"
         id="g957">
        <text
           x="52000"
           y="29249.961"
           textLength="988.5827"
           font-size="666.654px"
           lengthAdjust="spacingAndGlyphs"
           text-anchor="middle"
           opacity="0"
           id="text933">R?</text>
        <g
           class="stroked-text"
           id="g945">
          <desc
             id="desc935">R?</desc>
          <path
             d="m 51940,29226 -167,-238"
             id="path937" />
          <path
             d="m 51654,29226 v -500 h 191 l 47,23 24,24 24,48 v 71 l -24,48 -24,24 -47,24 h -191"
             id="path939" />
          <path
             d="m 52226,29178 24,24 -24,24 -24,-24 24,-24 v 48"
             id="path941" />
          <path
             d="m 52130,28749 48,-23 h 119 l 48,23 24,48 v 48 l -24,47 -24,24 -48,24 -23,24 -24,47 v 24"
             id="path943" />
        </g>
        <text
           x="52000"
           y="30249.961"
           textLength="560"
           font-size="666.654px"
           lengthAdjust="spacingAndGlyphs"
           text-anchor="middle"
           opacity="0"
           id="text947">R</text>
        <g
           class="stroked-text"
           id="g955">
          <desc
             id="desc949">R</desc>
          <path
             d="m 52154,30226 -166,-238"
             id="path951" />
          <path
             d="m 51869,30226 v -500 h 190 l 48,23 23,24 24,48 v 71 l -24,48 -23,24 -48,24 h -190"
             id="path953" />
        </g>
      </g>
    </g>
    <g
       style="fill:#006464;fill-opacity:0;stroke:#006464;stroke-width:60;stroke-linecap:round;stroke-linejoin:round;stroke-opacity:1"
       id="g1001"
       transform="matrix(4.5848008,0,0,4.5848008,-211680.25,-131565.44)">
      <g
         id="g961" />
      <g
         style="fill:#840000;fill-opacity:0;stroke:#840000;stroke-width:60;stroke-linecap:round;stroke-linejoin:round;stroke-opacity:1"
         id="g963" />
      <g
         style="fill:#840000;fill-opacity:0;stroke:#840000;stroke-width:100;stroke-linecap:round;stroke-linejoin:round;stroke-opacity:1"
         id="g967">
        <rect
           x="55000"
           y="31100"
           width="2000"
           height="800"
           rx="0.000000"
           id="rect965" />
      </g>
      <g
         style="fill:#840000;fill-opacity:0;stroke:#840000;stroke-width:60;stroke-linecap:round;stroke-linejoin:round;stroke-opacity:1"
         id="g973">
        <path
           d="m 55000,31500 h -500"
           id="path969" />
        <path
           d="m 57000,31500 h 500"
           id="path971" />
      </g>
      <g
         style="fill:#006464;fill-opacity:0;stroke:#006464;stroke-width:60;stroke-linecap:round;stroke-linejoin:round;stroke-opacity:1"
         id="g999">
        <text
           x="56000"
           y="29249.961"
           textLength="988.5827"
           font-size="666.654px"
           lengthAdjust="spacingAndGlyphs"
           text-anchor="middle"
           opacity="0"
           id="text975">R?</text>
        <g
           class="stroked-text"
           id="g987">
          <desc
             id="desc977">R?</desc>
          <path
             d="m 55940,29226 -167,-238"
             id="path979" />
          <path
             d="m 55654,29226 v -500 h 191 l 47,23 24,24 24,48 v 71 l -24,48 -24,24 -47,24 h -191"
             id="path981" />
          <path
             d="m 56226,29178 24,24 -24,24 -24,-24 24,-24 v 48"
             id="path983" />
          <path
             d="m 56130,28749 48,-23 h 119 l 48,23 24,48 v 48 l -24,47 -24,24 -48,24 -23,24 -24,47 v 24"
             id="path985" />
        </g>
        <text
           x="56000"
           y="30249.961"
           textLength="560"
           font-size="666.654px"
           lengthAdjust="spacingAndGlyphs"
           text-anchor="middle"
           opacity="0"
           id="text989">R</text>
        <g
           class="stroked-text"
           id="g997">
          <desc
             id="desc991">R</desc>
          <path
             d="m 56154,30226 -166,-238"
             id="path993" />
          <path
             d="m 55869,30226 v -500 h 190 l 48,23 23,24 24,48 v 71 l -24,48 -23,24 -48,24 h -190"
             id="path995" />
        </g>
      </g>
    </g>
    <g
       style="fill:#006464;fill-opacity:0;stroke:#006464;stroke-width:60;stroke-linecap:round;stroke-linejoin:round;stroke-opacity:1"
       id="g1091"
       transform="matrix(4.5848008,0,0,4.5848008,-211680.25,-131565.44)">
      <g
         id="g1003" />
      <g
         style="fill:#840000;fill-opacity:0;stroke:#840000;stroke-width:60;stroke-linecap:round;stroke-linejoin:round;stroke-opacity:1"
         id="g1005" />
      <g
         style="fill:#840000;fill-opacity:1;stroke:#840000;stroke-width:60;stroke-linecap:round;stroke-linejoin:round;stroke-opacity:1"
         id="g1015">
        <rect
           x="46200"
           y="35050"
           width="1600"
           height="100"
           rx="0.000000"
           id="rect1007" />
        <rect
           x="46200"
           y="33800"
           width="1600"
           height="100"
           rx="0.000000"
           id="rect1009" />
        <rect
           x="46480"
           y="35280"
           width="1020"
           height="200"
           rx="0.000000"
           id="rect1011" />
        <rect
           x="46480"
           y="34030"
           width="1020"
           height="200"
           rx="0.000000"
           id="rect1013" />
      </g>
      <g
         style="fill:#840000;fill-opacity:0;stroke:#840000;stroke-width:60;stroke-linecap:round;stroke-linejoin:round;stroke-opacity:1"
         id="g1029">
        <path
           style="fill:none;fill-opacity:0;stroke:#840000;stroke-width:60;stroke-linecap:round;stroke-linejoin:round;stroke-opacity:1"
           d="m 47000,35100 v -100"
           id="path1017" />
        <path
           style="fill:none;fill-opacity:0;stroke:#840000;stroke-width:60;stroke-linecap:round;stroke-linejoin:round;stroke-opacity:1"
           d="m 47000,34900 v -100"
           id="path1019" />
        <path
           style="fill:none;fill-opacity:0;stroke:#840000;stroke-width:60;stroke-linecap:round;stroke-linejoin:round;stroke-opacity:1"
           d="m 47000,34700 v -100"
           id="path1021" />
        <path
           style="fill:none;fill-opacity:0;stroke:#840000;stroke-width:60;stroke-linecap:round;stroke-linejoin:round;stroke-opacity:1"
           d="m 47000,34500 v -100"
           id="path1023" />
        <path
           style="fill:none;fill-opacity:0;stroke:#840000;stroke-width:60;stroke-linecap:round;stroke-linejoin:round;stroke-opacity:1"
           d="m 47000,34300 v -100"
           id="path1025" />
        <path
           style="fill:none;fill-opacity:0;stroke:#840000;stroke-width:60;stroke-linecap:round;stroke-linejoin:round;stroke-opacity:1"
           d="m 47000,33800 v -300"
           id="path1027" />
      </g>
      <g
         style="fill:#840000;fill-opacity:0;stroke:#840000;stroke-width:100;stroke-linecap:round;stroke-linejoin:round;stroke-opacity:1"
         id="g1035">
        <path
           style="fill:none;fill-opacity:0;stroke:#840000;stroke-width:100;stroke-linecap:round;stroke-linejoin:round;stroke-opacity:1"
           d="m 47100,33450 h 400"
           id="path1031" />
        <path
           style="fill:none;fill-opacity:0;stroke:#840000;stroke-width:100;stroke-linecap:round;stroke-linejoin:round;stroke-opacity:1"
           d="m 47300,33250 v 400"
           id="path1033" />
      </g>
      <g
         style="fill:#840000;fill-opacity:0;stroke:#840000;stroke-width:60;stroke-linecap:round;stroke-linejoin:round;stroke-opacity:1"
         id="g1041">
        <path
           d="M 47000,33500 V 32500"
           id="path1037" />
        <path
           d="m 47000,35500 v 1000"
           id="path1039" />
      </g>
      <g
         style="fill:#006464;fill-opacity:0;stroke:#006464;stroke-width:60;stroke-linecap:round;stroke-linejoin:round;stroke-opacity:1"
         id="g1089">
        <text
           x="49186.023"
           y="34099.961"
           textLength="1369.5276"
           font-size="666.654px"
           lengthAdjust="spacingAndGlyphs"
           text-anchor="middle"
           opacity="0"
           id="text1043">BT?</text>
        <g
           class="stroked-text"
           id="g1057">
          <desc
             id="desc1045">BT?</desc>
          <path
             d="m 48816,33814 72,24 24,23 24,48 v 71 l -24,48 -24,24 -48,24 h -190 v -500 h 166 l 48,23 24,24 24,48 v 47 l -24,48 -24,24 -48,24 h -166"
             id="path1047" />
          <path
             d="m 49078,33576 h 286"
             id="path1049" />
          <path
             d="m 49221,34076 v -500"
             id="path1051" />
          <path
             d="m 49602,34028 24,24 -24,24 -24,-24 24,-24 v 48"
             id="path1053" />
          <path
             d="m 49507,33599 48,-23 h 119 l 47,23 24,48 v 48 l -24,47 -24,24 -47,24 -24,24 -24,47 v 24"
             id="path1055" />
        </g>
        <text
           x="49852.676"
           y="35099.961"
           textLength="2702.874"
           font-size="666.654px"
           lengthAdjust="spacingAndGlyphs"
           text-anchor="middle"
           opacity="0"
           id="text1059">Battery</text>
        <g
           class="stroked-text"
           id="g1087">
          <desc
             id="desc1061">Battery</desc>
          <path
             d="m 48816,34814 72,24 24,23 23,48 v 71 l -23,48 -24,24 -48,24 h -190 v -500 h 166 l 48,23 24,24 24,48 v 47 l -24,48 -24,24 -48,24 h -166"
             id="path1063" />
          <path
             d="m 49364,35076 v -262 l -24,-48 -47,-24 h -96 l -47,24"
             id="path1065" />
          <path
             d="m 49364,35052 -48,24 h -119 l -47,-24 -24,-48 v -47 l 24,-48 47,-24 h 119 l 48,-24"
             id="path1067" />
          <path
             d="m 49531,34742 h 190"
             id="path1069" />
          <path
             d="m 49602,34576 v 428 l 24,48 48,24 h 47"
             id="path1071" />
          <path
             d="m 49816,34742 h 191"
             id="path1073" />
          <path
             d="m 49888,34576 v 428 l 24,48 47,24 h 48"
             id="path1075" />
          <path
             d="m 50364,35052 -48,24 h -95 l -47,-24 -24,-48 v -190 l 24,-48 47,-24 h 95 l 48,24 24,48 v 47 l -238,48"
             id="path1077" />
          <path
             d="m 50602,35076 v -334"
             id="path1079" />
          <path
             d="m 50602,34838 24,-48 24,-24 47,-24 h 48"
             id="path1081" />
          <path
             d="m 50864,34742 119,334"
             id="path1083" />
          <path
             d="m 51102,34742 -119,334 -48,119 -23,23 -48,24"
             id="path1085" />
        </g>
      </g>
    </g>
  </g>
</svg>
