<?xml version="1.0" encoding="UTF-8" standalone="no"?>
<svg
   version="1.1"
   width="1100.0001"
   height="519.09613"
   viewBox="0 0 291.04168 137.34419"
   id="svg1966"
   sodipodi:docname="pot1.svg"
   inkscape:version="1.1.1 (3bf5ae0d25, 2021-09-20)"
   xmlns:inkscape="http://www.inkscape.org/namespaces/inkscape"
   xmlns:sodipodi="http://sodipodi.sourceforge.net/DTD/sodipodi-0.dtd"
   xmlns="http://www.w3.org/2000/svg"
   xmlns:svg="http://www.w3.org/2000/svg"
   xmlns:rdf="http://www.w3.org/1999/02/22-rdf-syntax-ns#"
   xmlns:cc="http://creativecommons.org/ns#"
   xmlns:dc="http://purl.org/dc/elements/1.1/">
  <defs
     id="defs1970" />
  <sodipodi:namedview
     id="namedview1968"
     pagecolor="#ffffff"
     bordercolor="#666666"
     borderopacity="1.0"
     inkscape:pageshadow="2"
     inkscape:pageopacity="0.0"
     inkscape:pagecheckerboard="0"
     inkscape:document-units="mm"
     showgrid="false"
     inkscape:zoom="0.48552299"
     inkscape:cx="196.69511"
     inkscape:cy="211.11256"
     inkscape:window-width="1280"
     inkscape:window-height="736"
     inkscape:window-x="0"
     inkscape:window-y="0"
     inkscape:window-maximized="1"
     inkscape:current-layer="svg1966"
     units="px"
     width="1100.0001px" />
  <title
     id="title2">SVG Image created as mediciones_p3.svg date 2023/02/26 15:20:48 </title>
  <desc
     id="desc4">Image generated by Eeschema-SVG </desc>
  <g
     style="fill:#000000;fill-opacity:1;stroke:#000000;stroke-linecap:round;stroke-linejoin:round;stroke-opacity:1"
     id="g6"
     transform="translate(-62.897434,-56.438796)" />
  <g
     style="fill:#006464;fill-opacity:0;stroke:#006464;stroke-width:0.1524;stroke-linecap:round;stroke-linejoin:round;stroke-opacity:1"
     id="g1882"
     transform="translate(-62.897434,-56.438796)" />
  <g
     id="g3517"
     transform="matrix(5.7745832,0,0,5.7745832,-349.97727,-312.68138)">
    <g
       style="fill:#006464;fill-opacity:0;stroke:#006464;stroke-width:0.1524;stroke-linecap:round;stroke-linejoin:round;stroke-opacity:1"
       id="g490">
      <g
         id="g250" />
      <g
         style="fill:#840000;fill-opacity:0;stroke:#840000;stroke-width:0.1524;stroke-linecap:round;stroke-linejoin:round;stroke-opacity:1"
         id="g258">
        <path
           style="fill:none;fill-opacity:0;stroke:#840000;stroke-width:0.1524;stroke-linecap:round;stroke-linejoin:round;stroke-opacity:1"
           d="m 71.755,69.215 1.27,-1.27"
           id="path252" />
        <path
           style="fill:none;fill-opacity:0;stroke:#840000;stroke-width:0.1524;stroke-linecap:round;stroke-linejoin:round;stroke-opacity:1"
           d="m 76.835,64.135 1.27,-1.27"
           id="path254" />
        <path
           style="fill:none;fill-opacity:0;stroke:#840000;stroke-width:0.1524;stroke-linecap:round;stroke-linejoin:round;stroke-opacity:1"
           d="m 76.835,62.865 h 1.27 v 1.27"
           id="path256" />
      </g>
      <g
         style="fill:#840000;fill-opacity:0;stroke:#840000;stroke-width:0.254;stroke-linecap:round;stroke-linejoin:round;stroke-opacity:1"
         id="g262">
        <circle
           cx="74.93"
           cy="66.040001"
           r="2.54"
           id="circle260" />
      </g>
      <g
         style="fill:#840000;fill-opacity:0;stroke:#840000;stroke-width:0.3175;stroke-linecap:round;stroke-linejoin:round;stroke-opacity:1"
         id="g308">
        <text
           x="74.93"
           y="67.309998"
           textLength="3.1887"
           font-size="3.3866px"
           lengthAdjust="spacingAndGlyphs"
           text-anchor="middle"
           opacity="0"
           id="text264">Ω</text>
        <g
           class="stroked-text"
           id="g306">
          <desc
             id="desc266">Ω</desc>
          <path
             d="m 73.9624,66.9731 h 0.6047"
             id="path268" />
          <path
             d="M 74.5671,66.9731 V 66.4893"
             id="path270" />
          <path
             d="m 74.5671,66.4893 -0.2419,-0.121"
             id="path272" />
          <path
             d="M 74.3252,66.3683 74.0833,66.1264"
             id="path274" />
          <path
             d="M 74.0833,66.1264 73.9624,65.7636"
             id="path276" />
          <path
             d="M 73.9624,65.7636 V 65.1588"
             id="path278" />
          <path
             d="M 73.9624,65.1588 74.0833,64.796"
             id="path280" />
          <path
             d="m 74.0833,64.796 0.2419,-0.2419"
             id="path282" />
          <path
             d="m 74.3252,64.5541 0.3629,-0.121"
             id="path284" />
          <path
             d="m 74.6881,64.4331 h 0.4838"
             id="path286" />
          <path
             d="m 75.1719,64.4331 0.3628,0.121"
             id="path288" />
          <path
             d="m 75.5347,64.5541 0.2419,0.2419"
             id="path290" />
          <path
             d="m 75.7766,64.796 0.121,0.3628"
             id="path292" />
          <path
             d="m 75.8976,65.1588 v 0.6048"
             id="path294" />
          <path
             d="m 75.8976,65.7636 -0.121,0.3628"
             id="path296" />
          <path
             d="m 75.7766,66.1264 -0.2419,0.2419"
             id="path298" />
          <path
             d="m 75.5347,66.3683 -0.2419,0.121"
             id="path300" />
          <path
             d="m 75.2928,66.4893 v 0.4838"
             id="path302" />
          <path
             d="m 75.2928,66.9731 h 0.6048"
             id="path304" />
        </g>
      </g>
      <g
         style="fill:#840000;fill-opacity:0;stroke:#840000;stroke-width:0.1524;stroke-linecap:round;stroke-linejoin:round;stroke-opacity:1"
         id="g314">
        <path
           d="m 74.93,68.58 v 2.54"
           id="path310" />
        <path
           d="M 74.93,63.5 V 60.96"
           id="path312" />
      </g>
      <g
         style="fill:#006464;fill-opacity:0;stroke:#006464;stroke-width:0.1524;stroke-linecap:round;stroke-linejoin:round;stroke-opacity:1"
         id="g488">
        <text
           x="67.714104"
           y="63.5"
           textLength="9.6822004"
           font-size="1.6933px"
           lengthAdjust="spacingAndGlyphs"
           text-anchor="middle"
           opacity="0"
           id="text316">Ohmmeter</text>
        <g
           class="stroked-text"
           id="g486">
          <desc
             id="desc318">Ohmmeter</desc>
          <path
             d="m 63.4807,62.0616 h 0.2419"
             id="path320" />
          <path
             d="m 63.7226,62.0616 0.121,0.0605"
             id="path322" />
          <path
             d="m 63.8436,62.1221 0.1209,0.1209"
             id="path324" />
          <path
             d="m 63.9645,62.243 0.0605,0.2419"
             id="path326" />
          <path
             d="m 64.025,62.4849 v 0.4233"
             id="path328" />
          <path
             d="m 64.025,62.9082 -0.0605,0.2419"
             id="path330" />
          <path
             d="m 63.9645,63.1501 -0.1209,0.121"
             id="path332" />
          <path
             d="m 63.8436,63.2711 -0.121,0.0605"
             id="path334" />
          <path
             d="M 63.7226,63.3316 H 63.4807"
             id="path336" />
          <path
             d="M 63.4807,63.3316 63.3598,63.2711"
             id="path338" />
          <path
             d="m 63.3598,63.2711 -0.121,-0.121"
             id="path340" />
          <path
             d="M 63.2388,63.1501 63.1784,62.9082"
             id="path342" />
          <path
             d="M 63.1784,62.9082 V 62.4849"
             id="path344" />
          <path
             d="M 63.1784,62.4849 63.2388,62.243"
             id="path346" />
          <path
             d="m 63.2388,62.243 0.121,-0.1209"
             id="path348" />
          <path
             d="m 63.3598,62.1221 0.1209,-0.0605"
             id="path350" />
          <path
             d="m 64.5693,63.3316 v -1.27"
             id="path352" />
          <path
             d="M 65.1136,63.3316 V 62.6663"
             id="path354" />
          <path
             d="M 65.1136,62.6663 65.0531,62.5454"
             id="path356" />
          <path
             d="M 65.0531,62.5454 64.9322,62.4849"
             id="path358" />
          <path
             d="M 64.9322,62.4849 H 64.7508"
             id="path360" />
          <path
             d="m 64.7508,62.4849 -0.121,0.0605"
             id="path362" />
          <path
             d="m 64.6298,62.5454 -0.0605,0.0605"
             id="path364" />
          <path
             d="M 65.7183,63.3316 V 62.4849"
             id="path366" />
          <path
             d="m 65.7183,62.6059 0.0605,-0.0605"
             id="path368" />
          <path
             d="m 65.7788,62.5454 0.121,-0.0605"
             id="path370" />
          <path
             d="m 65.8998,62.4849 h 0.1814"
             id="path372" />
          <path
             d="m 66.0812,62.4849 0.1209,0.0605"
             id="path374" />
          <path
             d="m 66.2021,62.5454 0.0605,0.1209"
             id="path376" />
          <path
             d="m 66.2626,62.6663 v 0.6653"
             id="path378" />
          <path
             d="m 66.2626,62.6663 0.0605,-0.1209"
             id="path380" />
          <path
             d="M 66.3231,62.5454 66.444,62.4849"
             id="path382" />
          <path
             d="m 66.444,62.4849 h 0.1815"
             id="path384" />
          <path
             d="m 66.6255,62.4849 0.1209,0.0605"
             id="path386" />
          <path
             d="m 66.7464,62.5454 0.0605,0.1209"
             id="path388" />
          <path
             d="m 66.8069,62.6663 v 0.6653"
             id="path390" />
          <path
             d="M 67.4116,63.3316 V 62.4849"
             id="path392" />
          <path
             d="m 67.4116,62.6059 0.0605,-0.0605"
             id="path394" />
          <path
             d="m 67.4721,62.5454 0.121,-0.0605"
             id="path396" />
          <path
             d="m 67.5931,62.4849 h 0.1814"
             id="path398" />
          <path
             d="m 67.7745,62.4849 0.1209,0.0605"
             id="path400" />
          <path
             d="m 67.8954,62.5454 0.0605,0.1209"
             id="path402" />
          <path
             d="m 67.9559,62.6663 v 0.6653"
             id="path404" />
          <path
             d="m 67.9559,62.6663 0.0605,-0.1209"
             id="path406" />
          <path
             d="m 68.0164,62.5454 0.1209,-0.0605"
             id="path408" />
          <path
             d="m 68.1373,62.4849 h 0.1815"
             id="path410" />
          <path
             d="m 68.3188,62.4849 0.1209,0.0605"
             id="path412" />
          <path
             d="m 68.4397,62.5454 0.0605,0.1209"
             id="path414" />
          <path
             d="m 68.5002,62.6663 v 0.6653"
             id="path416" />
          <path
             d="m 69.5887,63.2711 -0.1209,0.0605"
             id="path418" />
          <path
             d="M 69.4678,63.3316 H 69.2259"
             id="path420" />
          <path
             d="m 69.2259,63.3316 -0.121,-0.0605"
             id="path422" />
          <path
             d="m 69.1049,63.2711 -0.0604,-0.121"
             id="path424" />
          <path
             d="M 69.0445,63.1501 V 62.6663"
             id="path426" />
          <path
             d="m 69.0445,62.6663 0.0604,-0.1209"
             id="path428" />
          <path
             d="m 69.1049,62.5454 0.121,-0.0605"
             id="path430" />
          <path
             d="m 69.2259,62.4849 h 0.2419"
             id="path432" />
          <path
             d="m 69.4678,62.4849 0.1209,0.0605"
             id="path434" />
          <path
             d="m 69.5887,62.5454 0.0605,0.1209"
             id="path436" />
          <path
             d="m 69.6492,62.6663 v 0.121"
             id="path438" />
          <path
             d="m 69.6492,62.7873 -0.6047,0.1209"
             id="path440" />
          <path
             d="m 70.0121,62.4849 h 0.4838"
             id="path442" />
          <path
             d="m 70.1935,62.0616 v 1.0885"
             id="path444" />
          <path
             d="m 70.1935,63.1501 0.0605,0.121"
             id="path446" />
          <path
             d="m 70.254,63.2711 0.121,0.0605"
             id="path448" />
          <path
             d="m 70.375,63.3316 h 0.1209"
             id="path450" />
          <path
             d="m 71.403,63.2711 -0.1209,0.0605"
             id="path452" />
          <path
             d="M 71.2821,63.3316 H 71.0402"
             id="path454" />
          <path
             d="m 71.0402,63.3316 -0.121,-0.0605"
             id="path456" />
          <path
             d="m 70.9192,63.2711 -0.0604,-0.121"
             id="path458" />
          <path
             d="M 70.8588,63.1501 V 62.6663"
             id="path460" />
          <path
             d="m 70.8588,62.6663 0.0604,-0.1209"
             id="path462" />
          <path
             d="m 70.9192,62.5454 0.121,-0.0605"
             id="path464" />
          <path
             d="m 71.0402,62.4849 h 0.2419"
             id="path466" />
          <path
             d="m 71.2821,62.4849 0.1209,0.0605"
             id="path468" />
          <path
             d="m 71.403,62.5454 0.0605,0.1209"
             id="path470" />
          <path
             d="m 71.4635,62.6663 v 0.121"
             id="path472" />
          <path
             d="m 71.4635,62.7873 -0.6047,0.1209"
             id="path474" />
          <path
             d="M 72.0078,63.3316 V 62.4849"
             id="path476" />
          <path
             d="m 72.0078,62.7268 0.0605,-0.1209"
             id="path478" />
          <path
             d="m 72.0683,62.6059 0.0605,-0.0605"
             id="path480" />
          <path
             d="m 72.1288,62.5454 0.1209,-0.0605"
             id="path482" />
          <path
             d="m 72.2497,62.4849 h 0.121"
             id="path484" />
        </g>
      </g>
    </g>
    <g
       style="fill:#006464;fill-opacity:0;stroke:#006464;stroke-width:0.1524;stroke-linecap:round;stroke-linejoin:round;stroke-opacity:1"
       id="g672">
      <g
         id="g492" />
      <g
         style="fill:#840000;fill-opacity:0;stroke:#840000;stroke-width:0.1524;stroke-linecap:round;stroke-linejoin:round;stroke-opacity:1"
         id="g496">
        <path
           style="fill:none;fill-opacity:0;stroke:#840000;stroke-width:0.1524;stroke-linecap:round;stroke-linejoin:round;stroke-opacity:1"
           d="m 100.965,65.405 h 1.016"
           id="path494" />
      </g>
      <g
         style="fill:#840000;fill-opacity:1;stroke:#840000;stroke-width:0.1524;stroke-linecap:round;stroke-linejoin:round;stroke-opacity:1"
         id="g500">
        <path
           style="fill:#840000;fill-opacity:1;fill-rule:evenodd;stroke:#840000;stroke-width:0.1524;stroke-linecap:round;stroke-linejoin:round;stroke-opacity:1"
           d="m 102.362,65.405 -1.143,-0.508 v 1.016 z"
           id="path498" />
      </g>
      <g
         style="fill:#840000;fill-opacity:0;stroke:#840000;stroke-width:0.254;stroke-linecap:round;stroke-linejoin:round;stroke-opacity:1"
         id="g504">
        <rect
           x="102.489"
           y="62.865002"
           width="2.0320001"
           height="5.0799999"
           rx="0.000000"
           id="rect502" />
      </g>
      <g
         style="fill:#840000;fill-opacity:0;stroke:#840000;stroke-width:0.1524;stroke-linecap:round;stroke-linejoin:round;stroke-opacity:1"
         id="g508">
        <path
           d="m 103.505,62.865 v -1.27"
           id="path506" />
      </g>
      <g
         style="fill:#a90000;fill-opacity:0;stroke:#a90000;stroke-width:0.1524;stroke-linecap:round;stroke-linejoin:round;stroke-opacity:1"
         id="g528">
        <g
           transform="rotate(-90,103.251,62.23)"
           id="g512">
          <text
             x="103.251"
             y="62.23"
             textLength="1.3365"
             font-size="1.6933px"
             lengthAdjust="spacingAndGlyphs"
             text-anchor="middle"
             opacity="0"
             id="text510">1</text>
        </g>
        <g
           class="stroked-text"
           id="g526">
          <desc
             id="desc514">1</desc>
          <path
             d="m 102.9746,61.867 v 0.7257"
             id="path516" />
          <path
             d="m 102.9746,62.2299 h -1.27"
             id="path518" />
          <path
             d="m 101.7046,62.2299 0.1814,0.1209"
             id="path520" />
          <path
             d="m 101.886,62.3508 0.121,0.121"
             id="path522" />
          <path
             d="m 102.007,62.4718 0.0604,0.1209"
             id="path524" />
        </g>
      </g>
      <g
         style="fill:#840000;fill-opacity:0;stroke:#840000;stroke-width:0.1524;stroke-linecap:round;stroke-linejoin:round;stroke-opacity:1"
         id="g532">
        <path
           d="m 100.965,65.405 h -1.27"
           id="path530" />
      </g>
      <g
         style="fill:#a90000;fill-opacity:0;stroke:#a90000;stroke-width:0.1524;stroke-linecap:round;stroke-linejoin:round;stroke-opacity:1"
         id="g560">
        <text
           x="100.33"
           y="65.151001"
           textLength="1.3365"
           font-size="1.6933px"
           lengthAdjust="spacingAndGlyphs"
           text-anchor="middle"
           opacity="0"
           id="text534">2</text>
        <g
           class="stroked-text"
           id="g558">
          <desc
             id="desc536">2</desc>
          <path
             d="m 99.9672,63.7255 0.0604,-0.0604"
             id="path538" />
          <path
             d="m 100.0276,63.6651 0.121,-0.0605"
             id="path540" />
          <path
             d="m 100.1486,63.6046 h 0.3024"
             id="path542" />
          <path
             d="m 100.451,63.6046 0.1209,0.0605"
             id="path544" />
          <path
             d="m 100.5719,63.6651 0.0605,0.0604"
             id="path546" />
          <path
             d="m 100.6324,63.7255 0.0605,0.121"
             id="path548" />
          <path
             d="m 100.6929,63.8465 v 0.1209"
             id="path550" />
          <path
             d="m 100.6929,63.9674 -0.0605,0.1815"
             id="path552" />
          <path
             d="m 100.6324,64.1489 -0.7257,0.7257"
             id="path554" />
          <path
             d="m 99.9067,64.8746 h 0.7862"
             id="path556" />
        </g>
      </g>
      <g
         style="fill:#840000;fill-opacity:0;stroke:#840000;stroke-width:0.1524;stroke-linecap:round;stroke-linejoin:round;stroke-opacity:1"
         id="g564">
        <path
           d="m 103.505,67.945 v 1.27"
           id="path562" />
      </g>
      <g
         style="fill:#a90000;fill-opacity:0;stroke:#a90000;stroke-width:0.1524;stroke-linecap:round;stroke-linejoin:round;stroke-opacity:1"
         id="g600">
        <g
           transform="rotate(-90,103.251,68.58)"
           id="g568">
          <text
             x="103.251"
             y="68.580002"
             textLength="1.3365"
             font-size="1.6933px"
             lengthAdjust="spacingAndGlyphs"
             text-anchor="middle"
             opacity="0"
             id="text566">3</text>
        </g>
        <g
           class="stroked-text"
           id="g598">
          <desc
             id="desc570">3</desc>
          <path
             d="M 101.7046,69.0032 V 68.217"
             id="path572" />
          <path
             d="m 101.7046,68.217 0.4838,0.4234"
             id="path574" />
          <path
             d="M 102.1884,68.6404 V 68.4589"
             id="path576" />
          <path
             d="m 102.1884,68.4589 0.0605,-0.1209"
             id="path578" />
          <path
             d="m 102.2489,68.338 0.0604,-0.0605"
             id="path580" />
          <path
             d="m 102.3093,68.2775 0.121,-0.0605"
             id="path582" />
          <path
             d="m 102.4303,68.217 h 0.3024"
             id="path584" />
          <path
             d="m 102.7327,68.217 0.1209,0.0605"
             id="path586" />
          <path
             d="m 102.8536,68.2775 0.0605,0.0605"
             id="path588" />
          <path
             d="m 102.9141,68.338 0.0605,0.1209"
             id="path590" />
          <path
             d="m 102.9746,68.4589 v 0.3629"
             id="path592" />
          <path
             d="m 102.9746,68.8218 -0.0605,0.1209"
             id="path594" />
          <path
             d="m 102.9141,68.9427 -0.0605,0.0605"
             id="path596" />
        </g>
      </g>
      <g
         style="fill:#006464;fill-opacity:0;stroke:#006464;stroke-width:0.1524;stroke-linecap:round;stroke-linejoin:round;stroke-opacity:1"
         id="g670">
        <text
           x="107.0538"
           y="66.040001"
           textLength="3.2716999"
           font-size="1.6933px"
           lengthAdjust="spacingAndGlyphs"
           text-anchor="middle"
           opacity="0"
           id="text602">Pot</text>
        <g
           class="stroked-text"
           id="g668">
          <desc
             id="desc604">Pot</desc>
          <path
             d="m 105.7838,65.8716 v -1.27"
             id="path606" />
          <path
             d="m 105.7838,64.6016 h 0.4838"
             id="path608" />
          <path
             d="m 106.2676,64.6016 0.121,0.0605"
             id="path610" />
          <path
             d="m 106.3886,64.6621 0.0605,0.0604"
             id="path612" />
          <path
             d="m 106.4491,64.7225 0.0604,0.121"
             id="path614" />
          <path
             d="m 106.5095,64.8435 v 0.1814"
             id="path616" />
          <path
             d="m 106.5095,65.0249 -0.0604,0.121"
             id="path618" />
          <path
             d="m 106.4491,65.1459 -0.0605,0.0604"
             id="path620" />
          <path
             d="m 106.3886,65.2063 -0.121,0.0605"
             id="path622" />
          <path
             d="m 106.2676,65.2668 h -0.4838"
             id="path624" />
          <path
             d="m 107.2353,65.8716 -0.121,-0.0605"
             id="path626" />
          <path
             d="m 107.1143,65.8111 -0.0605,-0.0605"
             id="path628" />
          <path
             d="m 107.0538,65.7506 -0.0604,-0.1209"
             id="path630" />
          <path
             d="M 106.9934,65.6297 V 65.2668"
             id="path632" />
          <path
             d="m 106.9934,65.2668 0.0604,-0.1209"
             id="path634" />
          <path
             d="m 107.0538,65.1459 0.0605,-0.0605"
             id="path636" />
          <path
             d="m 107.1143,65.0854 0.121,-0.0605"
             id="path638" />
          <path
             d="m 107.2353,65.0249 h 0.1814"
             id="path640" />
          <path
             d="m 107.4167,65.0249 0.1209,0.0605"
             id="path642" />
          <path
             d="m 107.5376,65.0854 0.0605,0.0605"
             id="path644" />
          <path
             d="m 107.5981,65.1459 0.0605,0.1209"
             id="path646" />
          <path
             d="m 107.6586,65.2668 v 0.3629"
             id="path648" />
          <path
             d="m 107.6586,65.6297 -0.0605,0.1209"
             id="path650" />
          <path
             d="m 107.5981,65.7506 -0.0605,0.0605"
             id="path652" />
          <path
             d="m 107.5376,65.8111 -0.1209,0.0605"
             id="path654" />
          <path
             d="m 107.4167,65.8716 h -0.1814"
             id="path656" />
          <path
             d="m 108.0214,65.0249 h 0.4838"
             id="path658" />
          <path
             d="m 108.2028,64.6016 v 1.0885"
             id="path660" />
          <path
             d="m 108.2028,65.6901 0.0605,0.121"
             id="path662" />
          <path
             d="m 108.2633,65.8111 0.121,0.0605"
             id="path664" />
          <path
             d="m 108.3843,65.8716 h 0.1209"
             id="path666" />
        </g>
      </g>
    </g>
    <path
       d="m 91.44,65.405 h 8.255"
       id="path1904"
       style="fill:#009600;fill-opacity:0;stroke:#009600;stroke-width:0.1524;stroke-linecap:round;stroke-linejoin:round;stroke-opacity:1" />
    <path
       d="M 103.505,56.515 H 74.93"
       id="path1906"
       style="fill:#009600;fill-opacity:0;stroke:#009600;stroke-width:0.1524;stroke-linecap:round;stroke-linejoin:round;stroke-opacity:1" />
    <path
       d="m 103.505,61.595 v -5.08"
       id="path1908"
       style="fill:#009600;fill-opacity:0;stroke:#009600;stroke-width:0.1524;stroke-linecap:round;stroke-linejoin:round;stroke-opacity:1" />
    <path
       d="M 91.44,75.565 H 74.93"
       id="path1910"
       style="fill:#009600;fill-opacity:0;stroke:#009600;stroke-width:0.1524;stroke-linecap:round;stroke-linejoin:round;stroke-opacity:1" />
    <path
       d="M 74.93,75.565 V 71.12"
       id="path1914"
       style="fill:#009600;fill-opacity:0;stroke:#009600;stroke-width:0.1524;stroke-linecap:round;stroke-linejoin:round;stroke-opacity:1" />
    <path
       d="M 74.93,56.515 V 60.96"
       id="path1916"
       style="fill:#009600;fill-opacity:0;stroke:#009600;stroke-width:0.1524;stroke-linecap:round;stroke-linejoin:round;stroke-opacity:1" />
    <path
       d="m 91.44,65.405 v 10.16"
       id="path1918"
       style="fill:#009600;fill-opacity:0;stroke:#009600;stroke-width:0.1524;stroke-linecap:round;stroke-linejoin:round;stroke-opacity:1" />
  </g>
  <g
     style="fill:#009600;fill-opacity:1;stroke:#009600;stroke-width:0.1524;stroke-linecap:round;stroke-linejoin:round;stroke-opacity:1"
     id="g1964"
     transform="translate(-62.897434,-56.438796)">
    <circle
       cx="168.91"
       cy="109.855"
       r="0.45719999"
       id="circle1960" />
    <circle
       cx="106.045"
       cy="109.855"
       r="0.45719999"
       id="circle1962" />
  </g>
  <metadata
     id="metadata2869">
    <rdf:RDF>
      <cc:Work
         rdf:about="">
        <dc:title>SVG Image created as mediciones_p3.svg date 2023/02/26 15:20:48 </dc:title>
      </cc:Work>
    </rdf:RDF>
  </metadata>
</svg>
