<?xml version="1.0" encoding="UTF-8" standalone="no"?>
<svg
   version="1.1"
   width="1100.0001"
   height="578.79523"
   viewBox="0 0 291.04168 153.13956"
   id="svg1966"
   sodipodi:docname="pot3.svg"
   inkscape:version="1.1.1 (3bf5ae0d25, 2021-09-20)"
   xmlns:inkscape="http://www.inkscape.org/namespaces/inkscape"
   xmlns:sodipodi="http://sodipodi.sourceforge.net/DTD/sodipodi-0.dtd"
   xmlns="http://www.w3.org/2000/svg"
   xmlns:svg="http://www.w3.org/2000/svg"
   xmlns:rdf="http://www.w3.org/1999/02/22-rdf-syntax-ns#"
   xmlns:cc="http://creativecommons.org/ns#"
   xmlns:dc="http://purl.org/dc/elements/1.1/">
  <defs
     id="defs1970" />
  <sodipodi:namedview
     id="namedview1968"
     pagecolor="#ffffff"
     bordercolor="#666666"
     borderopacity="1.0"
     inkscape:pageshadow="2"
     inkscape:pageopacity="0.0"
     inkscape:pagecheckerboard="0"
     inkscape:document-units="mm"
     showgrid="false"
     inkscape:zoom="0.6866332"
     inkscape:cx="610.95211"
     inkscape:cy="214.8163"
     inkscape:window-width="1280"
     inkscape:window-height="736"
     inkscape:window-x="0"
     inkscape:window-y="0"
     inkscape:window-maximized="1"
     inkscape:current-layer="svg1966"
     units="px" />
  <title
     id="title2">SVG Image created as mediciones_p3.svg date 2023/02/26 15:20:48 </title>
  <desc
     id="desc4">Image generated by Eeschema-SVG </desc>
  <g
     style="fill:#000000;fill-opacity:1;stroke:#000000;stroke-linecap:round;stroke-linejoin:round;stroke-opacity:1"
     id="g6"
     transform="translate(-64.167426,-91.195404)" />
  <g
     id="g8"
     style="fill:#000000;fill-opacity:0;stroke:#000000;stroke-width:0.1524;stroke-linecap:round;stroke-linejoin:round;stroke-opacity:1"
     transform="translate(-64.167426,-91.195404)" />
  <g
     id="g250"
     style="fill:#006464;fill-opacity:0;stroke:#006464;stroke-width:0.1524;stroke-linecap:round;stroke-linejoin:round;stroke-opacity:1"
     transform="translate(-64.167426,-91.195404)" />
  <g
     id="g492"
     style="fill:#006464;fill-opacity:0;stroke:#006464;stroke-width:0.1524;stroke-linecap:round;stroke-linejoin:round;stroke-opacity:1"
     transform="translate(-64.167426,-91.195404)" />
  <g
     id="g674"
     style="fill:#006464;fill-opacity:0;stroke:#006464;stroke-width:0.1524;stroke-linecap:round;stroke-linejoin:round;stroke-opacity:1"
     transform="translate(-64.167426,-91.195404)" />
  <g
     id="g916"
     style="fill:#006464;fill-opacity:0;stroke:#006464;stroke-width:0.1524;stroke-linecap:round;stroke-linejoin:round;stroke-opacity:1"
     transform="translate(-64.167426,-91.195404)" />
  <g
     style="fill:#840000;fill-opacity:0;stroke:#840000;stroke-width:0.1524;stroke-linecap:round;stroke-linejoin:round;stroke-opacity:1"
     id="g918"
     transform="translate(-64.167426,-91.195404)" />
  <g
     id="g972"
     style="fill:#006464;fill-opacity:0;stroke:#006464;stroke-width:0.1524;stroke-linecap:round;stroke-linejoin:round;stroke-opacity:1"
     transform="translate(-64.167426,-91.195404)" />
  <g
     id="g1154"
     style="fill:#006464;fill-opacity:0;stroke:#006464;stroke-width:0.1524;stroke-linecap:round;stroke-linejoin:round;stroke-opacity:1"
     transform="translate(-64.167426,-91.195404)" />
  <g
     style="fill:#840000;fill-opacity:0;stroke:#840000;stroke-width:0.1524;stroke-linecap:round;stroke-linejoin:round;stroke-opacity:1"
     id="g1156"
     transform="translate(-64.167426,-91.195404)" />
  <g
     id="g1210"
     style="fill:#006464;fill-opacity:0;stroke:#006464;stroke-width:0.1524;stroke-linecap:round;stroke-linejoin:round;stroke-opacity:1"
     transform="translate(-64.167426,-91.195404)" />
  <g
     id="g1392"
     style="fill:#006464;fill-opacity:0;stroke:#006464;stroke-width:0.1524;stroke-linecap:round;stroke-linejoin:round;stroke-opacity:1"
     transform="translate(-64.167426,-91.195404)" />
  <g
     id="g1574"
     style="fill:#006464;fill-opacity:0;stroke:#006464;stroke-width:0.1524;stroke-linecap:round;stroke-linejoin:round;stroke-opacity:1"
     transform="translate(-64.167426,-91.195404)" />
  <g
     id="g1816"
     style="fill:#006464;fill-opacity:0;stroke:#006464;stroke-width:0.1524;stroke-linecap:round;stroke-linejoin:round;stroke-opacity:1"
     transform="translate(-64.167426,-91.195404)" />
  <g
     style="fill:#840000;fill-opacity:0;stroke:#840000;stroke-width:0.1524;stroke-linecap:round;stroke-linejoin:round;stroke-opacity:1"
     id="g1818"
     transform="translate(-64.167426,-91.195404)" />
  <g
     style="fill:#006464;fill-opacity:0;stroke:#006464;stroke-width:0.1524;stroke-linecap:round;stroke-linejoin:round;stroke-opacity:1"
     id="g1882"
     transform="translate(-64.167426,-91.195404)" />
  <g
     id="g4159"
     transform="matrix(5.6188397,0,0,5.6188397,-347.31731,-499.18317)">
    <g
       style="fill:#840000;fill-opacity:0;stroke:#840000;stroke-width:0.1524;stroke-linecap:round;stroke-linejoin:round;stroke-opacity:1"
       id="g682">
      <path
         style="fill:none;fill-opacity:0;stroke:#840000;stroke-width:0.1524;stroke-linecap:round;stroke-linejoin:round;stroke-opacity:1"
         d="m 71.755,107.315 1.27,-1.27"
         id="path676" />
      <path
         style="fill:none;fill-opacity:0;stroke:#840000;stroke-width:0.1524;stroke-linecap:round;stroke-linejoin:round;stroke-opacity:1"
         d="m 76.835,102.235 1.27,-1.27"
         id="path678" />
      <path
         style="fill:none;fill-opacity:0;stroke:#840000;stroke-width:0.1524;stroke-linecap:round;stroke-linejoin:round;stroke-opacity:1"
         d="m 76.835,100.965 h 1.27 v 1.27"
         id="path680" />
    </g>
    <g
       style="fill:#840000;fill-opacity:0;stroke:#840000;stroke-width:0.254;stroke-linecap:round;stroke-linejoin:round;stroke-opacity:1"
       id="g686">
      <circle
         cx="74.93"
         cy="104.14"
         r="2.54"
         id="circle684" />
    </g>
    <g
       style="fill:#840000;fill-opacity:0;stroke:#840000;stroke-width:0.3175;stroke-linecap:round;stroke-linejoin:round;stroke-opacity:1"
       id="g732">
      <text
         x="74.93"
         y="105.41"
         textLength="3.1887"
         font-size="3.3866px"
         lengthAdjust="spacingAndGlyphs"
         text-anchor="middle"
         opacity="0"
         id="text688">Ω</text>
      <g
         class="stroked-text"
         id="g730">
        <desc
           id="desc690">Ω</desc>
        <path
           d="m 73.9624,105.0731 h 0.6047"
           id="path692" />
        <path
           d="m 74.5671,105.0731 v -0.4838"
           id="path694" />
        <path
           d="m 74.5671,104.5893 -0.2419,-0.121"
           id="path696" />
        <path
           d="m 74.3252,104.4683 -0.2419,-0.2419"
           id="path698" />
        <path
           d="m 74.0833,104.2264 -0.1209,-0.3628"
           id="path700" />
        <path
           d="m 73.9624,103.8636 v -0.6048"
           id="path702" />
        <path
           d="m 73.9624,103.2588 0.1209,-0.3628"
           id="path704" />
        <path
           d="m 74.0833,102.896 0.2419,-0.2419"
           id="path706" />
        <path
           d="m 74.3252,102.6541 0.3629,-0.121"
           id="path708" />
        <path
           d="m 74.6881,102.5331 h 0.4838"
           id="path710" />
        <path
           d="m 75.1719,102.5331 0.3628,0.121"
           id="path712" />
        <path
           d="m 75.5347,102.6541 0.2419,0.2419"
           id="path714" />
        <path
           d="m 75.7766,102.896 0.121,0.3628"
           id="path716" />
        <path
           d="m 75.8976,103.2588 v 0.6048"
           id="path718" />
        <path
           d="m 75.8976,103.8636 -0.121,0.3628"
           id="path720" />
        <path
           d="m 75.7766,104.2264 -0.2419,0.2419"
           id="path722" />
        <path
           d="m 75.5347,104.4683 -0.2419,0.121"
           id="path724" />
        <path
           d="m 75.2928,104.5893 v 0.4838"
           id="path726" />
        <path
           d="m 75.2928,105.0731 h 0.6048"
           id="path728" />
      </g>
    </g>
    <g
       style="fill:#840000;fill-opacity:0;stroke:#840000;stroke-width:0.1524;stroke-linecap:round;stroke-linejoin:round;stroke-opacity:1"
       id="g738">
      <path
         d="m 74.93,106.68 v 2.54"
         id="path734" />
      <path
         d="M 74.93,101.6 V 99.06"
         id="path736" />
    </g>
    <g
       style="fill:#006464;fill-opacity:0;stroke:#006464;stroke-width:0.1524;stroke-linecap:round;stroke-linejoin:round;stroke-opacity:1"
       id="g912">
      <text
         x="68.9841"
         y="99.695"
         textLength="9.6822004"
         font-size="1.6933px"
         lengthAdjust="spacingAndGlyphs"
         text-anchor="middle"
         opacity="0"
         id="text740">Ohmmeter</text>
      <g
         class="stroked-text"
         id="g910">
        <desc
           id="desc742">Ohmmeter</desc>
        <path
           d="m 64.7507,98.2566 h 0.2419"
           id="path744" />
        <path
           d="m 64.9926,98.2566 0.121,0.0605"
           id="path746" />
        <path
           d="m 65.1136,98.3171 0.1209,0.1209"
           id="path748" />
        <path
           d="m 65.2345,98.438 0.0605,0.2419"
           id="path750" />
        <path
           d="m 65.295,98.6799 v 0.4233"
           id="path752" />
        <path
           d="m 65.295,99.1032 -0.0605,0.2419"
           id="path754" />
        <path
           d="m 65.2345,99.3451 -0.1209,0.121"
           id="path756" />
        <path
           d="m 65.1136,99.4661 -0.121,0.0605"
           id="path758" />
        <path
           d="M 64.9926,99.5266 H 64.7507"
           id="path760" />
        <path
           d="M 64.7507,99.5266 64.6298,99.4661"
           id="path762" />
        <path
           d="m 64.6298,99.4661 -0.121,-0.121"
           id="path764" />
        <path
           d="M 64.5088,99.3451 64.4484,99.1032"
           id="path766" />
        <path
           d="M 64.4484,99.1032 V 98.6799"
           id="path768" />
        <path
           d="M 64.4484,98.6799 64.5088,98.438"
           id="path770" />
        <path
           d="m 64.5088,98.438 0.121,-0.1209"
           id="path772" />
        <path
           d="m 64.6298,98.3171 0.1209,-0.0605"
           id="path774" />
        <path
           d="m 65.8393,99.5266 v -1.27"
           id="path776" />
        <path
           d="M 66.3836,99.5266 V 98.8613"
           id="path778" />
        <path
           d="M 66.3836,98.8613 66.3231,98.7404"
           id="path780" />
        <path
           d="M 66.3231,98.7404 66.2022,98.6799"
           id="path782" />
        <path
           d="M 66.2022,98.6799 H 66.0208"
           id="path784" />
        <path
           d="m 66.0208,98.6799 -0.121,0.0605"
           id="path786" />
        <path
           d="m 65.8998,98.7404 -0.0605,0.0605"
           id="path788" />
        <path
           d="M 66.9883,99.5266 V 98.6799"
           id="path790" />
        <path
           d="m 66.9883,98.8009 0.0605,-0.0605"
           id="path792" />
        <path
           d="m 67.0488,98.7404 0.121,-0.0605"
           id="path794" />
        <path
           d="m 67.1698,98.6799 h 0.1814"
           id="path796" />
        <path
           d="m 67.3512,98.6799 0.1209,0.0605"
           id="path798" />
        <path
           d="m 67.4721,98.7404 0.0605,0.1209"
           id="path800" />
        <path
           d="m 67.5326,98.8613 v 0.6653"
           id="path802" />
        <path
           d="m 67.5326,98.8613 0.0605,-0.1209"
           id="path804" />
        <path
           d="M 67.5931,98.7404 67.714,98.6799"
           id="path806" />
        <path
           d="m 67.714,98.6799 h 0.1815"
           id="path808" />
        <path
           d="m 67.8955,98.6799 0.1209,0.0605"
           id="path810" />
        <path
           d="m 68.0164,98.7404 0.0605,0.1209"
           id="path812" />
        <path
           d="m 68.0769,98.8613 v 0.6653"
           id="path814" />
        <path
           d="M 68.6816,99.5266 V 98.6799"
           id="path816" />
        <path
           d="m 68.6816,98.8009 0.0605,-0.0605"
           id="path818" />
        <path
           d="m 68.7421,98.7404 0.121,-0.0605"
           id="path820" />
        <path
           d="m 68.8631,98.6799 h 0.1814"
           id="path822" />
        <path
           d="m 69.0445,98.6799 0.1209,0.0605"
           id="path824" />
        <path
           d="m 69.1654,98.7404 0.0605,0.1209"
           id="path826" />
        <path
           d="m 69.2259,98.8613 v 0.6653"
           id="path828" />
        <path
           d="m 69.2259,98.8613 0.0605,-0.1209"
           id="path830" />
        <path
           d="m 69.2864,98.7404 0.1209,-0.0605"
           id="path832" />
        <path
           d="m 69.4073,98.6799 h 0.1815"
           id="path834" />
        <path
           d="m 69.5888,98.6799 0.1209,0.0605"
           id="path836" />
        <path
           d="m 69.7097,98.7404 0.0605,0.1209"
           id="path838" />
        <path
           d="m 69.7702,98.8613 v 0.6653"
           id="path840" />
        <path
           d="m 70.8587,99.4661 -0.1209,0.0605"
           id="path842" />
        <path
           d="M 70.7378,99.5266 H 70.4959"
           id="path844" />
        <path
           d="m 70.4959,99.5266 -0.121,-0.0605"
           id="path846" />
        <path
           d="m 70.3749,99.4661 -0.0604,-0.121"
           id="path848" />
        <path
           d="M 70.3145,99.3451 V 98.8613"
           id="path850" />
        <path
           d="m 70.3145,98.8613 0.0604,-0.1209"
           id="path852" />
        <path
           d="m 70.3749,98.7404 0.121,-0.0605"
           id="path854" />
        <path
           d="m 70.4959,98.6799 h 0.2419"
           id="path856" />
        <path
           d="m 70.7378,98.6799 0.1209,0.0605"
           id="path858" />
        <path
           d="m 70.8587,98.7404 0.0605,0.1209"
           id="path860" />
        <path
           d="m 70.9192,98.8613 v 0.121"
           id="path862" />
        <path
           d="m 70.9192,98.9823 -0.6047,0.1209"
           id="path864" />
        <path
           d="m 71.2821,98.6799 h 0.4838"
           id="path866" />
        <path
           d="m 71.4635,98.2566 v 1.0885"
           id="path868" />
        <path
           d="m 71.4635,99.3451 0.0605,0.121"
           id="path870" />
        <path
           d="m 71.524,99.4661 0.121,0.0605"
           id="path872" />
        <path
           d="m 71.645,99.5266 h 0.1209"
           id="path874" />
        <path
           d="m 72.673,99.4661 -0.1209,0.0605"
           id="path876" />
        <path
           d="M 72.5521,99.5266 H 72.3102"
           id="path878" />
        <path
           d="m 72.3102,99.5266 -0.121,-0.0605"
           id="path880" />
        <path
           d="m 72.1892,99.4661 -0.0604,-0.121"
           id="path882" />
        <path
           d="M 72.1288,99.3451 V 98.8613"
           id="path884" />
        <path
           d="m 72.1288,98.8613 0.0604,-0.1209"
           id="path886" />
        <path
           d="m 72.1892,98.7404 0.121,-0.0605"
           id="path888" />
        <path
           d="m 72.3102,98.6799 h 0.2419"
           id="path890" />
        <path
           d="m 72.5521,98.6799 0.1209,0.0605"
           id="path892" />
        <path
           d="m 72.673,98.7404 0.0605,0.1209"
           id="path894" />
        <path
           d="m 72.7335,98.8613 v 0.121"
           id="path896" />
        <path
           d="m 72.7335,98.9823 -0.6047,0.1209"
           id="path898" />
        <path
           d="M 73.2778,99.5266 V 98.6799"
           id="path900" />
        <path
           d="m 73.2778,98.9218 0.0605,-0.1209"
           id="path902" />
        <path
           d="m 73.3383,98.8009 0.0605,-0.0605"
           id="path904" />
        <path
           d="m 73.3988,98.7404 0.1209,-0.0605"
           id="path906" />
        <path
           d="m 73.5197,98.6799 h 0.121"
           id="path908" />
      </g>
    </g>
    <g
       style="fill:#840000;fill-opacity:0;stroke:#840000;stroke-width:0.254;stroke-linecap:round;stroke-linejoin:round;stroke-opacity:1"
       id="g922">
      <rect
         x="88.264999"
         y="93.598999"
         width="5.0799999"
         height="2.0320001"
         rx="0.000000"
         id="rect920" />
    </g>
    <g
       style="fill:#840000;fill-opacity:0;stroke:#840000;stroke-width:0.1524;stroke-linecap:round;stroke-linejoin:round;stroke-opacity:1"
       id="g928">
      <path
         d="m 88.265,94.615 h -1.27"
         id="path924" />
      <path
         d="m 93.345,94.615 h 1.27"
         id="path926" />
    </g>
    <g
       style="fill:#006464;fill-opacity:0;stroke:#006464;stroke-width:0.1524;stroke-linecap:round;stroke-linejoin:round;stroke-opacity:1"
       id="g968">
      <text
         x="90.804901"
         y="92.709999"
         textLength="2.6064999"
         font-size="1.6933px"
         lengthAdjust="spacingAndGlyphs"
         text-anchor="middle"
         opacity="0"
         id="text930">R1</text>
      <g
         class="stroked-text"
         id="g966">
        <desc
           id="desc932">R1</desc>
        <path
           d="M 90.5932,92.5416 90.1699,91.9368"
           id="path934" />
        <path
           d="m 89.8675,92.5416 v -1.27"
           id="path936" />
        <path
           d="m 89.8675,91.2716 h 0.4838"
           id="path938" />
        <path
           d="m 90.3513,91.2716 0.121,0.0605"
           id="path940" />
        <path
           d="m 90.4723,91.3321 0.0605,0.0604"
           id="path942" />
        <path
           d="m 90.5328,91.3925 0.0604,0.121"
           id="path944" />
        <path
           d="m 90.5932,91.5135 v 0.1814"
           id="path946" />
        <path
           d="m 90.5932,91.6949 -0.0604,0.121"
           id="path948" />
        <path
           d="m 90.5328,91.8159 -0.0605,0.0604"
           id="path950" />
        <path
           d="m 90.4723,91.8763 -0.121,0.0605"
           id="path952" />
        <path
           d="M 90.3513,91.9368 H 89.8675"
           id="path954" />
        <path
           d="M 91.8028,92.5416 H 91.0771"
           id="path956" />
        <path
           d="m 91.4399,92.5416 v -1.27"
           id="path958" />
        <path
           d="M 91.4399,91.2716 91.319,91.453"
           id="path960" />
        <path
           d="m 91.319,91.453 -0.121,0.121"
           id="path962" />
        <path
           d="m 91.198,91.574 -0.1209,0.0604"
           id="path964" />
      </g>
    </g>
    <g
       style="fill:#840000;fill-opacity:0;stroke:#840000;stroke-width:0.1524;stroke-linecap:round;stroke-linejoin:round;stroke-opacity:1"
       id="g976">
      <path
         style="fill:none;fill-opacity:0;stroke:#840000;stroke-width:0.1524;stroke-linecap:round;stroke-linejoin:round;stroke-opacity:1"
         d="m 103.505,103.505 h 1.016"
         id="path974" />
    </g>
    <g
       style="fill:#840000;fill-opacity:1;stroke:#840000;stroke-width:0.1524;stroke-linecap:round;stroke-linejoin:round;stroke-opacity:1"
       id="g980">
      <path
         style="fill:#840000;fill-opacity:1;fill-rule:evenodd;stroke:#840000;stroke-width:0.1524;stroke-linecap:round;stroke-linejoin:round;stroke-opacity:1"
         d="m 104.902,103.505 -1.143,-0.508 v 1.016 z"
         id="path978" />
    </g>
    <g
       style="fill:#840000;fill-opacity:0;stroke:#840000;stroke-width:0.254;stroke-linecap:round;stroke-linejoin:round;stroke-opacity:1"
       id="g984">
      <rect
         x="105.029"
         y="100.965"
         width="2.0320001"
         height="5.0799999"
         rx="0.000000"
         id="rect982" />
    </g>
    <g
       style="fill:#840000;fill-opacity:0;stroke:#840000;stroke-width:0.1524;stroke-linecap:round;stroke-linejoin:round;stroke-opacity:1"
       id="g988">
      <path
         d="m 106.045,100.965 v -1.27"
         id="path986" />
    </g>
    <g
       style="fill:#a90000;fill-opacity:0;stroke:#a90000;stroke-width:0.1524;stroke-linecap:round;stroke-linejoin:round;stroke-opacity:1"
       id="g1008">
      <g
         transform="rotate(-90,105.791,100.33)"
         id="g992">
        <text
           x="105.791"
           y="100.33"
           textLength="1.3365"
           font-size="1.6933px"
           lengthAdjust="spacingAndGlyphs"
           text-anchor="middle"
           opacity="0"
           id="text990">1</text>
      </g>
      <g
         class="stroked-text"
         id="g1006">
        <desc
           id="desc994">1</desc>
        <path
           d="m 105.5146,99.967 v 0.7257"
           id="path996" />
        <path
           d="m 105.5146,100.3299 h -1.27"
           id="path998" />
        <path
           d="m 104.2446,100.3299 0.1814,0.1209"
           id="path1000" />
        <path
           d="m 104.426,100.4508 0.121,0.121"
           id="path1002" />
        <path
           d="m 104.547,100.5718 0.0604,0.1209"
           id="path1004" />
      </g>
    </g>
    <g
       style="fill:#840000;fill-opacity:0;stroke:#840000;stroke-width:0.1524;stroke-linecap:round;stroke-linejoin:round;stroke-opacity:1"
       id="g1012">
      <path
         d="m 103.505,103.505 h -1.27"
         id="path1010" />
    </g>
    <g
       style="fill:#a90000;fill-opacity:0;stroke:#a90000;stroke-width:0.1524;stroke-linecap:round;stroke-linejoin:round;stroke-opacity:1"
       id="g1040">
      <text
         x="102.87"
         y="103.251"
         textLength="1.3365"
         font-size="1.6933px"
         lengthAdjust="spacingAndGlyphs"
         text-anchor="middle"
         opacity="0"
         id="text1014">2</text>
      <g
         class="stroked-text"
         id="g1038">
        <desc
           id="desc1016">2</desc>
        <path
           d="m 102.5072,101.8255 0.0604,-0.0604"
           id="path1018" />
        <path
           d="m 102.5676,101.7651 0.121,-0.0605"
           id="path1020" />
        <path
           d="m 102.6886,101.7046 h 0.3024"
           id="path1022" />
        <path
           d="m 102.991,101.7046 0.1209,0.0605"
           id="path1024" />
        <path
           d="m 103.1119,101.7651 0.0605,0.0604"
           id="path1026" />
        <path
           d="m 103.1724,101.8255 0.0605,0.121"
           id="path1028" />
        <path
           d="m 103.2329,101.9465 v 0.1209"
           id="path1030" />
        <path
           d="m 103.2329,102.0674 -0.0605,0.1815"
           id="path1032" />
        <path
           d="m 103.1724,102.2489 -0.7257,0.7257"
           id="path1034" />
        <path
           d="m 102.4467,102.9746 h 0.7862"
           id="path1036" />
      </g>
    </g>
    <g
       style="fill:#840000;fill-opacity:0;stroke:#840000;stroke-width:0.1524;stroke-linecap:round;stroke-linejoin:round;stroke-opacity:1"
       id="g1044">
      <path
         d="m 106.045,106.045 v 1.27"
         id="path1042" />
    </g>
    <g
       style="fill:#a90000;fill-opacity:0;stroke:#a90000;stroke-width:0.1524;stroke-linecap:round;stroke-linejoin:round;stroke-opacity:1"
       id="g1080">
      <g
         transform="rotate(-90,105.791,106.68)"
         id="g1048">
        <text
           x="105.791"
           y="106.68"
           textLength="1.3365"
           font-size="1.6933px"
           lengthAdjust="spacingAndGlyphs"
           text-anchor="middle"
           opacity="0"
           id="text1046">3</text>
      </g>
      <g
         class="stroked-text"
         id="g1078">
        <desc
           id="desc1050">3</desc>
        <path
           d="M 104.2446,107.1032 V 106.317"
           id="path1052" />
        <path
           d="m 104.2446,106.317 0.4838,0.4234"
           id="path1054" />
        <path
           d="m 104.7284,106.7404 v -0.1815"
           id="path1056" />
        <path
           d="m 104.7284,106.5589 0.0605,-0.1209"
           id="path1058" />
        <path
           d="m 104.7889,106.438 0.0604,-0.0605"
           id="path1060" />
        <path
           d="m 104.8493,106.3775 0.121,-0.0605"
           id="path1062" />
        <path
           d="m 104.9703,106.317 h 0.3024"
           id="path1064" />
        <path
           d="m 105.2727,106.317 0.1209,0.0605"
           id="path1066" />
        <path
           d="m 105.3936,106.3775 0.0605,0.0605"
           id="path1068" />
        <path
           d="m 105.4541,106.438 0.0605,0.1209"
           id="path1070" />
        <path
           d="m 105.5146,106.5589 v 0.3629"
           id="path1072" />
        <path
           d="m 105.5146,106.9218 -0.0605,0.1209"
           id="path1074" />
        <path
           d="m 105.4541,107.0427 -0.0605,0.0605"
           id="path1076" />
      </g>
    </g>
    <g
       style="fill:#006464;fill-opacity:0;stroke:#006464;stroke-width:0.1524;stroke-linecap:round;stroke-linejoin:round;stroke-opacity:1"
       id="g1150">
      <text
         x="109.5938"
         y="104.14"
         textLength="3.2716999"
         font-size="1.6933px"
         lengthAdjust="spacingAndGlyphs"
         text-anchor="middle"
         opacity="0"
         id="text1082">Pot</text>
      <g
         class="stroked-text"
         id="g1148">
        <desc
           id="desc1084">Pot</desc>
        <path
           d="m 108.3238,103.9716 v -1.27"
           id="path1086" />
        <path
           d="m 108.3238,102.7016 h 0.4838"
           id="path1088" />
        <path
           d="m 108.8076,102.7016 0.121,0.0605"
           id="path1090" />
        <path
           d="m 108.9286,102.7621 0.0605,0.0604"
           id="path1092" />
        <path
           d="m 108.9891,102.8225 0.0604,0.121"
           id="path1094" />
        <path
           d="m 109.0495,102.9435 v 0.1814"
           id="path1096" />
        <path
           d="m 109.0495,103.1249 -0.0604,0.121"
           id="path1098" />
        <path
           d="m 108.9891,103.2459 -0.0605,0.0604"
           id="path1100" />
        <path
           d="m 108.9286,103.3063 -0.121,0.0605"
           id="path1102" />
        <path
           d="m 108.8076,103.3668 h -0.4838"
           id="path1104" />
        <path
           d="m 109.7753,103.9716 -0.121,-0.0605"
           id="path1106" />
        <path
           d="m 109.6543,103.9111 -0.0605,-0.0605"
           id="path1108" />
        <path
           d="m 109.5938,103.8506 -0.0604,-0.1209"
           id="path1110" />
        <path
           d="m 109.5334,103.7297 v -0.3629"
           id="path1112" />
        <path
           d="m 109.5334,103.3668 0.0604,-0.1209"
           id="path1114" />
        <path
           d="m 109.5938,103.2459 0.0605,-0.0605"
           id="path1116" />
        <path
           d="m 109.6543,103.1854 0.121,-0.0605"
           id="path1118" />
        <path
           d="m 109.7753,103.1249 h 0.1814"
           id="path1120" />
        <path
           d="m 109.9567,103.1249 0.1209,0.0605"
           id="path1122" />
        <path
           d="m 110.0776,103.1854 0.0605,0.0605"
           id="path1124" />
        <path
           d="m 110.1381,103.2459 0.0605,0.1209"
           id="path1126" />
        <path
           d="m 110.1986,103.3668 v 0.3629"
           id="path1128" />
        <path
           d="m 110.1986,103.7297 -0.0605,0.1209"
           id="path1130" />
        <path
           d="m 110.1381,103.8506 -0.0605,0.0605"
           id="path1132" />
        <path
           d="m 110.0776,103.9111 -0.1209,0.0605"
           id="path1134" />
        <path
           d="m 109.9567,103.9716 h -0.1814"
           id="path1136" />
        <path
           d="m 110.5614,103.1249 h 0.4838"
           id="path1138" />
        <path
           d="m 110.7428,102.7016 v 1.0885"
           id="path1140" />
        <path
           d="m 110.7428,103.7901 0.0605,0.121"
           id="path1142" />
        <path
           d="m 110.8033,103.9111 0.121,0.0605"
           id="path1144" />
        <path
           d="m 110.9243,103.9716 h 0.1209"
           id="path1146" />
      </g>
    </g>
    <path
       d="M 74.93,94.615 V 99.06"
       id="path1884"
       style="fill:#009600;fill-opacity:0;stroke:#009600;stroke-width:0.1524;stroke-linecap:round;stroke-linejoin:round;stroke-opacity:1" />
    <path
       d="M 74.93,113.665 V 109.22"
       id="path1888"
       style="fill:#009600;fill-opacity:0;stroke:#009600;stroke-width:0.1524;stroke-linecap:round;stroke-linejoin:round;stroke-opacity:1" />
    <path
       d="M 74.93,94.615 H 86.995"
       id="path1892"
       style="fill:#009600;fill-opacity:0;stroke:#009600;stroke-width:0.1524;stroke-linecap:round;stroke-linejoin:round;stroke-opacity:1" />
    <path
       d="m 106.045,94.615 v 5.08"
       id="path1896"
       style="fill:#009600;fill-opacity:0;stroke:#009600;stroke-width:0.1524;stroke-linecap:round;stroke-linejoin:round;stroke-opacity:1" />
    <path
       d="m 106.045,107.315 v 2.54"
       id="path1898"
       style="fill:#009600;fill-opacity:0;stroke:#009600;stroke-width:0.1524;stroke-linecap:round;stroke-linejoin:round;stroke-opacity:1" />
    <path
       d="m 94.615,94.615 h 11.43"
       id="path1900"
       style="fill:#009600;fill-opacity:0;stroke:#009600;stroke-width:0.1524;stroke-linecap:round;stroke-linejoin:round;stroke-opacity:1" />
    <path
       d="m 102.235,103.505 h -2.54"
       id="path1902"
       style="fill:#009600;fill-opacity:0;stroke:#009600;stroke-width:0.1524;stroke-linecap:round;stroke-linejoin:round;stroke-opacity:1" />
    <path
       d="m 74.93,113.665 h 31.115"
       id="path1940"
       style="fill:#009600;fill-opacity:0;stroke:#009600;stroke-width:0.1524;stroke-linecap:round;stroke-linejoin:round;stroke-opacity:1" />
    <path
       d="m 99.695,103.505 v 6.35"
       id="path1950"
       style="fill:#009600;fill-opacity:0;stroke:#009600;stroke-width:0.1524;stroke-linecap:round;stroke-linejoin:round;stroke-opacity:1" />
    <path
       d="m 99.695,109.855 h 6.35"
       id="path1952"
       style="fill:#009600;fill-opacity:0;stroke:#009600;stroke-width:0.1524;stroke-linecap:round;stroke-linejoin:round;stroke-opacity:1" />
    <path
       d="m 106.045,109.855 v 3.81"
       id="path1954"
       style="fill:#009600;fill-opacity:0;stroke:#009600;stroke-width:0.1524;stroke-linecap:round;stroke-linejoin:round;stroke-opacity:1" />
    <circle
       cx="106.045"
       cy="109.855"
       r="0.45719999"
       id="circle1962"
       style="fill:#009600;fill-opacity:1;stroke:#009600;stroke-width:0.1524;stroke-linecap:round;stroke-linejoin:round;stroke-opacity:1" />
  </g>
  <metadata
     id="metadata2787">
    <rdf:RDF>
      <cc:Work
         rdf:about="">
        <dc:title>SVG Image created as mediciones_p3.svg date 2023/02/26 15:20:48 </dc:title>
      </cc:Work>
    </rdf:RDF>
  </metadata>
</svg>
