<?xml version="1.0" encoding="UTF-8" standalone="no"?>
<svg
   version="1.1"
   width="61.861454mm"
   height="25.490501mm"
   viewBox="0 0 61.861455 25.490501"
   id="svg2838"
   sodipodi:docname="circ2.svg"
   inkscape:export-filename="/home/xizuth/Downloads/circutios_mixto/circ2.png"
   inkscape:export-xdpi="350.03"
   inkscape:export-ydpi="350.03"
   inkscape:version="1.1.1 (3bf5ae0d25, 2021-09-20)"
   xmlns:inkscape="http://www.inkscape.org/namespaces/inkscape"
   xmlns:sodipodi="http://sodipodi.sourceforge.net/DTD/sodipodi-0.dtd"
   xmlns="http://www.w3.org/2000/svg"
   xmlns:svg="http://www.w3.org/2000/svg"
   xmlns:rdf="http://www.w3.org/1999/02/22-rdf-syntax-ns#"
   xmlns:cc="http://creativecommons.org/ns#"
   xmlns:dc="http://purl.org/dc/elements/1.1/">
  <defs
     id="defs2842" />
  <sodipodi:namedview
     id="namedview2840"
     pagecolor="#ffffff"
     bordercolor="#666666"
     borderopacity="1.0"
     inkscape:pageshadow="2"
     inkscape:pageopacity="0.0"
     inkscape:pagecheckerboard="0"
     inkscape:document-units="mm"
     showgrid="false"
     showguides="true"
     inkscape:guide-bbox="true"
     inkscape:zoom="2.7566118"
     inkscape:cx="57.135357"
     inkscape:cy="72.371452"
     inkscape:window-width="1280"
     inkscape:window-height="738"
     inkscape:window-x="0"
     inkscape:window-y="0"
     inkscape:window-maximized="1"
     inkscape:current-layer="svg2838" />
  <title
     id="title2">SVG Image created as test.svg date 2024/09/03 13:02:34 </title>
  <desc
     id="desc4">Image generated by Eeschema-SVG </desc>
  <g
     style="fill:#000000;fill-opacity:1;stroke:#000000;stroke-linecap:round;stroke-linejoin:round;stroke-opacity:1"
     id="g6"
     transform="translate(-105.69882,-72.8329)" />
  <g
     style="fill:none;stroke:#840000;stroke-width:0.3;stroke-linecap:round;stroke-linejoin:round;stroke-opacity:1"
     id="g1870"
     transform="translate(-105.69882,-72.8329)">
    <text
       x="178.0022"
       y="180.7572"
       textLength="0.89999998"
       font-size="2px"
       lengthAdjust="spacingAndGlyphs"
       text-anchor="start"
       opacity="0"
       stroke-opacity="0"
       id="text1864" />
    <g
       class="stroked-text"
       id="g1868">
      <desc
         id="desc1866" />
    </g>
  </g>
  <g
     style="fill:none;stroke:#840000;stroke-width:0.254;stroke-linecap:round;stroke-linejoin:round;stroke-opacity:1"
     id="g1904"
     transform="translate(-105.69882,-72.8329)">
    <rect
       x="160.274"
       y="86.360001"
       width="2.0320001"
       height="5.0799999"
       rx="0.000000"
       id="rect1902" />
  </g>
  <g
     style="fill:none;stroke:#840000;stroke-width:0.1524;stroke-linecap:round;stroke-linejoin:round;stroke-opacity:1"
     id="g1910"
     transform="translate(-105.69882,-72.8329)">
    <path
       d="m 161.29,91.44 v 1.27"
       id="path1906" />
    <path
       d="M 161.29,86.36 V 85.09"
       id="path1908" />
  </g>
  <g
     style="fill:none;stroke:#006464;stroke-width:0.1524;stroke-linecap:round;stroke-linejoin:round;stroke-opacity:1"
     id="g2022"
     transform="translate(-105.69882,-72.8329)">
    <text
       x="165.18089"
       y="88.264801"
       textLength="2.6826999"
       font-size="1.6933px"
       lengthAdjust="spacingAndGlyphs"
       text-anchor="middle"
       opacity="0"
       stroke-opacity="0"
       id="text1912">R5</text>
    <g
       class="stroked-text"
       id="g1968">
      <desc
         id="desc1914">R5</desc>
      <path
         d="m 164.9692,88.2093 -0.4233,-0.6047"
         id="path1916" />
      <path
         d="m 164.2435,88.2093 v -1.27"
         id="path1918" />
      <path
         d="m 164.2435,86.9393 h 0.4838"
         id="path1920" />
      <path
         d="m 164.7273,86.9393 0.121,0.0605"
         id="path1922" />
      <path
         d="m 164.8483,86.9998 0.0605,0.0605"
         id="path1924" />
      <path
         d="m 164.9088,87.0603 0.0604,0.1209"
         id="path1926" />
      <path
         d="m 164.9692,87.1812 v 0.1815"
         id="path1928" />
      <path
         d="m 164.9692,87.3627 -0.0604,0.1209"
         id="path1930" />
      <path
         d="m 164.9088,87.4836 -0.0605,0.0605"
         id="path1932" />
      <path
         d="m 164.8483,87.5441 -0.121,0.0605"
         id="path1934" />
      <path
         d="m 164.7273,87.6046 h -0.4838"
         id="path1936" />
      <path
         d="m 166.1183,86.9393 h -0.6048"
         id="path1938" />
      <path
         d="m 165.5135,86.9393 -0.0604,0.6048"
         id="path1940" />
      <path
         d="m 165.4531,87.5441 0.0604,-0.0605"
         id="path1942" />
      <path
         d="m 165.5135,87.4836 0.121,-0.0605"
         id="path1944" />
      <path
         d="m 165.6345,87.4231 h 0.3024"
         id="path1946" />
      <path
         d="m 165.9369,87.4231 0.1209,0.0605"
         id="path1948" />
      <path
         d="m 166.0578,87.4836 0.0605,0.0605"
         id="path1950" />
      <path
         d="m 166.1183,87.5441 0.0605,0.1209"
         id="path1952" />
      <path
         d="m 166.1788,87.665 v 0.3024"
         id="path1954" />
      <path
         d="m 166.1788,87.9674 -0.0605,0.121"
         id="path1956" />
      <path
         d="m 166.1183,88.0884 -0.0605,0.0605"
         id="path1958" />
      <path
         d="m 166.0578,88.1489 -0.1209,0.0604"
         id="path1960" />
      <path
         d="m 165.9369,88.2093 h -0.3024"
         id="path1962" />
      <path
         d="m 165.6345,88.2093 -0.121,-0.0604"
         id="path1964" />
      <path
         d="m 165.5135,88.1489 -0.0604,-0.0605"
         id="path1966" />
    </g>
    <text
       x="165.6647"
       y="90.804802"
       textLength="3.6503"
       font-size="1.6933px"
       lengthAdjust="spacingAndGlyphs"
       text-anchor="middle"
       opacity="0"
       stroke-opacity="0"
       id="text1970">15k</text>
    <g
       class="stroked-text"
       id="g2020">
      <desc
         id="desc1972">15k</desc>
      <path
         d="m 164.9088,90.7493 h -0.7257"
         id="path1974" />
      <path
         d="m 164.5459,90.7493 v -1.27"
         id="path1976" />
      <path
         d="m 164.5459,89.4793 -0.1209,0.1815"
         id="path1978" />
      <path
         d="m 164.425,89.6608 -0.121,0.1209"
         id="path1980" />
      <path
         d="m 164.304,89.7817 -0.1209,0.0605"
         id="path1982" />
      <path
         d="M 166.0578,89.4793 H 165.453"
         id="path1984" />
      <path
         d="m 165.453,89.4793 -0.0604,0.6048"
         id="path1986" />
      <path
         d="m 165.3926,90.0841 0.0604,-0.0605"
         id="path1988" />
      <path
         d="m 165.453,90.0236 0.121,-0.0605"
         id="path1990" />
      <path
         d="m 165.574,89.9631 h 0.3024"
         id="path1992" />
      <path
         d="m 165.8764,89.9631 0.1209,0.0605"
         id="path1994" />
      <path
         d="m 165.9973,90.0236 0.0605,0.0605"
         id="path1996" />
      <path
         d="m 166.0578,90.0841 0.0605,0.1209"
         id="path1998" />
      <path
         d="m 166.1183,90.205 v 0.3024"
         id="path2000" />
      <path
         d="m 166.1183,90.5074 -0.0605,0.121"
         id="path2002" />
      <path
         d="m 166.0578,90.6284 -0.0605,0.0605"
         id="path2004" />
      <path
         d="m 165.9973,90.6889 -0.1209,0.0604"
         id="path2006" />
      <path
         d="M 165.8764,90.7493 H 165.574"
         id="path2008" />
      <path
         d="m 165.574,90.7493 -0.121,-0.0604"
         id="path2010" />
      <path
         d="m 165.453,90.6889 -0.0604,-0.0605"
         id="path2012" />
      <path
         d="m 166.6625,90.7493 v -1.27"
         id="path2014" />
      <path
         d="m 166.7835,90.2655 0.3628,0.4838"
         id="path2016" />
      <path
         d="m 167.1463,89.9027 -0.4838,0.4838"
         id="path2018" />
    </g>
  </g>
  <g
     style="fill:none;stroke:#840000;stroke-width:0.254;stroke-linecap:round;stroke-linejoin:round;stroke-opacity:1"
     id="g2026"
     transform="translate(-105.69882,-72.8329)">
    <rect
       x="151.13"
       y="78.994003"
       width="5.0799999"
       height="2.0320001"
       rx="0.000000"
       id="rect2024" />
  </g>
  <g
     style="fill:none;stroke:#840000;stroke-width:0.1524;stroke-linecap:round;stroke-linejoin:round;stroke-opacity:1"
     id="g2032"
     transform="translate(-105.69882,-72.8329)">
    <path
       d="m 156.21,80.01 h 1.27"
       id="path2028" />
    <path
       d="m 151.13,80.01 h -1.27"
       id="path2030" />
  </g>
  <g
     style="fill:none;stroke:#006464;stroke-width:0.1524;stroke-linecap:round;stroke-linejoin:round;stroke-opacity:1"
     id="g2172"
     transform="translate(-105.69882,-72.8329)">
    <text
       x="153.67"
       y="74.294998"
       textLength="2.6826999"
       font-size="1.6933px"
       lengthAdjust="spacingAndGlyphs"
       text-anchor="middle"
       opacity="0"
       stroke-opacity="0"
       id="text2034">R4</text>
    <g
       class="stroked-text"
       id="g2066">
      <desc
         id="desc2036">R4</desc>
      <path
         d="M 153.4583,74.2395 153.035,73.6348"
         id="path2038" />
      <path
         d="m 152.7326,74.2395 v -1.27"
         id="path2040" />
      <path
         d="m 152.7326,72.9695 h 0.4838"
         id="path2042" />
      <path
         d="m 153.2164,72.9695 0.121,0.0605"
         id="path2044" />
      <path
         d="m 153.3374,73.03 0.0605,0.0605"
         id="path2046" />
      <path
         d="m 153.3979,73.0905 0.0604,0.1209"
         id="path2048" />
      <path
         d="m 153.4583,73.2114 v 0.1815"
         id="path2050" />
      <path
         d="m 153.4583,73.3929 -0.0604,0.1209"
         id="path2052" />
      <path
         d="m 153.3979,73.5138 -0.0605,0.0605"
         id="path2054" />
      <path
         d="m 153.3374,73.5743 -0.121,0.0605"
         id="path2056" />
      <path
         d="m 153.2164,73.6348 h -0.4838"
         id="path2058" />
      <path
         d="m 154.5469,73.3929 v 0.8466"
         id="path2060" />
      <path
         d="m 154.2445,72.9091 -0.3023,0.9071"
         id="path2062" />
      <path
         d="m 153.9422,73.8162 h 0.7861"
         id="path2064" />
    </g>
    <text
       x="153.67"
       y="76.834999"
       textLength="3.6503"
       font-size="1.6933px"
       lengthAdjust="spacingAndGlyphs"
       text-anchor="middle"
       opacity="0"
       stroke-opacity="0"
       id="text2068">5k8</text>
    <g
       class="stroked-text"
       id="g2170">
      <desc
         id="desc2070">5k8</desc>
      <path
         d="m 152.8536,75.5095 h -0.6048"
         id="path2072" />
      <path
         d="m 152.2488,75.5095 -0.0604,0.6048"
         id="path2074" />
      <path
         d="m 152.1884,76.1143 0.0604,-0.0605"
         id="path2076" />
      <path
         d="m 152.2488,76.0538 0.121,-0.0605"
         id="path2078" />
      <path
         d="m 152.3698,75.9933 h 0.3024"
         id="path2080" />
      <path
         d="m 152.6722,75.9933 0.1209,0.0605"
         id="path2082" />
      <path
         d="m 152.7931,76.0538 0.0605,0.0605"
         id="path2084" />
      <path
         d="m 152.8536,76.1143 0.0605,0.1209"
         id="path2086" />
      <path
         d="m 152.9141,76.2352 v 0.3024"
         id="path2088" />
      <path
         d="m 152.9141,76.5376 -0.0605,0.121"
         id="path2090" />
      <path
         d="m 152.8536,76.6586 -0.0605,0.0605"
         id="path2092" />
      <path
         d="m 152.7931,76.7191 -0.1209,0.0604"
         id="path2094" />
      <path
         d="m 152.6722,76.7795 h -0.3024"
         id="path2096" />
      <path
         d="m 152.3698,76.7795 -0.121,-0.0604"
         id="path2098" />
      <path
         d="m 152.2488,76.7191 -0.0604,-0.0605"
         id="path2100" />
      <path
         d="m 153.4583,76.7795 v -1.27"
         id="path2102" />
      <path
         d="m 153.5793,76.2957 0.3628,0.4838"
         id="path2104" />
      <path
         d="m 153.9421,75.9329 -0.4838,0.4838"
         id="path2106" />
      <path
         d="m 154.6679,76.0538 -0.121,-0.0605"
         id="path2108" />
      <path
         d="m 154.5469,75.9933 -0.0605,-0.0604"
         id="path2110" />
      <path
         d="m 154.4864,75.9329 -0.0604,-0.121"
         id="path2112" />
      <path
         d="M 154.426,75.8119 V 75.7514"
         id="path2114" />
      <path
         d="m 154.426,75.7514 0.0604,-0.1209"
         id="path2116" />
      <path
         d="M 154.4864,75.6305 154.5469,75.57"
         id="path2118" />
      <path
         d="m 154.5469,75.57 0.121,-0.0605"
         id="path2120" />
      <path
         d="m 154.6679,75.5095 h 0.2419"
         id="path2122" />
      <path
         d="m 154.9098,75.5095 0.1209,0.0605"
         id="path2124" />
      <path
         d="m 155.0307,75.57 0.0605,0.0605"
         id="path2126" />
      <path
         d="m 155.0912,75.6305 0.0605,0.1209"
         id="path2128" />
      <path
         d="m 155.1517,75.7514 v 0.0605"
         id="path2130" />
      <path
         d="m 155.1517,75.8119 -0.0605,0.121"
         id="path2132" />
      <path
         d="m 155.0912,75.9329 -0.0605,0.0604"
         id="path2134" />
      <path
         d="m 155.0307,75.9933 -0.1209,0.0605"
         id="path2136" />
      <path
         d="m 154.9098,76.0538 h -0.2419"
         id="path2138" />
      <path
         d="m 154.6679,76.0538 -0.121,0.0605"
         id="path2140" />
      <path
         d="m 154.5469,76.1143 -0.0605,0.0605"
         id="path2142" />
      <path
         d="m 154.4864,76.1748 -0.0604,0.1209"
         id="path2144" />
      <path
         d="m 154.426,76.2957 v 0.2419"
         id="path2146" />
      <path
         d="m 154.426,76.5376 0.0604,0.121"
         id="path2148" />
      <path
         d="m 154.4864,76.6586 0.0605,0.0605"
         id="path2150" />
      <path
         d="m 154.5469,76.7191 0.121,0.0604"
         id="path2152" />
      <path
         d="m 154.6679,76.7795 h 0.2419"
         id="path2154" />
      <path
         d="m 154.9098,76.7795 0.1209,-0.0604"
         id="path2156" />
      <path
         d="m 155.0307,76.7191 0.0605,-0.0605"
         id="path2158" />
      <path
         d="m 155.0912,76.6586 0.0605,-0.121"
         id="path2160" />
      <path
         d="M 155.1517,76.5376 V 76.2957"
         id="path2162" />
      <path
         d="m 155.1517,76.2957 -0.0605,-0.1209"
         id="path2164" />
      <path
         d="m 155.0912,76.1748 -0.0605,-0.0605"
         id="path2166" />
      <path
         d="m 155.0307,76.1143 -0.1209,-0.0605"
         id="path2168" />
    </g>
  </g>
  <g
     style="fill:none;stroke:#840000;stroke-width:0.254;stroke-linecap:round;stroke-linejoin:round;stroke-opacity:1"
     id="g2176"
     transform="translate(-105.69882,-72.8329)">
    <rect
       x="125.984"
       y="86.360001"
       width="2.0320001"
       height="5.0799999"
       rx="0.000000"
       id="rect2174" />
  </g>
  <g
     style="fill:none;stroke:#840000;stroke-width:0.1524;stroke-linecap:round;stroke-linejoin:round;stroke-opacity:1"
     id="g2182"
     transform="translate(-105.69882,-72.8329)">
    <path
       d="M 127,86.36 V 85.09"
       id="path2178" />
    <path
       d="m 127,91.44 v 1.27"
       id="path2180" />
  </g>
  <g
     style="fill:none;stroke:#006464;stroke-width:0.1524;stroke-linecap:round;stroke-linejoin:round;stroke-opacity:1"
     id="g2284"
     transform="translate(-105.69882,-72.8329)">
    <text
       x="130.8909"
       y="88.2649"
       textLength="2.6826999"
       font-size="1.6933px"
       lengthAdjust="spacingAndGlyphs"
       text-anchor="middle"
       opacity="0"
       stroke-opacity="0"
       id="text2184">R1</text>
    <g
       class="stroked-text"
       id="g2220">
      <desc
         id="desc2186">R1</desc>
      <path
         d="m 130.6792,88.2094 -0.4233,-0.6047"
         id="path2188" />
      <path
         d="m 129.9535,88.2094 v -1.27"
         id="path2190" />
      <path
         d="m 129.9535,86.9394 h 0.4838"
         id="path2192" />
      <path
         d="m 130.4373,86.9394 0.121,0.0605"
         id="path2194" />
      <path
         d="m 130.5583,86.9999 0.0605,0.0605"
         id="path2196" />
      <path
         d="m 130.6188,87.0604 0.0604,0.1209"
         id="path2198" />
      <path
         d="m 130.6792,87.1813 v 0.1815"
         id="path2200" />
      <path
         d="m 130.6792,87.3628 -0.0604,0.1209"
         id="path2202" />
      <path
         d="m 130.6188,87.4837 -0.0605,0.0605"
         id="path2204" />
      <path
         d="m 130.5583,87.5442 -0.121,0.0605"
         id="path2206" />
      <path
         d="m 130.4373,87.6047 h -0.4838"
         id="path2208" />
      <path
         d="m 131.8888,88.2094 h -0.7257"
         id="path2210" />
      <path
         d="m 131.5259,88.2094 v -1.27"
         id="path2212" />
      <path
         d="m 131.5259,86.9394 -0.1209,0.1815"
         id="path2214" />
      <path
         d="m 131.405,87.1209 -0.121,0.1209"
         id="path2216" />
      <path
         d="m 131.284,87.2418 -0.1209,0.0605"
         id="path2218" />
    </g>
    <text
       x="131.37469"
       y="90.804901"
       textLength="3.6503"
       font-size="1.6933px"
       lengthAdjust="spacingAndGlyphs"
       text-anchor="middle"
       opacity="0"
       stroke-opacity="0"
       id="text2222">10k</text>
    <g
       class="stroked-text"
       id="g2282">
      <desc
         id="desc2224">10k</desc>
      <path
         d="m 130.6188,90.7494 h -0.7257"
         id="path2226" />
      <path
         d="m 130.2559,90.7494 v -1.27"
         id="path2228" />
      <path
         d="m 130.2559,89.4794 -0.1209,0.1815"
         id="path2230" />
      <path
         d="m 130.135,89.6609 -0.121,0.1209"
         id="path2232" />
      <path
         d="m 130.014,89.7818 -0.1209,0.0605"
         id="path2234" />
      <path
         d="m 131.4049,89.4794 h 0.121"
         id="path2236" />
      <path
         d="m 131.5259,89.4794 0.1209,0.0605"
         id="path2238" />
      <path
         d="m 131.6468,89.5399 0.0605,0.0605"
         id="path2240" />
      <path
         d="m 131.7073,89.6004 0.0605,0.1209"
         id="path2242" />
      <path
         d="m 131.7678,89.7213 0.0605,0.2419"
         id="path2244" />
      <path
         d="m 131.8283,89.9632 v 0.3024"
         id="path2246" />
      <path
         d="m 131.8283,90.2656 -0.0605,0.2419"
         id="path2248" />
      <path
         d="m 131.7678,90.5075 -0.0605,0.121"
         id="path2250" />
      <path
         d="m 131.7073,90.6285 -0.0605,0.0605"
         id="path2252" />
      <path
         d="m 131.6468,90.689 -0.1209,0.0604"
         id="path2254" />
      <path
         d="m 131.5259,90.7494 h -0.121"
         id="path2256" />
      <path
         d="M 131.4049,90.7494 131.284,90.689"
         id="path2258" />
      <path
         d="m 131.284,90.689 -0.0605,-0.0605"
         id="path2260" />
      <path
         d="m 131.2235,90.6285 -0.0605,-0.121"
         id="path2262" />
      <path
         d="m 131.163,90.5075 -0.0604,-0.2419"
         id="path2264" />
      <path
         d="M 131.1026,90.2656 V 89.9632"
         id="path2266" />
      <path
         d="m 131.1026,89.9632 0.0604,-0.2419"
         id="path2268" />
      <path
         d="m 131.163,89.7213 0.0605,-0.1209"
         id="path2270" />
      <path
         d="m 131.2235,89.6004 0.0605,-0.0605"
         id="path2272" />
      <path
         d="m 131.284,89.5399 0.1209,-0.0605"
         id="path2274" />
      <path
         d="m 132.3725,90.7494 v -1.27"
         id="path2276" />
      <path
         d="m 132.4935,90.2656 0.3628,0.4838"
         id="path2278" />
      <path
         d="m 132.8563,89.9028 -0.4838,0.4838"
         id="path2280" />
    </g>
  </g>
  <g
     style="fill:none;stroke:#840000;stroke-width:0.254;stroke-linecap:round;stroke-linejoin:round;stroke-opacity:1"
     id="g2288"
     transform="translate(-105.69882,-72.8329)">
    <rect
       x="133.35001"
       y="78.994003"
       width="5.0799999"
       height="2.0320001"
       rx="0.000000"
       id="rect2286" />
  </g>
  <g
     style="fill:none;stroke:#840000;stroke-width:0.1524;stroke-linecap:round;stroke-linejoin:round;stroke-opacity:1"
     id="g2294"
     transform="translate(-105.69882,-72.8329)">
    <path
       d="m 133.35,80.01 h -1.27"
       id="path2290" />
    <path
       d="m 138.43,80.01 h 1.27"
       id="path2292" />
  </g>
  <g
     style="fill:none;stroke:#006464;stroke-width:0.1524;stroke-linecap:round;stroke-linejoin:round;stroke-opacity:1"
     id="g2428"
     transform="translate(-105.69882,-72.8329)">
    <text
       x="135.88989"
       y="74.294899"
       textLength="2.6826999"
       font-size="1.6933px"
       lengthAdjust="spacingAndGlyphs"
       text-anchor="middle"
       opacity="0"
       stroke-opacity="0"
       id="text2296">R2</text>
    <g
       class="stroked-text"
       id="g2342">
      <desc
         id="desc2298">R2</desc>
      <path
         d="m 135.6782,74.2394 -0.4233,-0.6047"
         id="path2300" />
      <path
         d="m 134.9525,74.2394 v -1.27"
         id="path2302" />
      <path
         d="m 134.9525,72.9694 h 0.4838"
         id="path2304" />
      <path
         d="m 135.4363,72.9694 0.121,0.0605"
         id="path2306" />
      <path
         d="m 135.5573,73.0299 0.0605,0.0605"
         id="path2308" />
      <path
         d="m 135.6178,73.0904 0.0604,0.1209"
         id="path2310" />
      <path
         d="m 135.6782,73.2113 v 0.1815"
         id="path2312" />
      <path
         d="m 135.6782,73.3928 -0.0604,0.1209"
         id="path2314" />
      <path
         d="m 135.6178,73.5137 -0.0605,0.0605"
         id="path2316" />
      <path
         d="m 135.5573,73.5742 -0.121,0.0605"
         id="path2318" />
      <path
         d="m 135.4363,73.6347 h -0.4838"
         id="path2320" />
      <path
         d="m 136.1621,73.0904 0.0604,-0.0605"
         id="path2322" />
      <path
         d="m 136.2225,73.0299 0.121,-0.0605"
         id="path2324" />
      <path
         d="m 136.3435,72.9694 h 0.3024"
         id="path2326" />
      <path
         d="m 136.6459,72.9694 0.1209,0.0605"
         id="path2328" />
      <path
         d="m 136.7668,73.0299 0.0605,0.0605"
         id="path2330" />
      <path
         d="m 136.8273,73.0904 0.0605,0.1209"
         id="path2332" />
      <path
         d="m 136.8878,73.2113 v 0.121"
         id="path2334" />
      <path
         d="m 136.8878,73.3323 -0.0605,0.1814"
         id="path2336" />
      <path
         d="m 136.8273,73.5137 -0.7257,0.7257"
         id="path2338" />
      <path
         d="m 136.1016,74.2394 h 0.7862"
         id="path2340" />
    </g>
    <text
       x="135.88989"
       y="76.8349"
       textLength="3.6503"
       font-size="1.6933px"
       lengthAdjust="spacingAndGlyphs"
       text-anchor="middle"
       opacity="0"
       stroke-opacity="0"
       id="text2344">5k6</text>
    <g
       class="stroked-text"
       id="g2426">
      <desc
         id="desc2346">5k6</desc>
      <path
         d="m 135.0735,75.5094 h -0.6048"
         id="path2348" />
      <path
         d="m 134.4687,75.5094 -0.0604,0.6048"
         id="path2350" />
      <path
         d="m 134.4083,76.1142 0.0604,-0.0605"
         id="path2352" />
      <path
         d="m 134.4687,76.0537 0.121,-0.0605"
         id="path2354" />
      <path
         d="m 134.5897,75.9932 h 0.3024"
         id="path2356" />
      <path
         d="m 134.8921,75.9932 0.1209,0.0605"
         id="path2358" />
      <path
         d="m 135.013,76.0537 0.0605,0.0605"
         id="path2360" />
      <path
         d="m 135.0735,76.1142 0.0605,0.1209"
         id="path2362" />
      <path
         d="m 135.134,76.2351 v 0.3024"
         id="path2364" />
      <path
         d="m 135.134,76.5375 -0.0605,0.121"
         id="path2366" />
      <path
         d="M 135.0735,76.6585 135.013,76.719"
         id="path2368" />
      <path
         d="m 135.013,76.719 -0.1209,0.0604"
         id="path2370" />
      <path
         d="m 134.8921,76.7794 h -0.3024"
         id="path2372" />
      <path
         d="m 134.5897,76.7794 -0.121,-0.0604"
         id="path2374" />
      <path
         d="m 134.4687,76.719 -0.0604,-0.0605"
         id="path2376" />
      <path
         d="m 135.6782,76.7794 v -1.27"
         id="path2378" />
      <path
         d="m 135.7992,76.2956 0.3628,0.4838"
         id="path2380" />
      <path
         d="m 136.162,75.9328 -0.4838,0.4838"
         id="path2382" />
      <path
         d="m 137.2506,75.5094 h -0.2419"
         id="path2384" />
      <path
         d="m 137.0087,75.5094 -0.1209,0.0605"
         id="path2386" />
      <path
         d="m 136.8878,75.5699 -0.0605,0.0605"
         id="path2388" />
      <path
         d="m 136.8273,75.6304 -0.121,0.1814"
         id="path2390" />
      <path
         d="m 136.7063,75.8118 -0.0604,0.2419"
         id="path2392" />
      <path
         d="m 136.6459,76.0537 v 0.4838"
         id="path2394" />
      <path
         d="m 136.6459,76.5375 0.0604,0.121"
         id="path2396" />
      <path
         d="m 136.7063,76.6585 0.0605,0.0605"
         id="path2398" />
      <path
         d="m 136.7668,76.719 0.121,0.0604"
         id="path2400" />
      <path
         d="m 136.8878,76.7794 h 0.2419"
         id="path2402" />
      <path
         d="m 137.1297,76.7794 0.1209,-0.0604"
         id="path2404" />
      <path
         d="m 137.2506,76.719 0.0605,-0.0605"
         id="path2406" />
      <path
         d="m 137.3111,76.6585 0.0605,-0.121"
         id="path2408" />
      <path
         d="M 137.3716,76.5375 V 76.2351"
         id="path2410" />
      <path
         d="m 137.3716,76.2351 -0.0605,-0.1209"
         id="path2412" />
      <path
         d="m 137.3111,76.1142 -0.0605,-0.0605"
         id="path2414" />
      <path
         d="m 137.2506,76.0537 -0.1209,-0.0605"
         id="path2416" />
      <path
         d="m 137.1297,75.9932 h -0.2419"
         id="path2418" />
      <path
         d="m 136.8878,75.9932 -0.121,0.0605"
         id="path2420" />
      <path
         d="m 136.7668,76.0537 -0.0605,0.0605"
         id="path2422" />
      <path
         d="m 136.7063,76.1142 -0.0604,0.1209"
         id="path2424" />
    </g>
  </g>
  <g
     style="fill:none;stroke:#840000;stroke-width:0.254;stroke-linecap:round;stroke-linejoin:round;stroke-opacity:1"
     id="g2432"
     transform="translate(-105.69882,-72.8329)">
    <rect
       x="143.76401"
       y="86.360001"
       width="2.0320001"
       height="5.0799999"
       rx="0.000000"
       id="rect2430" />
  </g>
  <g
     style="fill:none;stroke:#840000;stroke-width:0.1524;stroke-linecap:round;stroke-linejoin:round;stroke-opacity:1"
     id="g2438"
     transform="translate(-105.69882,-72.8329)">
    <path
       d="m 144.78,91.44 v 1.27"
       id="path2434" />
    <path
       d="M 144.78,86.36 V 85.09"
       id="path2436" />
  </g>
  <g
     style="fill:none;stroke:#006464;stroke-width:0.1524;stroke-linecap:round;stroke-linejoin:round;stroke-opacity:1"
     id="g2562"
     transform="translate(-105.69882,-72.8329)">
    <text
       x="148.6709"
       y="88.264801"
       textLength="2.6826999"
       font-size="1.6933px"
       lengthAdjust="spacingAndGlyphs"
       text-anchor="middle"
       opacity="0"
       stroke-opacity="0"
       id="text2440">R3</text>
    <g
       class="stroked-text"
       id="g2492">
      <desc
         id="desc2442">R3</desc>
      <path
         d="m 148.4592,88.2093 -0.4233,-0.6047"
         id="path2444" />
      <path
         d="m 147.7335,88.2093 v -1.27"
         id="path2446" />
      <path
         d="m 147.7335,86.9393 h 0.4838"
         id="path2448" />
      <path
         d="m 148.2173,86.9393 0.121,0.0605"
         id="path2450" />
      <path
         d="m 148.3383,86.9998 0.0605,0.0605"
         id="path2452" />
      <path
         d="m 148.3988,87.0603 0.0604,0.1209"
         id="path2454" />
      <path
         d="m 148.4592,87.1812 v 0.1815"
         id="path2456" />
      <path
         d="m 148.4592,87.3627 -0.0604,0.1209"
         id="path2458" />
      <path
         d="m 148.3988,87.4836 -0.0605,0.0605"
         id="path2460" />
      <path
         d="m 148.3383,87.5441 -0.121,0.0605"
         id="path2462" />
      <path
         d="m 148.2173,87.6046 h -0.4838"
         id="path2464" />
      <path
         d="m 148.8826,86.9393 h 0.7862"
         id="path2466" />
      <path
         d="m 149.6688,86.9393 -0.4234,0.4838"
         id="path2468" />
      <path
         d="m 149.2454,87.4231 h 0.1815"
         id="path2470" />
      <path
         d="m 149.4269,87.4231 0.1209,0.0605"
         id="path2472" />
      <path
         d="m 149.5478,87.4836 0.0605,0.0605"
         id="path2474" />
      <path
         d="m 149.6083,87.5441 0.0605,0.1209"
         id="path2476" />
      <path
         d="m 149.6688,87.665 v 0.3024"
         id="path2478" />
      <path
         d="m 149.6688,87.9674 -0.0605,0.121"
         id="path2480" />
      <path
         d="m 149.6083,88.0884 -0.0605,0.0605"
         id="path2482" />
      <path
         d="m 149.5478,88.1489 -0.1209,0.0604"
         id="path2484" />
      <path
         d="M 149.4269,88.2093 H 149.064"
         id="path2486" />
      <path
         d="m 149.064,88.2093 -0.1209,-0.0604"
         id="path2488" />
      <path
         d="m 148.9431,88.1489 -0.0605,-0.0605"
         id="path2490" />
    </g>
    <text
       x="149.15469"
       y="90.804802"
       textLength="3.6503"
       font-size="1.6933px"
       lengthAdjust="spacingAndGlyphs"
       text-anchor="middle"
       opacity="0"
       stroke-opacity="0"
       id="text2494">10k</text>
    <g
       class="stroked-text"
       id="g2554">
      <desc
         id="desc2496">10k</desc>
      <path
         d="m 148.3988,90.7493 h -0.7257"
         id="path2498" />
      <path
         d="m 148.0359,90.7493 v -1.27"
         id="path2500" />
      <path
         d="m 148.0359,89.4793 -0.1209,0.1815"
         id="path2502" />
      <path
         d="m 147.915,89.6608 -0.121,0.1209"
         id="path2504" />
      <path
         d="m 147.794,89.7817 -0.1209,0.0605"
         id="path2506" />
      <path
         d="m 149.1849,89.4793 h 0.121"
         id="path2508" />
      <path
         d="m 149.3059,89.4793 0.1209,0.0605"
         id="path2510" />
      <path
         d="m 149.4268,89.5398 0.0605,0.0605"
         id="path2512" />
      <path
         d="m 149.4873,89.6003 0.0605,0.1209"
         id="path2514" />
      <path
         d="m 149.5478,89.7212 0.0605,0.2419"
         id="path2516" />
      <path
         d="m 149.6083,89.9631 v 0.3024"
         id="path2518" />
      <path
         d="m 149.6083,90.2655 -0.0605,0.2419"
         id="path2520" />
      <path
         d="m 149.5478,90.5074 -0.0605,0.121"
         id="path2522" />
      <path
         d="m 149.4873,90.6284 -0.0605,0.0605"
         id="path2524" />
      <path
         d="m 149.4268,90.6889 -0.1209,0.0604"
         id="path2526" />
      <path
         d="m 149.3059,90.7493 h -0.121"
         id="path2528" />
      <path
         d="M 149.1849,90.7493 149.064,90.6889"
         id="path2530" />
      <path
         d="m 149.064,90.6889 -0.0605,-0.0605"
         id="path2532" />
      <path
         d="m 149.0035,90.6284 -0.0605,-0.121"
         id="path2534" />
      <path
         d="m 148.943,90.5074 -0.0604,-0.2419"
         id="path2536" />
      <path
         d="M 148.8826,90.2655 V 89.9631"
         id="path2538" />
      <path
         d="m 148.8826,89.9631 0.0604,-0.2419"
         id="path2540" />
      <path
         d="m 148.943,89.7212 0.0605,-0.1209"
         id="path2542" />
      <path
         d="m 149.0035,89.6003 0.0605,-0.0605"
         id="path2544" />
      <path
         d="m 149.064,89.5398 0.1209,-0.0605"
         id="path2546" />
      <path
         d="m 150.1525,90.7493 v -1.27"
         id="path2548" />
      <path
         d="m 150.2735,90.2655 0.3628,0.4838"
         id="path2550" />
      <path
         d="m 150.6363,89.9027 -0.4838,0.4838"
         id="path2552" />
    </g>
    <path
       style="fill:none;stroke:#840000;stroke-width:0.1524;stroke-linecap:round;stroke-linejoin:round;stroke-opacity:1"
       d="m 113.665,92.075 1.27,-1.27"
       id="path2556" />
    <path
       style="fill:none;stroke:#840000;stroke-width:0.1524;stroke-linecap:round;stroke-linejoin:round;stroke-opacity:1"
       d="m 118.745,86.995 1.27,-1.27"
       id="path2558" />
    <path
       style="fill:none;stroke:#840000;stroke-width:0.1524;stroke-linecap:round;stroke-linejoin:round;stroke-opacity:1"
       d="m 118.745,85.725 h 1.27 v 1.27"
       id="path2560" />
  </g>
  <g
     style="fill:none;stroke:#840000;stroke-width:0.254;stroke-linecap:round;stroke-linejoin:round;stroke-opacity:1"
     id="g2566"
     transform="translate(-105.69882,-72.8329)">
    <circle
       cx="116.84"
       cy="88.900002"
       r="2.54"
       id="circle2564" />
  </g>
  <g
     style="fill:none;stroke:#840000;stroke-width:0.3175;stroke-linecap:round;stroke-linejoin:round;stroke-opacity:1"
     id="g2612"
     transform="translate(-105.69882,-72.8329)">
    <text
       x="116.84"
       y="90.170097"
       textLength="3.3475001"
       font-size="3.3866px"
       lengthAdjust="spacingAndGlyphs"
       text-anchor="middle"
       opacity="0"
       stroke-opacity="0"
       id="text2568">Ω</text>
    <g
       class="stroked-text"
       id="g2610">
      <desc
         id="desc2570">Ω</desc>
      <path
         d="m 115.8724,90.0585 h 0.6047"
         id="path2572" />
      <path
         d="M 116.4771,90.0585 V 89.5747"
         id="path2574" />
      <path
         d="m 116.4771,89.5747 -0.2419,-0.121"
         id="path2576" />
      <path
         d="m 116.2352,89.4537 -0.2419,-0.2419"
         id="path2578" />
      <path
         d="M 115.9933,89.2118 115.8724,88.849"
         id="path2580" />
      <path
         d="M 115.8724,88.849 V 88.2442"
         id="path2582" />
      <path
         d="m 115.8724,88.2442 0.1209,-0.3628"
         id="path2584" />
      <path
         d="m 115.9933,87.8814 0.2419,-0.2419"
         id="path2586" />
      <path
         d="m 116.2352,87.6395 0.3629,-0.121"
         id="path2588" />
      <path
         d="m 116.5981,87.5185 h 0.4838"
         id="path2590" />
      <path
         d="m 117.0819,87.5185 0.3628,0.121"
         id="path2592" />
      <path
         d="m 117.4447,87.6395 0.2419,0.2419"
         id="path2594" />
      <path
         d="m 117.6866,87.8814 0.121,0.3628"
         id="path2596" />
      <path
         d="M 117.8076,88.2442 V 88.849"
         id="path2598" />
      <path
         d="m 117.8076,88.849 -0.121,0.3628"
         id="path2600" />
      <path
         d="m 117.6866,89.2118 -0.2419,0.2419"
         id="path2602" />
      <path
         d="m 117.4447,89.4537 -0.2419,0.121"
         id="path2604" />
      <path
         d="m 117.2028,89.5747 v 0.4838"
         id="path2606" />
      <path
         d="m 117.2028,90.0585 h 0.6048"
         id="path2608" />
    </g>
  </g>
  <g
     style="fill:none;stroke:#840000;stroke-width:0.1524;stroke-linecap:round;stroke-linejoin:round;stroke-opacity:1"
     id="g2618"
     transform="translate(-105.69882,-72.8329)">
    <path
       d="m 116.84,91.44 v 2.54"
       id="path2614" />
    <path
       d="M 116.84,86.36 V 83.82"
       id="path2616" />
  </g>
  <g
     style="fill:none;stroke:#006464;stroke-width:0.1524;stroke-linecap:round;stroke-linejoin:round;stroke-opacity:1"
     id="g2792"
     transform="translate(-105.69882,-72.8329)">
    <text
       x="110.5528"
       y="85.724998"
       textLength="9.7584"
       font-size="1.6933px"
       lengthAdjust="spacingAndGlyphs"
       text-anchor="middle"
       opacity="0"
       stroke-opacity="0"
       id="text2620">Ohmmeter</text>
    <g
       class="stroked-text"
       id="g2790">
      <desc
         id="desc2622">Ohmmeter</desc>
      <path
         d="m 106.3194,84.3995 h 0.2419"
         id="path2624" />
      <path
         d="m 106.5613,84.3995 0.121,0.0605"
         id="path2626" />
      <path
         d="m 106.6823,84.46 0.1209,0.121"
         id="path2628" />
      <path
         d="m 106.8032,84.581 0.0605,0.2419"
         id="path2630" />
      <path
         d="m 106.8637,84.8229 v 0.4233"
         id="path2632" />
      <path
         d="m 106.8637,85.2462 -0.0605,0.2419"
         id="path2634" />
      <path
         d="m 106.8032,85.4881 -0.1209,0.121"
         id="path2636" />
      <path
         d="m 106.6823,85.6091 -0.121,0.0604"
         id="path2638" />
      <path
         d="m 106.5613,85.6695 h -0.2419"
         id="path2640" />
      <path
         d="m 106.3194,85.6695 -0.1209,-0.0604"
         id="path2642" />
      <path
         d="m 106.1985,85.6091 -0.121,-0.121"
         id="path2644" />
      <path
         d="m 106.0775,85.4881 -0.0604,-0.2419"
         id="path2646" />
      <path
         d="M 106.0171,85.2462 V 84.8229"
         id="path2648" />
      <path
         d="m 106.0171,84.8229 0.0604,-0.2419"
         id="path2650" />
      <path
         d="m 106.0775,84.581 0.121,-0.121"
         id="path2652" />
      <path
         d="m 106.1985,84.46 0.1209,-0.0605"
         id="path2654" />
      <path
         d="m 107.408,85.6695 v -1.27"
         id="path2656" />
      <path
         d="M 107.9523,85.6695 V 85.0043"
         id="path2658" />
      <path
         d="m 107.9523,85.0043 -0.0605,-0.121"
         id="path2660" />
      <path
         d="m 107.8918,84.8833 -0.1209,-0.0604"
         id="path2662" />
      <path
         d="m 107.7709,84.8229 h -0.1814"
         id="path2664" />
      <path
         d="m 107.5895,84.8229 -0.121,0.0604"
         id="path2666" />
      <path
         d="m 107.4685,84.8833 -0.0605,0.0605"
         id="path2668" />
      <path
         d="M 108.557,85.6695 V 84.8229"
         id="path2670" />
      <path
         d="m 108.557,84.9438 0.0605,-0.0605"
         id="path2672" />
      <path
         d="m 108.6175,84.8833 0.121,-0.0604"
         id="path2674" />
      <path
         d="m 108.7385,84.8229 h 0.1814"
         id="path2676" />
      <path
         d="m 108.9199,84.8229 0.1209,0.0604"
         id="path2678" />
      <path
         d="m 109.0408,84.8833 0.0605,0.121"
         id="path2680" />
      <path
         d="m 109.1013,85.0043 v 0.6652"
         id="path2682" />
      <path
         d="m 109.1013,85.0043 0.0605,-0.121"
         id="path2684" />
      <path
         d="m 109.1618,84.8833 0.1209,-0.0604"
         id="path2686" />
      <path
         d="m 109.2827,84.8229 h 0.1815"
         id="path2688" />
      <path
         d="m 109.4642,84.8229 0.1209,0.0604"
         id="path2690" />
      <path
         d="m 109.5851,84.8833 0.0605,0.121"
         id="path2692" />
      <path
         d="m 109.6456,85.0043 v 0.6652"
         id="path2694" />
      <path
         d="M 110.2503,85.6695 V 84.8229"
         id="path2696" />
      <path
         d="m 110.2503,84.9438 0.0605,-0.0605"
         id="path2698" />
      <path
         d="m 110.3108,84.8833 0.121,-0.0604"
         id="path2700" />
      <path
         d="m 110.4318,84.8229 h 0.1814"
         id="path2702" />
      <path
         d="m 110.6132,84.8229 0.1209,0.0604"
         id="path2704" />
      <path
         d="m 110.7341,84.8833 0.0605,0.121"
         id="path2706" />
      <path
         d="m 110.7946,85.0043 v 0.6652"
         id="path2708" />
      <path
         d="m 110.7946,85.0043 0.0605,-0.121"
         id="path2710" />
      <path
         d="m 110.8551,84.8833 0.1209,-0.0604"
         id="path2712" />
      <path
         d="m 110.976,84.8229 h 0.1815"
         id="path2714" />
      <path
         d="m 111.1575,84.8229 0.1209,0.0604"
         id="path2716" />
      <path
         d="m 111.2784,84.8833 0.0605,0.121"
         id="path2718" />
      <path
         d="m 111.3389,85.0043 v 0.6652"
         id="path2720" />
      <path
         d="m 112.4274,85.6091 -0.1209,0.0604"
         id="path2722" />
      <path
         d="m 112.3065,85.6695 h -0.2419"
         id="path2724" />
      <path
         d="m 112.0646,85.6695 -0.121,-0.0604"
         id="path2726" />
      <path
         d="m 111.9436,85.6091 -0.0604,-0.121"
         id="path2728" />
      <path
         d="M 111.8832,85.4881 V 85.0043"
         id="path2730" />
      <path
         d="m 111.8832,85.0043 0.0604,-0.121"
         id="path2732" />
      <path
         d="m 111.9436,84.8833 0.121,-0.0604"
         id="path2734" />
      <path
         d="m 112.0646,84.8229 h 0.2419"
         id="path2736" />
      <path
         d="m 112.3065,84.8229 0.1209,0.0604"
         id="path2738" />
      <path
         d="m 112.4274,84.8833 0.0605,0.121"
         id="path2740" />
      <path
         d="m 112.4879,85.0043 v 0.1209"
         id="path2742" />
      <path
         d="m 112.4879,85.1252 -0.6047,0.121"
         id="path2744" />
      <path
         d="m 112.8508,84.8229 h 0.4838"
         id="path2746" />
      <path
         d="m 113.0322,84.3995 v 1.0886"
         id="path2748" />
      <path
         d="m 113.0322,85.4881 0.0605,0.121"
         id="path2750" />
      <path
         d="m 113.0927,85.6091 0.121,0.0604"
         id="path2752" />
      <path
         d="m 113.2137,85.6695 h 0.1209"
         id="path2754" />
      <path
         d="m 114.2417,85.6091 -0.1209,0.0604"
         id="path2756" />
      <path
         d="m 114.1208,85.6695 h -0.2419"
         id="path2758" />
      <path
         d="m 113.8789,85.6695 -0.121,-0.0604"
         id="path2760" />
      <path
         d="m 113.7579,85.6091 -0.0604,-0.121"
         id="path2762" />
      <path
         d="M 113.6975,85.4881 V 85.0043"
         id="path2764" />
      <path
         d="m 113.6975,85.0043 0.0604,-0.121"
         id="path2766" />
      <path
         d="m 113.7579,84.8833 0.121,-0.0604"
         id="path2768" />
      <path
         d="m 113.8789,84.8229 h 0.2419"
         id="path2770" />
      <path
         d="m 114.1208,84.8229 0.1209,0.0604"
         id="path2772" />
      <path
         d="m 114.2417,84.8833 0.0605,0.121"
         id="path2774" />
      <path
         d="m 114.3022,85.0043 v 0.1209"
         id="path2776" />
      <path
         d="m 114.3022,85.1252 -0.6047,0.121"
         id="path2778" />
      <path
         d="M 114.8465,85.6695 V 84.8229"
         id="path2780" />
      <path
         d="m 114.8465,85.0648 0.0605,-0.121"
         id="path2782" />
      <path
         d="m 114.907,84.9438 0.0605,-0.0605"
         id="path2784" />
      <path
         d="m 114.9675,84.8833 0.1209,-0.0604"
         id="path2786" />
      <path
         d="m 115.0884,84.8229 h 0.121"
         id="path2788" />
    </g>
  </g>
  <g
     style="fill:none;stroke:#009600;stroke-width:0.1524;stroke-linecap:round;stroke-linejoin:round;stroke-opacity:1"
     id="g2826"
     transform="translate(-105.69882,-72.8329)">
    <path
       d="M 116.84,80.01 H 127"
       id="path2794" />
    <path
       d="m 144.78,97.79 h 16.51"
       id="path2796" />
    <path
       d="M 161.29,97.79 V 92.71"
       id="path2798" />
    <path
       d="m 144.78,80.01 h 5.08"
       id="path2800" />
    <path
       d="m 144.78,92.71 v 5.08"
       id="path2802" />
    <path
       d="m 139.7,80.01 h 5.08"
       id="path2804" />
    <path
       d="M 116.84,83.82 V 80.01"
       id="path2806" />
    <path
       d="m 127,92.71 v 5.08"
       id="path2808" />
    <path
       d="m 157.48,80.01 h 3.81"
       id="path2810" />
    <path
       d="M 127,85.09 V 80.01"
       id="path2812" />
    <path
       d="M 116.84,97.79 H 127"
       id="path2814" />
    <path
       d="m 116.84,93.98 v 3.81"
       id="path2816" />
    <path
       d="m 127,97.79 h 17.78"
       id="path2818" />
    <path
       d="m 127,80.01 h 5.08"
       id="path2820" />
    <path
       d="m 144.78,80.01 v 5.08"
       id="path2822" />
    <path
       d="M 161.29,85.09 V 80.01"
       id="path2824" />
  </g>
  <g
     style="fill:#009600;fill-opacity:1;stroke:#009600;stroke-width:0.1524;stroke-linecap:round;stroke-linejoin:round;stroke-opacity:1"
     id="g2836"
     transform="translate(-105.69882,-72.8329)">
    <circle
       cx="144.78"
       cy="80.010002"
       r="0.45719999"
       id="circle2828" />
    <circle
       cx="127"
       cy="80.010002"
       r="0.45719999"
       id="circle2830" />
    <circle
       cx="127"
       cy="97.790001"
       r="0.45719999"
       id="circle2832" />
    <circle
       cx="144.78"
       cy="97.790001"
       r="0.45719999"
       id="circle2834" />
  </g>
  <metadata
     id="metadata3659">
    <rdf:RDF>
      <cc:Work
         rdf:about="">
        <dc:title>SVG Image created as test.svg date 2024/09/03 13:02:34 </dc:title>
      </cc:Work>
    </rdf:RDF>
  </metadata>
</svg>
