<?xml version="1.0" encoding="UTF-8" standalone="no"?>
<!-- Created with Inkscape (http://www.inkscape.org/) -->

<svg
   width="106.41689mm"
   height="35.542027mm"
   viewBox="0 0 402.20559 134.33207"
   version="1.1"
   id="svg5"
   inkscape:version="1.1.1 (3bf5ae0d25, 2021-09-20)"
   sodipodi:docname="conversion.svg"
   xmlns:inkscape="http://www.inkscape.org/namespaces/inkscape"
   xmlns:sodipodi="http://sodipodi.sourceforge.net/DTD/sodipodi-0.dtd"
   xmlns="http://www.w3.org/2000/svg"
   xmlns:svg="http://www.w3.org/2000/svg">
  <sodipodi:namedview
     id="namedview7"
     pagecolor="#ffffff"
     bordercolor="#666666"
     borderopacity="1.0"
     inkscape:pageshadow="2"
     inkscape:pageopacity="0.0"
     inkscape:pagecheckerboard="0"
     inkscape:document-units="mm"
     showgrid="false"
     inkscape:zoom="0.48551487"
     inkscape:cx="474.75374"
     inkscape:cy="196.6984"
     inkscape:window-width="1280"
     inkscape:window-height="744"
     inkscape:window-x="0"
     inkscape:window-y="0"
     inkscape:window-maximized="1"
     inkscape:current-layer="layer1" />
  <defs
     id="defs2">
    <rect
       x="142.6424"
       y="462.88348"
       width="174.15242"
       height="99.277962"
       id="rect1221" />
  </defs>
  <g
     inkscape:label="Layer 1"
     inkscape:groupmode="layer"
     id="layer1"
     transform="translate(-185.56536,-500.86821)">
    <g
       id="g6554"
       transform="matrix(1.5077443,0,0,1.5077443,-94.219742,-322.51929)">
      <g
         id="g6381">
        <path
           d="m 186.73723,572.47271 h 6.44531 v -22.24609 l -7.01172,1.40625 v -3.59375 l 6.97266,-1.40625 h 3.94531 v 25.83984 h 6.44531 v 3.32032 h -16.79687 z"
           id="path4721"
           style="font-size:40px;white-space:pre;fill:#008000" />
        <path
           d="m 211.91301,570.83209 h 4.12109 v 3.35937 l -3.20312,6.25 h -2.51954 l 1.60157,-6.25 z"
           id="path4723"
           style="font-size:40px;white-space:pre;fill:#008000" />
        <path
           d="m 232.65519,549.23053 q -3.04687,0 -4.58984,3.00781 -1.52344,2.98828 -1.52344,9.00391 0,5.99609 1.52344,9.0039 1.54297,2.98828 4.58984,2.98828 3.06641,0 4.58985,-2.98828 1.54297,-3.00781 1.54297,-9.0039 0,-6.01563 -1.54297,-9.00391 -1.52344,-3.00781 -4.58985,-3.00781 z m 0,-3.125 q 4.90235,0 7.48047,3.88672 2.59766,3.86718 2.59766,11.25 0,7.36328 -2.59766,11.25 -2.57812,3.86718 -7.48047,3.86718 -4.90234,0 -7.5,-3.86718 -2.57812,-3.88672 -2.57812,-11.25 0,-7.38282 2.57812,-11.25 2.59766,-3.88672 7.5,-3.88672 z"
           id="path4725"
           style="font-size:40px;white-space:pre;fill:#008000" />
        <path
           d="m 258.10442,549.23053 q -3.04688,0 -4.58985,3.00781 -1.52344,2.98828 -1.52344,9.00391 0,5.99609 1.52344,9.0039 1.54297,2.98828 4.58985,2.98828 3.0664,0 4.58985,-2.98828 1.54296,-3.00781 1.54296,-9.0039 0,-6.01563 -1.54296,-9.00391 -1.52344,-3.00781 -4.58985,-3.00781 z m 0,-3.125 q 4.90235,0 7.48046,3.88672 2.59766,3.86718 2.59766,11.25 0,7.36328 -2.59766,11.25 -2.57812,3.86718 -7.48046,3.86718 -4.90235,0 -7.50001,-3.86718 -2.57812,-3.88672 -2.57812,-11.25 0,-7.38282 2.57812,-11.25 2.59766,-3.88672 7.50001,-3.88672 z"
           id="path4727"
           style="font-size:40px;white-space:pre;fill:#008000" />
        <path
           d="m 283.55363,549.23053 q -3.04687,0 -4.58984,3.00781 -1.52344,2.98828 -1.52344,9.00391 0,5.99609 1.52344,9.0039 1.54297,2.98828 4.58984,2.98828 3.06641,0 4.58985,-2.98828 1.54296,-3.00781 1.54296,-9.0039 0,-6.01563 -1.54296,-9.00391 -1.52344,-3.00781 -4.58985,-3.00781 z m 0,-3.125 q 4.90235,0 7.48047,3.88672 2.59766,3.86718 2.59766,11.25 0,7.36328 -2.59766,11.25 -2.57812,3.86718 -7.48047,3.86718 -4.90234,0 -7.5,-3.86718 -2.57812,-3.88672 -2.57812,-11.25 0,-7.38282 2.57812,-11.25 2.59766,-3.88672 7.5,-3.88672 z"
           id="path4729"
           style="font-size:40px;white-space:pre;fill:#008000" />
      </g>
      <g
         id="g6385">
        <path
           d="m 399.8447,574.53326 h 6.44531 v -22.24609 l -7.01172,1.40625 v -3.59375 l 6.97266,-1.40625 h 3.94531 v 25.83984 h 6.44531 v 3.32032 H 399.8447 Z"
           id="path4742"
           style="font-size:40px;fill:#800080" />
        <path
           d="m 424.25876,548.69342 h 3.94531 v 12.32422 l 13.08594,-12.32422 h 5.07812 l -14.47265,13.59375 15.50781,15.56641 h -5.19531 l -14.00391,-14.04297 v 14.04297 h -3.94531 z"
           id="path4744"
           style="font-size:40px;fill:#800080" />
      </g>
      <path
         id="path4751"
         style="font-size:40px;fill:#800000;stroke-width:1.87283"
         d="m 337.71875,552.57031 v 3.55469 l 15.56836,5.54688 H 321 v 3.20312 h 32.37109 l -15.65234,5.54688 v 3.55468 l 25.03906,-9.08203 v -3.24219 z" />
      <path
         d="m 195.64348,608.07135 q -3.04688,0 -4.58985,3.00781 -1.52343,2.98828 -1.52343,9.00391 0,5.99609 1.52343,9.00391 1.54297,2.98828 4.58985,2.98828 3.0664,0 4.58984,-2.98828 1.54297,-3.00782 1.54297,-9.00391 0,-6.01563 -1.54297,-9.00391 -1.52344,-3.00781 -4.58984,-3.00781 z m 0,-3.125 q 4.90234,0 7.48047,3.88672 2.59765,3.86719 2.59765,11.25 0,7.36328 -2.59765,11.25 -2.57813,3.86719 -7.48047,3.86719 -4.90235,0 -7.5,-3.86719 -2.57813,-3.88672 -2.57813,-11.25 0,-7.38281 2.57813,-11.25 2.59765,-3.88672 7.5,-3.88672 z"
         id="path6387"
         style="font-size:40px;line-height:1.25;fill:#222b00" />
      <path
         d="m 212.6552,629.67291 h 4.12109 v 4.96094 h -4.12109 z"
         id="path6389"
         style="font-size:40px;line-height:1.25;fill:#222b00" />
      <path
         d="m 233.80754,608.07135 q -3.04687,0 -4.58984,3.00781 -1.52344,2.98828 -1.52344,9.00391 0,5.99609 1.52344,9.00391 1.54297,2.98828 4.58984,2.98828 3.06641,0 4.58984,-2.98828 1.54297,-3.00782 1.54297,-9.00391 0,-6.01563 -1.54297,-9.00391 -1.52343,-3.00781 -4.58984,-3.00781 z m 0,-3.125 q 4.90234,0 7.48047,3.88672 2.59766,3.86719 2.59766,11.25 0,7.36328 -2.59766,11.25 -2.57813,3.86719 -7.48047,3.86719 -4.90234,0 -7.5,-3.86719 -2.57812,-3.88672 -2.57812,-11.25 0,-7.38281 2.57812,-11.25 2.59766,-3.88672 7.5,-3.88672 z"
         id="path6391"
         style="font-size:40px;line-height:1.25;fill:#222b00" />
      <path
         d="m 259.25676,608.07135 q -3.04688,0 -4.58984,3.00781 -1.52344,2.98828 -1.52344,9.00391 0,5.99609 1.52344,9.00391 1.54296,2.98828 4.58984,2.98828 3.06641,0 4.58984,-2.98828 1.54297,-3.00782 1.54297,-9.00391 0,-6.01563 -1.54297,-9.00391 -1.52343,-3.00781 -4.58984,-3.00781 z m 0,-3.125 q 4.90234,0 7.48047,3.88672 2.59765,3.86719 2.59765,11.25 0,7.36328 -2.59765,11.25 -2.57813,3.86719 -7.48047,3.86719 -4.90234,0 -7.5,-3.86719 -2.57813,-3.88672 -2.57813,-11.25 0,-7.38281 2.57813,-11.25 2.59766,-3.88672 7.5,-3.88672 z"
         id="path6393"
         style="font-size:40px;line-height:1.25;fill:#222b00" />
      <path
         d="m 288.2216,618.91119 q 2.83203,0.60547 4.41407,2.51954 1.60156,1.91406 1.60156,4.72656 0,4.3164 -2.96875,6.67969 -2.96875,2.36328 -8.4375,2.36328 -1.83594,0 -3.78906,-0.3711 -1.9336,-0.35156 -4.00391,-1.07422 v -3.80859 q 1.64062,0.95703 3.59375,1.44531 1.95312,0.48828 4.08203,0.48828 3.71094,0 5.64453,-1.46484 1.95313,-1.46484 1.95313,-4.25781 0,-2.57813 -1.81641,-4.02344 -1.79687,-1.46484 -5.01953,-1.46484 h -3.39844 v -3.24219 h 3.55469 q 2.91016,0 4.45312,-1.15234 1.54297,-1.17188 1.54297,-3.35938 0,-2.24609 -1.60156,-3.4375 -1.58203,-1.21094 -4.55078,-1.21094 -1.62109,0 -3.47656,0.35157 -1.85547,0.35156 -4.08203,1.09375 v -3.51563 q 2.24609,-0.625 4.19921,-0.9375 1.97266,-0.3125 3.71094,-0.3125 4.49219,0 7.10938,2.05078 2.61718,2.03125 2.61718,5.50781 0,2.42188 -1.38671,4.10157 -1.38672,1.66015 -3.94532,2.30468 z"
         id="path6395"
         style="font-size:40px;line-height:1.25;fill:#222b00" />
      <path
         d="m 407.54001,618.91119 q 2.83203,0.60547 4.41406,2.51954 1.60156,1.91406 1.60156,4.72656 0,4.3164 -2.96875,6.67969 -2.96875,2.36328 -8.4375,2.36328 -1.83593,0 -3.78906,-0.3711 -1.93359,-0.35156 -4.00391,-1.07422 v -3.80859 q 1.64063,0.95703 3.59375,1.44531 1.95313,0.48828 4.08204,0.48828 3.71093,0 5.64453,-1.46484 1.95312,-1.46484 1.95312,-4.25781 0,-2.57813 -1.8164,-4.02344 -1.79688,-1.46484 -5.01954,-1.46484 h -3.39843 v -3.24219 h 3.55468 q 2.91016,0 4.45313,-1.15234 1.54297,-1.17188 1.54297,-3.35938 0,-2.24609 -1.60156,-3.4375 -1.58204,-1.21094 -4.55079,-1.21094 -1.62109,0 -3.47656,0.35157 -1.85547,0.35156 -4.08203,1.09375 v -3.51563 q 2.24609,-0.625 4.19922,-0.9375 1.97266,-0.3125 3.71094,-0.3125 4.49218,0 7.10937,2.05078 2.61719,2.03125 2.61719,5.50781 0,2.42188 -1.38672,4.10157 -1.38672,1.66015 -3.94531,2.30468 z"
         id="path6421"
         style="font-size:40px;line-height:1.25;fill:#800033" />
      <path
         d="m 437.55954,616.95807 q 1.34766,-2.42188 3.22266,-3.57422 1.875,-1.15234 4.41406,-1.15234 3.41797,0 5.27344,2.40234 1.85546,2.38281 1.85546,6.79688 v 13.20312 h -3.61328 v -13.08594 q 0,-3.14453 -1.11328,-4.66797 -1.11328,-1.52343 -3.39844,-1.52343 -2.79296,0 -4.41406,1.85547 -1.62109,1.85546 -1.62109,5.05859 v 12.36328 h -3.61328 v -13.08594 q 0,-3.16406 -1.11328,-4.66797 -1.11329,-1.52343 -3.4375,-1.52343 -2.75391,0 -4.375,1.875 -1.6211,1.85547 -1.6211,5.03906 v 12.36328 h -3.61328 v -21.875 h 3.61328 v 3.39844 q 1.23047,-2.01172 2.94922,-2.96875 1.71875,-0.95703 4.08203,-0.95703 2.38281,0 4.04297,1.21093 1.67969,1.21094 2.48047,3.51563 z"
         id="path6423"
         style="font-size:40px;line-height:1.25;fill:#800033" />
      <path
         id="path6374"
         style="font-size:40px;fill:#800000;stroke-width:1.87283"
         d="m 337.71875,609.37018 v 3.55469 l 15.56836,5.54688 H 321 v 3.20312 h 32.37109 l -15.65234,5.54688 v 3.55468 l 25.03906,-9.08203 v -3.24219 z" />
    </g>
  </g>
</svg>
