<?xml version="1.0" encoding="UTF-8"?>
<!-- Created with Inkscape (http://www.inkscape.org/) -->
<svg width="106.42mm" height="35.542mm" version="1.1" viewBox="0 0 402.21 134.33" xmlns="http://www.w3.org/2000/svg">
 <g transform="translate(-185.57 -500.87)">
  <g transform="matrix(1.5077 0 0 1.5077 -94.22 -322.52)">
   <g fill="#008000">
    <path d="m186.74 572.47h6.4453v-22.246l-7.0117 1.4062v-3.5938l6.9727-1.4062h3.9453v25.84h6.4453v3.3203h-16.797z" style="white-space:pre"/>
    <path d="m211.91 570.83h4.1211v3.3594l-3.2031 6.25h-2.5195l1.6016-6.25z" style="white-space:pre"/>
    <path d="m232.66 549.23q-3.0469 0-4.5898 3.0078-1.5234 2.9883-1.5234 9.0039 0 5.9961 1.5234 9.0039 1.543 2.9883 4.5898 2.9883 3.0664 0 4.5898-2.9883 1.543-3.0078 1.543-9.0039 0-6.0156-1.543-9.0039-1.5234-3.0078-4.5898-3.0078zm0-3.125q4.9024 0 7.4805 3.8867 2.5977 3.8672 2.5977 11.25 0 7.3633-2.5977 11.25-2.5781 3.8672-7.4805 3.8672-4.9023 0-7.5-3.8672-2.5781-3.8867-2.5781-11.25 0-7.3828 2.5781-11.25 2.5977-3.8867 7.5-3.8867z" style="white-space:pre"/>
    <path d="m258.1 549.23q-3.0469 0-4.5898 3.0078-1.5234 2.9883-1.5234 9.0039 0 5.9961 1.5234 9.0039 1.543 2.9883 4.5898 2.9883 3.0664 0 4.5898-2.9883 1.543-3.0078 1.543-9.0039 0-6.0156-1.543-9.0039-1.5234-3.0078-4.5898-3.0078zm0-3.125q4.9024 0 7.4805 3.8867 2.5977 3.8672 2.5977 11.25 0 7.3633-2.5977 11.25-2.5781 3.8672-7.4805 3.8672-4.9024 0-7.5-3.8672-2.5781-3.8867-2.5781-11.25 0-7.3828 2.5781-11.25 2.5977-3.8867 7.5-3.8867z" style="white-space:pre"/>
    <path d="m283.55 549.23q-3.0469 0-4.5898 3.0078-1.5234 2.9883-1.5234 9.0039 0 5.9961 1.5234 9.0039 1.543 2.9883 4.5898 2.9883 3.0664 0 4.5898-2.9883 1.543-3.0078 1.543-9.0039 0-6.0156-1.543-9.0039-1.5234-3.0078-4.5898-3.0078zm0-3.125q4.9024 0 7.4805 3.8867 2.5977 3.8672 2.5977 11.25 0 7.3633-2.5977 11.25-2.5781 3.8672-7.4805 3.8672-4.9023 0-7.5-3.8672-2.5781-3.8867-2.5781-11.25 0-7.3828 2.5781-11.25 2.5977-3.8867 7.5-3.8867z" style="white-space:pre"/>
   </g>
   <g fill="#800080">
    <path d="m399.84 574.53h6.4453v-22.246l-7.0117 1.4062v-3.5938l6.9727-1.4062h3.9453v25.84h6.4453v3.3203h-16.797z"/>
    <path d="m424.26 548.69h3.9453v12.324l13.086-12.324h5.0781l-14.473 13.594 15.508 15.566h-5.1953l-14.004-14.043v14.043h-3.9453z"/>
   </g>
   <path d="m337.72 552.57v3.5547l15.568 5.5469h-32.287v3.2031h32.371l-15.652 5.5469v3.5547l25.039-9.082v-3.2422z" fill="#800000" stroke-width="1.8728"/>
   <g fill="#222b00">
    <path d="m195.64 608.07q-3.0469 0-4.5898 3.0078-1.5234 2.9883-1.5234 9.0039 0 5.9961 1.5234 9.0039 1.543 2.9883 4.5898 2.9883 3.0664 0 4.5898-2.9883 1.543-3.0078 1.543-9.0039 0-6.0156-1.543-9.0039-1.5234-3.0078-4.5898-3.0078zm0-3.125q4.9023 0 7.4805 3.8867 2.5976 3.8672 2.5976 11.25 0 7.3633-2.5976 11.25-2.5781 3.8672-7.4805 3.8672-4.9024 0-7.5-3.8672-2.5781-3.8867-2.5781-11.25 0-7.3828 2.5781-11.25 2.5976-3.8867 7.5-3.8867z"/>
    <path d="m212.66 629.67h4.1211v4.9609h-4.1211z"/>
    <path d="m233.81 608.07q-3.0469 0-4.5898 3.0078-1.5234 2.9883-1.5234 9.0039 0 5.9961 1.5234 9.0039 1.543 2.9883 4.5898 2.9883 3.0664 0 4.5898-2.9883 1.543-3.0078 1.543-9.0039 0-6.0156-1.543-9.0039-1.5234-3.0078-4.5898-3.0078zm0-3.125q4.9023 0 7.4805 3.8867 2.5977 3.8672 2.5977 11.25 0 7.3633-2.5977 11.25-2.5781 3.8672-7.4805 3.8672t-7.5-3.8672q-2.5781-3.8867-2.5781-11.25 0-7.3828 2.5781-11.25 2.5977-3.8867 7.5-3.8867z"/>
    <path d="m259.26 608.07q-3.0469 0-4.5898 3.0078-1.5234 2.9883-1.5234 9.0039 0 5.9961 1.5234 9.0039 1.543 2.9883 4.5898 2.9883 3.0664 0 4.5898-2.9883 1.543-3.0078 1.543-9.0039 0-6.0156-1.543-9.0039-1.5234-3.0078-4.5898-3.0078zm0-3.125q4.9023 0 7.4805 3.8867 2.5976 3.8672 2.5976 11.25 0 7.3633-2.5976 11.25-2.5781 3.8672-7.4805 3.8672t-7.5-3.8672q-2.5781-3.8867-2.5781-11.25 0-7.3828 2.5781-11.25 2.5977-3.8867 7.5-3.8867z"/>
    <path d="m288.22 618.91q2.832 0.60547 4.4141 2.5195 1.6016 1.9141 1.6016 4.7266 0 4.3164-2.9688 6.6797-2.9688 2.3633-8.4375 2.3633-1.8359 0-3.7891-0.3711-1.9336-0.35156-4.0039-1.0742v-3.8086q1.6406 0.95703 3.5938 1.4453 1.9531 0.48828 4.082 0.48828 3.7109 0 5.6445-1.4648 1.9531-1.4648 1.9531-4.2578 0-2.5781-1.8164-4.0234-1.7969-1.4648-5.0195-1.4648h-3.3984v-3.2422h3.5547q2.9102 0 4.4531-1.1523 1.543-1.1719 1.543-3.3594 0-2.2461-1.6016-3.4375-1.582-1.2109-4.5508-1.2109-1.6211 0-3.4766 0.35157-1.8555 0.35156-4.082 1.0938v-3.5156q2.2461-0.625 4.1992-0.9375 1.9727-0.3125 3.7109-0.3125 4.4922 0 7.1094 2.0508 2.6172 2.0312 2.6172 5.5078 0 2.4219-1.3867 4.1016-1.3867 1.6602-3.9453 2.3047z"/>
   </g>
   <path d="m407.54 618.91q2.832 0.60547 4.4141 2.5195 1.6016 1.9141 1.6016 4.7266 0 4.3164-2.9688 6.6797-2.9688 2.3633-8.4375 2.3633-1.8359 0-3.7891-0.3711-1.9336-0.35156-4.0039-1.0742v-3.8086q1.6406 0.95703 3.5938 1.4453 1.9531 0.48828 4.082 0.48828 3.7109 0 5.6445-1.4648 1.9531-1.4648 1.9531-4.2578 0-2.5781-1.8164-4.0234-1.7969-1.4648-5.0195-1.4648h-3.3984v-3.2422h3.5547q2.9102 0 4.4531-1.1523 1.543-1.1719 1.543-3.3594 0-2.2461-1.6016-3.4375-1.582-1.2109-4.5508-1.2109-1.6211 0-3.4766 0.35157-1.8555 0.35156-4.082 1.0938v-3.5156q2.2461-0.625 4.1992-0.9375 1.9727-0.3125 3.7109-0.3125 4.4922 0 7.1094 2.0508 2.6172 2.0312 2.6172 5.5078 0 2.4219-1.3867 4.1016-1.3867 1.6602-3.9453 2.3047z" fill="#800033"/>
   <path d="m437.56 616.96q1.3477-2.4219 3.2227-3.5742t4.4141-1.1523q3.418 0 5.2734 2.4023 1.8555 2.3828 1.8555 6.7969v13.203h-3.6133v-13.086q0-3.1445-1.1133-4.668-1.1133-1.5234-3.3984-1.5234-2.793 0-4.4141 1.8555-1.6211 1.8555-1.6211 5.0586v12.363h-3.6133v-13.086q0-3.1641-1.1133-4.668-1.1133-1.5234-3.4375-1.5234-2.7539 0-4.375 1.875-1.6211 1.8555-1.6211 5.0391v12.363h-3.6133v-21.875h3.6133v3.3984q1.2305-2.0117 2.9492-2.9688t4.082-0.95703q2.3828 0 4.043 1.2109 1.6797 1.2109 2.4805 3.5156z" fill="#800033"/>
   <path d="m337.72 609.37v3.5547l15.568 5.5469h-32.287v3.2031h32.371l-15.652 5.5469v3.5547l25.039-9.082v-3.2422z" fill="#800000" stroke-width="1.8728"/>
  </g>
 </g>
</svg>
