<?xml version="1.0" encoding="UTF-8"?>
<!-- Created with Inkscape (http://www.inkscape.org/) -->
<svg width="428.37mm" height="129.16mm" version="1.1" viewBox="0 0 428.37 129.16" xmlns="http://www.w3.org/2000/svg" xmlns:xlink="http://www.w3.org/1999/xlink">
 <defs>
  <linearGradient id="linearGradient18" x1="113.91" x2="88.563" y1="112.44" y2="113.34" gradientTransform="matrix(6.0597 0 0 6.0597 -227.9 -580.96)" gradientUnits="userSpaceOnUse">
   <stop stop-color="#fff" offset="0"/>
   <stop stop-color="#fff" stop-opacity="0" offset="1"/>
  </linearGradient>
 </defs>
 <g transform="translate(-101.73 -1.8513)">
  <path x="102.86295" y="37.256725" width="426.10693" height="85.567421" d="m104.45 37.257h422.93a1.5875 1.5875 45 0 1 1.5875 1.5875v82.392a1.5875 1.5875 135 0 1-1.5875 1.5875h-422.93a1.5875 1.5875 45 0 1-1.5875-1.5875v-82.392a1.5875 1.5875 135 0 1 1.5875-1.5875z" fill="url(#linearGradient18)" fill-rule="evenodd" stroke="#000" stroke-width="2.265"/>
  <text x="243.41725" y="25.533216" fill="#2c2ca0" font-family="sans-serif" font-size="31.17px" stroke-width=".77925" style="line-height:1.25" xml:space="preserve"><tspan x="243.41725" y="25.533216" fill="#2c2ca0" stroke-width=".77925">Corriente</tspan></text>
  <g transform="matrix(4.6731 0 0 4.6731 118.77 -547.07)">
   <circle cx="73.258" cy="128.95" r="2.2392" fill="#59f" stroke="#025" stroke-width=".26458"/>
   <rect x="72.058" y="128.67" width="2.4003" height=".56254" stroke="#000" stroke-width=".19415"/>
   <path transform="scale(.26458)" d="m307.51 478.7v7.543h-22v2.0879h22v7.543l7.4356-4.293 7.4375-4.293-7.4375-4.2949z" fill="#025" stroke="#025"/>
  </g>
  <g transform="matrix(4.6731 0 0 4.6731 118.28 -494.54)">
   <circle cx="73.258" cy="128.95" r="2.2392" fill="#59f" stroke="#025" stroke-width=".26458"/>
   <rect x="72.058" y="128.67" width="2.4003" height=".56254" stroke="#000" stroke-width=".19415"/>
   <path transform="scale(.26458)" d="m307.51 478.7v7.543h-22v2.0879h22v7.543l7.4356-4.293 7.4375-4.293-7.4375-4.2949z" fill="#025" stroke="#025"/>
  </g>
  <g transform="matrix(4.6731 0 0 4.6731 127.96 -519.43)">
   <circle cx="73.258" cy="128.95" r="2.2392" fill="#59f" stroke="#025" stroke-width=".26458"/>
   <rect x="72.058" y="128.67" width="2.4003" height=".56254" stroke="#000" stroke-width=".19415"/>
   <path transform="scale(.26458)" d="m307.51 478.7v7.543h-22v2.0879h22v7.543l7.4356-4.293 7.4375-4.293-7.4375-4.2949z" fill="#025" stroke="#025"/>
  </g>
  <g transform="translate(-95.225 21.157)">
   <circle cx="383.79" cy="60.083" r="10.464" fill="#59f" stroke="#025" stroke-width="1.2364"/>
   <rect x="378.18" y="58.768" width="11.217" height="2.6288" stroke="#000" stroke-width=".90729"/>
  </g>
  <g transform="translate(-94.584 -5.3935)">
   <circle cx="383.79" cy="60.083" r="10.464" fill="#59f" stroke="#025" stroke-width="1.2364"/>
   <rect x="378.18" y="58.768" width="11.217" height="2.6288" stroke="#000" stroke-width=".90729"/>
  </g>
  <g transform="translate(-224.87 -4.052)">
   <circle cx="383.79" cy="60.083" r="10.464" fill="#59f" stroke="#025" stroke-width="1.2364"/>
   <rect x="378.18" y="58.768" width="11.217" height="2.6288" stroke="#000" stroke-width=".90729"/>
  </g>
  <g transform="translate(-225.74 46.981)">
   <circle cx="383.79" cy="60.083" r="10.464" fill="#59f" stroke="#025" stroke-width="1.2364"/>
   <rect x="378.18" y="58.768" width="11.217" height="2.6288" stroke="#000" stroke-width=".90729"/>
  </g>
  <g transform="translate(-246.15 22.676)">
   <circle cx="383.79" cy="60.083" r="10.464" fill="#59f" stroke="#025" stroke-width="1.2364"/>
   <rect x="378.18" y="58.768" width="11.217" height="2.6288" stroke="#000" stroke-width=".90729"/>
  </g>
  <g transform="translate(-262.21 45.298)">
   <circle cx="383.79" cy="60.083" r="10.464" fill="#59f" stroke="#025" stroke-width="1.2364"/>
   <rect x="378.18" y="58.768" width="11.217" height="2.6288" stroke="#000" stroke-width=".90729"/>
  </g>
  <g transform="translate(-262.61 -5.1711)">
   <circle cx="383.79" cy="60.083" r="10.464" fill="#59f" stroke="#025" stroke-width="1.2364"/>
   <rect x="378.18" y="58.768" width="11.217" height="2.6288" stroke="#000" stroke-width=".90729"/>
  </g>
  <g transform="translate(-94.84 47.707)">
   <circle cx="383.79" cy="60.083" r="10.464" fill="#59f" stroke="#025" stroke-width="1.2364"/>
   <rect x="378.18" y="58.768" width="11.217" height="2.6288" stroke="#000" stroke-width=".90729"/>
  </g>
  <g transform="translate(-156.19 -3.1282)">
   <circle cx="383.79" cy="60.083" r="10.464" fill="#59f" stroke="#025" stroke-width="1.2364"/>
   <rect x="378.18" y="58.768" width="11.217" height="2.6288" stroke="#000" stroke-width=".90729"/>
  </g>
  <g transform="translate(-157.06 47.904)">
   <circle cx="383.79" cy="60.083" r="10.464" fill="#59f" stroke="#025" stroke-width="1.2364"/>
   <rect x="378.18" y="58.768" width="11.217" height="2.6288" stroke="#000" stroke-width=".90729"/>
  </g>
  <g transform="translate(-180.12 23.6)">
   <circle cx="383.79" cy="60.083" r="10.464" fill="#59f" stroke="#025" stroke-width="1.2364"/>
   <rect x="378.18" y="58.768" width="11.217" height="2.6288" stroke="#000" stroke-width=".90729"/>
  </g>
  <g transform="translate(-193.53 46.222)">
   <circle cx="383.79" cy="60.083" r="10.464" fill="#59f" stroke="#025" stroke-width="1.2364"/>
   <rect x="378.18" y="58.768" width="11.217" height="2.6288" stroke="#000" stroke-width=".90729"/>
  </g>
  <g transform="translate(-193.93 -4.2472)">
   <circle cx="383.79" cy="60.083" r="10.464" fill="#59f" stroke="#025" stroke-width="1.2364"/>
   <rect x="378.18" y="58.768" width="11.217" height="2.6288" stroke="#000" stroke-width=".90729"/>
  </g>
  <g transform="translate(-27.672 -3.487)">
   <circle cx="383.79" cy="60.083" r="10.464" fill="#59f" stroke="#025" stroke-width="1.2364"/>
   <rect x="378.18" y="58.768" width="11.217" height="2.6288" stroke="#000" stroke-width=".90729"/>
  </g>
  <g transform="translate(-28.544 47.546)">
   <circle cx="383.79" cy="60.083" r="10.464" fill="#59f" stroke="#025" stroke-width="1.2364"/>
   <rect x="378.18" y="58.768" width="11.217" height="2.6288" stroke="#000" stroke-width=".90729"/>
  </g>
  <g transform="translate(-40.477 22.471)">
   <circle cx="383.79" cy="60.083" r="10.464" fill="#59f" stroke="#025" stroke-width="1.2364"/>
   <rect x="378.18" y="58.768" width="11.217" height="2.6288" stroke="#000" stroke-width=".90729"/>
  </g>
  <g transform="translate(-65.009 45.863)">
   <circle cx="383.79" cy="60.083" r="10.464" fill="#59f" stroke="#025" stroke-width="1.2364"/>
   <rect x="378.18" y="58.768" width="11.217" height="2.6288" stroke="#000" stroke-width=".90729"/>
  </g>
  <g transform="translate(-65.413 -4.606)">
   <circle cx="383.79" cy="60.083" r="10.464" fill="#59f" stroke="#025" stroke-width="1.2364"/>
   <rect x="378.18" y="58.768" width="11.217" height="2.6288" stroke="#000" stroke-width=".90729"/>
  </g>
  <g transform="translate(41.412 -3.4088)">
   <circle cx="383.79" cy="60.083" r="10.464" fill="#59f" stroke="#025" stroke-width="1.2364"/>
   <rect x="378.18" y="58.768" width="11.217" height="2.6288" stroke="#000" stroke-width=".90729"/>
  </g>
  <g transform="translate(40.54 47.624)">
   <circle cx="383.79" cy="60.083" r="10.464" fill="#59f" stroke="#025" stroke-width="1.2364"/>
   <rect x="378.18" y="58.768" width="11.217" height="2.6288" stroke="#000" stroke-width=".90729"/>
  </g>
  <g transform="translate(49.587 23.666)">
   <circle cx="383.79" cy="60.083" r="10.464" fill="#59f" stroke="#025" stroke-width="1.2364"/>
   <rect x="378.18" y="58.768" width="11.217" height="2.6288" stroke="#000" stroke-width=".90729"/>
  </g>
  <g transform="translate(4.0752 45.941)">
   <circle cx="383.79" cy="60.083" r="10.464" fill="#59f" stroke="#025" stroke-width="1.2364"/>
   <rect x="378.18" y="58.768" width="11.217" height="2.6288" stroke="#000" stroke-width=".90729"/>
  </g>
  <g transform="translate(3.6709 -4.5279)">
   <circle cx="383.79" cy="60.083" r="10.464" fill="#59f" stroke="#025" stroke-width="1.2364"/>
   <rect x="378.18" y="58.768" width="11.217" height="2.6288" stroke="#000" stroke-width=".90729"/>
  </g>
  <g transform="translate(-13.395 21.007)">
   <circle cx="383.79" cy="60.083" r="10.464" fill="#59f" stroke="#025" stroke-width="1.2364"/>
   <rect x="378.18" y="58.768" width="11.217" height="2.6288" stroke="#000" stroke-width=".90729"/>
   <circle cx="383.79" cy="60.083" r="10.464" fill="#59f" stroke="#025" stroke-width="1.2364"/>
   <rect x="378.18" y="58.768" width="11.217" height="2.6288" stroke="#000" stroke-width=".90729"/>
  </g>
  <g transform="translate(16.448 19.812)">
   <circle cx="383.79" cy="60.083" r="10.464" fill="#59f" stroke="#025" stroke-width="1.2364"/>
   <rect x="378.18" y="58.768" width="11.217" height="2.6288" stroke="#000" stroke-width=".90729"/>
  </g>
  <g transform="translate(-68.221 20.159)">
   <circle cx="383.79" cy="60.083" r="10.464" fill="#59f" stroke="#025" stroke-width="1.2364"/>
   <rect x="378.18" y="58.768" width="11.217" height="2.6288" stroke="#000" stroke-width=".90729"/>
  </g>
  <g transform="translate(-214.64 20.935)">
   <circle cx="383.79" cy="60.083" r="10.464" fill="#59f" stroke="#025" stroke-width="1.2364"/>
   <rect x="378.18" y="58.768" width="11.217" height="2.6288" stroke="#000" stroke-width=".90729"/>
  </g>
  <g transform="translate(-126.52 -3.5135)">
   <circle cx="383.79" cy="60.083" r="10.464" fill="#59f" stroke="#025" stroke-width="1.2364"/>
   <rect x="378.18" y="58.768" width="11.217" height="2.6288" stroke="#000" stroke-width=".90729"/>
  </g>
  <g transform="translate(-127.39 47.519)">
   <circle cx="383.79" cy="60.083" r="10.464" fill="#59f" stroke="#025" stroke-width="1.2364"/>
   <rect x="378.18" y="58.768" width="11.217" height="2.6288" stroke="#000" stroke-width=".90729"/>
  </g>
  <g transform="translate(-126.09 23.285)">
   <circle cx="383.79" cy="60.083" r="10.464" fill="#59f" stroke="#025" stroke-width="1.2364"/>
   <rect x="378.18" y="58.768" width="11.217" height="2.6288" stroke="#000" stroke-width=".90729"/>
  </g>
  <g transform="translate(-153.74 20.62)">
   <circle cx="383.79" cy="60.083" r="10.464" fill="#59f" stroke="#025" stroke-width="1.2364"/>
   <rect x="378.18" y="58.768" width="11.217" height="2.6288" stroke="#000" stroke-width=".90729"/>
  </g>
  <rect x="273.95" y="34.227" width="58.09" height="95.682" fill="#ffe680" fill-opacity=".43811" stroke="#d4aa00" stroke-width="2.2144"/>
 </g>
</svg>
