<?xml version="1.0" encoding="UTF-8" standalone="no"?>
<!-- Created with Inkscape (http://www.inkscape.org/) -->

<svg
   width="130.08296mm"
   height="108.93325mm"
   viewBox="0 0 130.08296 108.93325"
   version="1.1"
   id="svg6705"
   inkscape:version="1.1.1 (3bf5ae0d25, 2021-09-20)"
   sodipodi:docname="notacion.svg"
   xmlns:inkscape="http://www.inkscape.org/namespaces/inkscape"
   xmlns:sodipodi="http://sodipodi.sourceforge.net/DTD/sodipodi-0.dtd"
   xmlns="http://www.w3.org/2000/svg"
   xmlns:svg="http://www.w3.org/2000/svg">
  <sodipodi:namedview
     id="namedview6707"
     pagecolor="#ffffff"
     bordercolor="#666666"
     borderopacity="1.0"
     inkscape:pageshadow="2"
     inkscape:pageopacity="0.0"
     inkscape:pagecheckerboard="0"
     inkscape:document-units="mm"
     showgrid="false"
     inkscape:zoom="0.46235269"
     inkscape:cx="282.25206"
     inkscape:cy="355.78899"
     inkscape:window-width="1280"
     inkscape:window-height="744"
     inkscape:window-x="0"
     inkscape:window-y="0"
     inkscape:window-maximized="1"
     inkscape:current-layer="layer1" />
  <defs
     id="defs6702" />
  <g
     inkscape:label="Layer 1"
     inkscape:groupmode="layer"
     id="layer1"
     transform="translate(-49.53337,-18.214137)">
    <g
       id="g23572"
       style="fill:#aa0044"
       transform="matrix(4.1085819,0,0,4.1085819,-153.97856,-395.24808)">
      <g
         id="g23403"
         transform="translate(1.5736994,-0.14306358)"
         style="fill:#aa0044">
        <path
           d="m 51.447824,107.80125 q 0.749306,0.1602 1.167884,0.66662 0.423745,0.50643 0.423745,1.25057 0,1.14204 -0.785479,1.76733 -0.785479,0.62528 -2.232415,0.62528 -0.485757,0 -1.002519,-0.0982 -0.511595,-0.093 -1.059364,-0.28422 v -1.00769 q 0.434081,0.25321 0.950843,0.3824 0.516763,0.12919 1.080034,0.12919 0.981849,0 1.493445,-0.38757 0.516762,-0.38757 0.516762,-1.12654 0,-0.68213 -0.480589,-1.06453 -0.475422,-0.38757 -1.32808,-0.38757 h -0.899167 v -0.85783 h 0.940508 q 0.769976,0 1.178219,-0.30489 0.408242,-0.31006 0.408242,-0.88883 0,-0.59428 -0.423745,-0.9095 -0.418578,-0.3204 -1.204057,-0.3204 -0.428913,0 -0.919838,0.093 -0.490924,0.093 -1.080034,0.28939 v -0.93018 q 0.594277,-0.16536 1.11104,-0.24804 0.52193,-0.0827 0.981849,-0.0827 1.188554,0 1.881016,0.5426 0.692462,0.53743 0.692462,1.45727 0,0.64078 -0.366901,1.0852 -0.366902,0.43925 -1.043861,0.60978 z"
           id="path23335"
           style="font-size:10.5833px;line-height:1.25;fill:#aa0044;stroke-width:0.264583" />
        <path
           d="m 59.695356,106.17345 -2.092889,2.81635 2.201409,2.97139 h -1.121375 l -1.684646,-2.27376 -1.684646,2.27376 h -1.121375 l 2.247917,-3.02823 -2.056715,-2.75951 h 1.121375 l 1.534785,2.06188 1.534785,-2.06188 z"
           id="path23337"
           style="font-size:10.5833px;line-height:1.25;fill:#aa0044;stroke-width:0.264583" />
        <path
           d="m 62.710142,111.08269 h 1.705317 v -5.88592 l -1.855178,0.37206 v -0.95084 l 1.844842,-0.37207 h 1.043861 v 6.83677 h 1.705317 v 0.8785 h -4.444159 z"
           id="path23339"
           style="font-size:10.5833px;line-height:1.25;fill:#aa0044;stroke-width:0.264583" />
        <path
           d="m 71.495107,104.93322 q -0.80615,0 -1.214392,0.79581 -0.403075,0.79065 -0.403075,2.38228 0,1.58646 0.403075,2.38227 0.408242,0.79065 1.214392,0.79065 0.811318,0 1.214392,-0.79065 0.408243,-0.79581 0.408243,-2.38227 0,-1.59163 -0.408243,-2.38228 -0.403074,-0.79581 -1.214392,-0.79581 z m 0,-0.82682 q 1.297074,0 1.979201,1.02835 0.687295,1.02319 0.687295,2.97656 0,1.94819 -0.687295,2.97655 -0.682127,1.02319 -1.979201,1.02319 -1.297074,0 -1.984369,-1.02319 -0.682126,-1.02836 -0.682126,-2.97655 0,-1.95337 0.682126,-2.97656 0.687295,-1.02835 1.984369,-1.02835 z"
           id="path23341"
           style="font-size:10.5833px;line-height:1.25;fill:#aa0044;stroke-width:0.264583" />
      </g>
      <g
         aria-label="6"
         id="text19903"
         style="font-size:10.5833px;line-height:1.25;fill:#aa0044;stroke-width:0.264583"
         transform="matrix(0.51731095,0,0,0.51731095,23.345506,50.945827)">
        <path
           d="m 105.93615,99.631669 q -0.7028,0 -1.11621,0.480591 -0.40824,0.48059 -0.40824,1.31774 0,0.83199 0.40824,1.31775 0.41341,0.48059 1.11621,0.48059 0.7028,0 1.11104,-0.48059 0.41341,-0.48576 0.41341,-1.31775 0,-0.83715 -0.41341,-1.31774 -0.40824,-0.480591 -1.11104,-0.480591 z m 2.07222,-3.271108 v 0.950844 q -0.39274,-0.186035 -0.79582,-0.28422 -0.3979,-0.09819 -0.79064,-0.09819 -1.03353,0 -1.5813,0.69763 -0.5426,0.697629 -0.62011,2.108392 0.30489,-0.449584 0.76481,-0.687295 0.45991,-0.242878 1.01285,-0.242878 1.16272,0 1.83451,0.707965 0.67696,0.702791 0.67696,1.917181 0,1.18856 -0.7028,1.90686 -0.7028,0.7183 -1.87068,0.7183 -1.33842,0 -2.04638,-1.02319 -0.70797,-1.02836 -0.70797,-2.97656 0,-1.829331 0.86816,-2.914532 0.86817,-1.090369 2.3306,-1.090369 0.39274,0 0.79065,0.07751 0.40308,0.07751 0.83716,0.232543 z"
           id="path23356"
           style="fill:#aa0044" />
      </g>
    </g>
    <g
       id="g23582"
       transform="matrix(4.1085819,0,0,4.1085819,-154.40577,-395.24808)"
       style="fill:#003380">
      <g
         id="g23397"
         style="fill:#003380">
        <path
           d="m 50.89309,126.11903 h 3.643177 v 0.8785 h -4.89891 v -0.8785 q 0.594277,-0.61495 1.617467,-1.64847 1.028358,-1.03869 1.291907,-1.33842 0.50126,-0.56327 0.69763,-0.95084 0.201537,-0.39274 0.201537,-0.76998 0,-0.61494 -0.434081,-1.00252 -0.428913,-0.38757 -1.121375,-0.38757 -0.490924,0 -1.038693,0.17053 -0.5426,0.17054 -1.162716,0.51677 v -1.0542 q 0.630451,-0.25321 1.178219,-0.3824 0.547769,-0.12919 1.00252,-0.12919 1.198889,0 1.912022,0.59944 0.713132,0.59944 0.713132,1.60196 0,0.47543 -0.180867,0.90434 -0.175699,0.42374 -0.645953,1.00252 -0.129191,0.14986 -0.821653,0.86816 -0.692462,0.71313 -1.953363,1.99987 z"
           id="path23344"
           style="font-size:10.5833px;line-height:1.25;fill:#003380;stroke-width:0.264583" />
        <path
           d="m 61.404043,121.20979 -2.092889,2.81635 2.201409,2.97139 h -1.121375 l -1.684646,-2.27376 -1.684646,2.27376 h -1.121375 l 2.247917,-3.02823 -2.056715,-2.75951 h 1.121375 l 1.534785,2.06188 1.534785,-2.06188 z"
           id="path23346"
           style="font-size:10.5833px;line-height:1.25;fill:#003380;stroke-width:0.264583" />
        <path
           d="m 64.229705,126.11903 h 1.705317 v -5.88593 l -1.855178,0.37207 v -0.95084 l 1.844843,-0.37207 h 1.043861 v 6.83677 h 1.705316 v 0.8785 h -4.444159 z"
           id="path23348"
           style="font-size:10.5833px;line-height:1.25;fill:#003380;stroke-width:0.264583" />
        <path
           d="m 73.014672,119.96956 q -0.80615,0 -1.214393,0.79581 -0.403074,0.79065 -0.403074,2.38228 0,1.58646 0.403074,2.38227 0.408243,0.79065 1.214393,0.79065 0.811317,0 1.214392,-0.79065 0.408243,-0.79581 0.408243,-2.38227 0,-1.59163 -0.408243,-2.38228 -0.403075,-0.79581 -1.214392,-0.79581 z m 0,-0.82682 q 1.297074,0 1.979201,1.02835 0.687294,1.02319 0.687294,2.97656 0,1.94819 -0.687294,2.97655 -0.682127,1.02319 -1.979201,1.02319 -1.297075,0 -1.984369,-1.02319 -0.682127,-1.02836 -0.682127,-2.97655 0,-1.95337 0.682127,-2.97656 0.687294,-1.02835 1.984369,-1.02835 z"
           id="path23350"
           style="font-size:10.5833px;line-height:1.25;fill:#003380;stroke-width:0.264583" />
      </g>
      <g
         aria-label="-3"
         id="text21491"
         style="font-size:10.5833px;line-height:1.25;fill:#003380;stroke-width:0.264583"
         transform="matrix(0.51731095,0,0,0.51731095,23.86574,55.736953)">
        <path
           d="m 101.83395,120.94499 h 2.78536 v 0.84749 h -2.78536 z"
           id="path23359"
           style="fill:#003380" />
        <path
           d="m 109.43037,120.10784 q 0.7493,0.16019 1.16788,0.66662 0.42375,0.50643 0.42375,1.25057 0,1.14204 -0.78548,1.76732 -0.78548,0.62529 -2.23242,0.62529 -0.48576,0 -1.00252,-0.0982 -0.51159,-0.093 -1.05936,-0.28422 v -1.00768 q 0.43408,0.25321 0.95084,0.3824 0.51676,0.12919 1.08004,0.12919 0.98184,0 1.49344,-0.38757 0.51676,-0.38757 0.51676,-1.12654 0,-0.68213 -0.48059,-1.06453 -0.47542,-0.38758 -1.32808,-0.38758 h -0.89916 v -0.85782 h 0.9405 q 0.76998,0 1.17822,-0.30489 0.40825,-0.31006 0.40825,-0.88883 0,-0.59428 -0.42375,-0.90951 -0.41858,-0.32039 -1.20406,-0.32039 -0.42891,0 -0.91983,0.093 -0.49093,0.093 -1.08004,0.28938 v -0.93017 q 0.59428,-0.16536 1.11104,-0.24804 0.52193,-0.0827 0.98185,-0.0827 1.18855,0 1.88102,0.5426 0.69246,0.53744 0.69246,1.45728 0,0.64078 -0.3669,1.0852 -0.3669,0.43925 -1.04386,0.60978 z"
           id="path23361"
           style="fill:#003380" />
      </g>
    </g>
  </g>
</svg>
