<?xml version="1.0" encoding="UTF-8"?>
<svg width="254.99mm" height="220.83mm" version="1.1" viewBox="0 0 254.99 220.83" xmlns="http://www.w3.org/2000/svg" xmlns:cc="http://creativecommons.org/ns#" xmlns:dc="http://purl.org/dc/elements/1.1/" xmlns:rdf="http://www.w3.org/1999/02/22-rdf-syntax-ns#">
 <metadata>
  <rdf:RDF>
   <cc:Work rdf:about="">
    <dc:format>image/svg+xml</dc:format>
    <dc:type rdf:resource="http://purl.org/dc/dcmitype/StillImage"/>
    <dc:title/>
   </cc:Work>
  </rdf:RDF>
 </metadata>
 <g transform="translate(12.89 -27.609)">
  <path d="m114.61 27.609-71.815 124.39h143.63l-8.0656-13.97zm-76.605 132.68-50.893 88.149h123.35v-88.149zm80.753 0v88.149h123.35l-50.893-88.149z" fill="#800000"/>
  <g fill="#ffe680" stroke-width="1.6764">
   <g transform="matrix(1.1805 0 0 1.1805 -21.934 -1.6048)" aria-label="V">
    <path d="m97.35 69.292h6.8431l11.46 43.318 11.492-43.318h6.8431l-14.308 48.884h-8.0218z" fill="#ffe680"/>
   </g>
   <g transform="matrix(1.1805 0 0 1.1805 -7.1767 -42.853)" aria-label="R">
    <path d="m40.558 188.34h13.621q8.0873 0 12.344 3.6344 4.2892 3.6671 4.2892 10.379 0 2.5866-0.65484 4.5512-0.65484 1.9318-1.9645 3.4707-2.5866 3.0778-7.4325 3.7653 2.6521 0.65484 4.3547 2.4557 0.91678 0.94952 1.9645 2.6848 1.0805 1.7026 2.5211 4.5839l6.6466 13.359h-7.105l-5.8281-12.344q-1.2769-2.7176-2.4229-4.3874-1.1132-1.6698-2.0955-2.4229-1.015-0.78581-2.3902-1.146-1.3424-0.36017-2.8813-0.36017h-6.3192v20.66h-6.6466zm13.883 22.788q4.7476 0 7.0723-2.1282 2.3247-2.1282 2.3247-6.4502 0-4.2892-2.4557-6.5484-1.1787-1.0478-2.9795-1.6371-1.7681-0.58936-4.2237-0.58936h-6.9741v17.353z" fill="#ffe680"/>
   </g>
   <g transform="matrix(1.1805 0 0 1.1805 -55.753 -50.057)" aria-label="I">
    <path d="m173.01 237.76h10.248v-37.752h-10.248v-5.5662h27.143v5.5662h-10.248v37.752h10.248v5.5662h-27.143z" fill="#ffe680"/>
   </g>
  </g>
 </g>
</svg>
