<?xml version="1.0" encoding="UTF-8" standalone="no"?>
<svg
   xmlns:dc="http://purl.org/dc/elements/1.1/"
   xmlns:cc="http://creativecommons.org/ns#"
   xmlns:rdf="http://www.w3.org/1999/02/22-rdf-syntax-ns#"
   xmlns:svg="http://www.w3.org/2000/svg"
   xmlns="http://www.w3.org/2000/svg"
   xmlns:sodipodi="http://sodipodi.sourceforge.net/DTD/sodipodi-0.dtd"
   xmlns:inkscape="http://www.inkscape.org/namespaces/inkscape"
   version="1.1"
   id="Capa_1"
   x="0px"
   y="0px"
   viewBox="0 0 893.99999 965.26926"
   xml:space="preserve"
   sodipodi:docname="resistor-pot_nema_2.svg"
   width="894"
   height="965.26929"
   inkscape:version="1.0.2 (e86c870879, 2021-01-15)"><metadata
   id="metadata22"><rdf:RDF><cc:Work
       rdf:about=""><dc:format>image/svg+xml</dc:format><dc:type
         rdf:resource="http://purl.org/dc/dcmitype/StillImage" /></cc:Work></rdf:RDF></metadata><defs
   id="defs37"><marker
     style="overflow:visible"
     id="TriangleOutL"
     refX="0"
     refY="0"
     orient="auto"
     inkscape:stockid="TriangleOutL"
     inkscape:isstock="true"><path
       transform="scale(0.8)"
       style="fill:#000000;fill-opacity:1;fill-rule:evenodd;stroke:#000000;stroke-width:1pt;stroke-opacity:1"
       d="M 5.77,0 -2.88,5 V -5 Z"
       id="path977" /></marker><marker
     style="overflow:visible"
     id="DotL"
     refX="0"
     refY="0"
     orient="auto"
     inkscape:stockid="DotL"
     inkscape:isstock="true"><path
       transform="matrix(0.8,0,0,0.8,5.92,0.8)"
       style="fill:#000000;fill-opacity:1;fill-rule:evenodd;stroke:#000000;stroke-width:1pt;stroke-opacity:1"
       d="m -2.5,-1 c 0,2.76 -2.24,5 -5,5 -2.76,0 -5,-2.24 -5,-5 0,-2.76 2.24,-5 5,-5 2.76,0 5,2.24 5,5 z"
       id="path896" /></marker><marker
     style="overflow:visible"
     id="Arrow2Lend"
     refX="0"
     refY="0"
     orient="auto"
     inkscape:stockid="Arrow2Lend"
     inkscape:isstock="true"><path
       transform="matrix(-1.1,0,0,-1.1,-1.1,0)"
       d="M 8.7185878,4.0337352 -2.2072895,0.01601326 8.7185884,-4.0017078 c -1.7454984,2.3720609 -1.7354408,5.6174519 -6e-7,8.035443 z"
       style="fill:#000000;fill-opacity:1;fill-rule:evenodd;stroke:#000000;stroke-width:0.625;stroke-linejoin:round;stroke-opacity:1"
       id="path856" /></marker></defs><sodipodi:namedview
   id="namedview35"
   pagecolor="#ffffff"
   bordercolor="#666666"
   borderopacity="1.0"
   inkscape:pageshadow="2"
   inkscape:pageopacity="0.0"
   inkscape:pagecheckerboard="0"
   showgrid="false"
   inkscape:zoom="0.4163658"
   inkscape:cx="343.58701"
   inkscape:cy="586.84384"
   inkscape:window-width="1920"
   inkscape:window-height="1018"
   inkscape:window-x="0"
   inkscape:window-y="0"
   inkscape:window-maximized="1"
   inkscape:current-layer="Capa_1"
   inkscape:document-rotation="0" />
<g
   id="XMLID_21_"
   transform="matrix(1.9317993,0,0,1.9317993,0,112.322)">
	<path
   id="XMLID_904_"
   d="m 350.272,323.014 c -5.974,0 -11.411,-3.556 -13.783,-9.091 l -50.422,-117.65 -40.505,116.662 c -2.08,5.989 -7.699,10.023 -14.038,10.08 -0.044,0 -0.089,0 -0.133,0 -6.286,0 -11.911,-3.921 -14.081,-9.831 L 175.331,198.826 134.533,313.06 c -2.095,5.867 -7.599,9.828 -13.827,9.952 -6.242,0.127 -11.886,-3.615 -14.213,-9.394 L 75.011,235.446 H 0 v -30 h 85.141 c 6.121,0 11.627,3.719 13.914,9.396 l 20.511,50.93 41.446,-116.048 c 2.124,-5.947 7.745,-9.927 14.06,-9.955 0.022,0 0.044,0 0.066,0 6.289,0 11.912,3.923 14.081,9.831 l 41.779,113.814 39.431,-113.565 c 2.032,-5.851 7.451,-9.852 13.64,-10.071 6.203,-0.217 11.877,3.389 14.317,9.082 l 49.683,115.927 15.254,-48.815 c 1.957,-6.262 7.756,-10.526 14.317,-10.526 h 85.141 v 30 h -74.113 l -24.076,77.043 c -1.873,5.994 -7.281,10.186 -13.553,10.506 -0.255,0.012 -0.512,0.019 -0.767,0.019 z" />
</g>
<g
   id="g4"
   transform="translate(12.547,260.19599)">
</g>
<g
   id="g6"
   transform="translate(12.547,260.19599)">
</g>
<g
   id="g8"
   transform="translate(12.547,260.19599)">
</g>
<g
   id="g10"
   transform="translate(12.547,260.19599)">
</g>
<g
   id="g12"
   transform="translate(12.547,260.19599)">
</g>
<g
   id="g14"
   transform="translate(12.547,260.19599)">
</g>
<g
   id="g16"
   transform="translate(12.547,260.19599)">
</g>
<g
   id="g18"
   transform="translate(12.547,260.19599)">
</g>
<g
   id="g20"
   transform="translate(12.547,260.19599)">
</g>
<g
   id="g22"
   transform="translate(12.547,260.19599)">
</g>
<g
   id="g24"
   transform="translate(12.547,260.19599)">
</g>
<g
   id="g26"
   transform="translate(12.547,260.19599)">
</g>
<g
   id="g28"
   transform="translate(12.547,260.19599)">
</g>
<g
   id="g30"
   transform="translate(12.547,260.19599)">
</g>
<g
   id="g32"
   transform="translate(12.547,260.19599)">
</g>
<g
   id="g987"
   transform="translate(-1070.7514,292.48657)"
   style="stroke-width:20;stroke-miterlimit:4;stroke-dasharray:none"><path
     style="fill:none;stroke:#000000;stroke-width:20;stroke-linecap:butt;stroke-linejoin:miter;stroke-miterlimit:4;stroke-dasharray:none;stroke-opacity:1;marker-end:url(#TriangleOutL)"
     d="m 1159.1004,665.71164 724.4664,-870.84098"
     id="path833"
     sodipodi:nodetypes="cc" /><path
     style="fill:none;stroke:#000000;stroke-width:20;stroke-linecap:butt;stroke-linejoin:miter;stroke-miterlimit:4;stroke-dasharray:none;stroke-opacity:1"
     d="m 1165.9154,662.78271 h -94.331"
     id="path1297" /></g></svg>
