<?xml version="1.0" encoding="UTF-8"?>
<svg width="140.49mm" height="42.685mm" version="1.1" viewBox="0 0 140.49 42.685" xmlns="http://www.w3.org/2000/svg" xmlns:cc="http://creativecommons.org/ns#" xmlns:dc="http://purl.org/dc/elements/1.1/" xmlns:rdf="http://www.w3.org/1999/02/22-rdf-syntax-ns#">
 <metadata>
  <rdf:RDF>
   <cc:Work rdf:about="">
    <dc:format>image/svg+xml</dc:format>
    <dc:type rdf:resource="http://purl.org/dc/dcmitype/StillImage"/>
    <dc:title/>
   </cc:Work>
  </rdf:RDF>
 </metadata>
 <g transform="translate(-33.657 -81.177)">
  <path d="m60.809 87.117h30.062l2.146 2.6608a25.573 25.573 25.595 0 0 19.871 9.5183l3.6481 0.0049a26.951 26.951 158.62 0 0 18.364-7.1911l3.5494-3.2921 32.661-0.56085" fill="none" stroke="#f0f" stroke-width=".704"/>
  <g transform="matrix(.96776 0 0 .96776 36.653 2.8692)">
   <circle cx="26.244" cy="95.335" r="4.1616" fill="#59f" stroke="#025" stroke-width=".49174"/>
   <rect x="24.013" y="94.812" width="4.4612" height="1.0455" stroke="#000" stroke-width=".36085"/>
   <path d="m36.974 92.771v2.2522h-6.5688v0.62341h6.5688v2.2522l2.2201-1.2818 2.2207-1.2818-2.2207-1.2824z" fill="#025" stroke="#025" stroke-width=".29858"/>
  </g>
  <g transform="matrix(.96776 0 0 .96776 58.121 7.8702)">
   <circle cx="26.244" cy="95.335" r="4.1616" fill="#59f" stroke="#025" stroke-width=".49174"/>
   <rect x="24.013" y="94.812" width="4.4612" height="1.0455" stroke="#000" stroke-width=".36085"/>
   <path d="m36.974 92.771v2.2522h-6.5688v0.62341h6.5688v2.2522l2.2201-1.2818 2.2207-1.2818-2.2207-1.2824z" fill="#025" stroke="#025" stroke-width=".29858"/>
  </g>
  <g transform="matrix(.96776 0 0 .96776 36.985 26.292)">
   <circle cx="26.244" cy="95.335" r="4.1616" fill="#59f" stroke="#025" stroke-width=".49174"/>
   <rect x="24.013" y="94.812" width="4.4612" height="1.0455" stroke="#000" stroke-width=".36085"/>
   <path d="m36.974 92.771v2.2522h-6.5688v0.62341h6.5688v2.2522l2.2201-1.2818 2.2207-1.2818-2.2207-1.2824z" fill="#025" stroke="#025" stroke-width=".29858"/>
  </g>
  <g transform="matrix(.96776 0 0 .96776 41.218 15.783)">
   <circle cx="26.244" cy="95.335" r="4.1616" fill="#59f" stroke="#025" stroke-width=".49174"/>
   <rect x="24.013" y="94.812" width="4.4612" height="1.0455" stroke="#000" stroke-width=".36085"/>
   <path d="m36.974 92.771v2.2522h-6.5688v0.62341h6.5688v2.2522l2.2201-1.2818 2.2207-1.2818-2.2207-1.2824z" fill="#025" stroke="#025" stroke-width=".29858"/>
  </g>
  <g transform="matrix(.96776 0 0 .96776 82.796 13.215)">
   <circle cx="26.244" cy="95.335" r="4.1616" fill="#59f" stroke="#025" stroke-width=".49174"/>
   <rect x="24.013" y="94.812" width="4.4612" height="1.0455" stroke="#000" stroke-width=".36085"/>
   <path d="m36.974 92.771v2.2522h-6.5688v0.62341h6.5688v2.2522l2.2201-1.2818 2.2207-1.2818-2.2207-1.2824z" fill="#025" stroke="#025" stroke-width=".29858"/>
  </g>
  <g transform="matrix(.96776 0 0 .96776 109.64 13.126)">
   <circle cx="26.244" cy="95.335" r="4.1616" fill="#59f" stroke="#025" stroke-width=".49174"/>
   <rect x="24.013" y="94.812" width="4.4612" height="1.0455" stroke="#000" stroke-width=".36085"/>
   <path d="m36.974 92.771v2.2522h-6.5688v0.62341h6.5688v2.2522l2.2201-1.2818 2.2207-1.2818-2.2207-1.2824z" fill="#025" stroke="#025" stroke-width=".29858"/>
  </g>
  <g transform="matrix(.96776 0 0 .96776 133.78 12.911)">
   <circle cx="26.244" cy="95.335" r="4.1616" fill="#59f" stroke="#025" stroke-width=".49174"/>
   <rect x="24.013" y="94.812" width="4.4612" height="1.0455" stroke="#000" stroke-width=".36085"/>
   <path d="m36.974 92.771v2.2522h-6.5688v0.62341h6.5688v2.2522l2.2201-1.2818 2.2207-1.2818-2.2207-1.2824z" fill="#025" stroke="#025" stroke-width=".29858"/>
  </g>
  <path d="m60.809 123.51h30.062l2.146-2.6608a25.573 25.573 154.41 0 1 19.871-9.5184l3.6481-5e-3a26.951 26.951 21.384 0 1 18.364 7.1911l3.5494 3.2921 32.661 0.56085" fill="none" stroke="#f0f" stroke-width=".704"/>
  <text x="95.406151" y="86.629509" fill="#005522" font-family="sans-serif" font-size="7.177px" stroke-width=".17943" style="line-height:1.25" xml:space="preserve"><tspan x="95.406151" y="86.629509" fill="#005522" stroke-width=".17943">Resistencia</tspan></text>
  <text x="139.71417" y="117.77768" fill="#162d50" font-family="sans-serif" font-size="7.177px" stroke-width=".17943" style="line-height:1.25" xml:space="preserve"><tspan x="139.71417" y="117.77768" fill="#162d50" stroke-width=".17943">Corriente</tspan></text>
  <g transform="matrix(.96776 0 0 .96776 56.943 22.019)">
   <circle cx="26.244" cy="95.335" r="4.1616" fill="#59f" stroke="#025" stroke-width=".49174"/>
   <rect x="24.013" y="94.812" width="4.4612" height="1.0455" stroke="#000" stroke-width=".36085"/>
   <path d="m36.974 92.771v2.2522h-6.5688v0.62341h6.5688v2.2522l2.2201-1.2818 2.2207-1.2818-2.2207-1.2824z" fill="#025" stroke="#025" stroke-width=".29858"/>
  </g>
  <text x="33.600681" y="107.41202" fill="#d40000" font-family="sans-serif" font-size="7.177px" stroke-width=".17943" style="line-height:1.25" xml:space="preserve"><tspan x="33.600681" y="107.41202" fill="#d40000" stroke-width=".17943">Voltaje</tspan></text>
 </g>
</svg>
