<?xml version="1.0" encoding="UTF-8"?>
<svg width="588.07mm" height="368.45mm" version="1.1" viewBox="0 0 588.07 368.45" xmlns="http://www.w3.org/2000/svg" xmlns:cc="http://creativecommons.org/ns#" xmlns:dc="http://purl.org/dc/elements/1.1/" xmlns:rdf="http://www.w3.org/1999/02/22-rdf-syntax-ns#" xmlns:xlink="http://www.w3.org/1999/xlink">
 <defs>
  <linearGradient id="linearGradient18" x1="113.91" x2="88.563" y1="112.44" y2="113.34" gradientTransform="translate(7.6649 5.1695)" gradientUnits="userSpaceOnUse">
   <stop stop-color="#fff" offset="0"/>
   <stop stop-color="#fff" stop-opacity="0" offset="1"/>
  </linearGradient>
 </defs>
 <metadata>
  <rdf:RDF>
   <cc:Work rdf:about="">
    <dc:format>image/svg+xml</dc:format>
    <dc:type rdf:resource="http://purl.org/dc/dcmitype/StillImage"/>
    <dc:title/>
   </cc:Work>
  </rdf:RDF>
 </metadata>
 <g transform="translate(440.32 205.26)">
  <g transform="matrix(6.0597 0 0 6.0597 -747.6 -825.69)">
   <path d="m62.216 112.86-10.24 8.1045a2.6696 2.6696 78.409 0 0 0.95777 4.6697l4.8055 1.3038a2.227 2.227 82.356 0 1 0.54612 4.0688l-6.5688 3.8645a1.7746 1.7746 78.071 0 0 0.69556 3.2924l29.141 3.3771" fill="none" stroke="#00f" stroke-width=".26458px"/>
   <path d="m114.95 141.49 30.506-9.774a1.2817 1.2817 85.85 0 0-0.18029-2.4848l-14.002-2.3345a1.3854 1.3854 84.795 0 1-0.24318-2.6694l15.58-5.6327a1.479 1.479 85.739 0 0-0.21165-2.841l-13.921-2.7956" fill="none" stroke="#f00" stroke-width=".33752px"/>
   <path x="62.248966" y="107.19048" width="70.318359" height="14.120776" d="m63.836 107.19h67.143a1.5875 1.5875 45 0 1 1.5875 1.5875v10.946a1.5875 1.5875 135 0 1-1.5875 1.5875h-67.143a1.5875 1.5875 45 0 1-1.5875-1.5875v-10.946a1.5875 1.5875 135 0 1 1.5875-1.5875z" fill="url(#linearGradient18)" fill-rule="evenodd" stroke="#000" stroke-width=".26458"/>
   <g transform="translate(-5.62 -17.968)">
    <circle cx="73.258" cy="128.95" r="2.2392" fill="#59f" stroke="#025" stroke-width=".26458"/>
    <rect x="72.058" y="128.67" width="2.4003" height=".56254" stroke="#000" stroke-width=".19415"/>
    <path transform="scale(.26458)" d="m307.51 478.7v7.543h-22v2.0879h22v7.543l7.4356-4.293 7.4375-4.293-7.4375-4.2949z" fill="#025" stroke="#025"/>
   </g>
   <g transform="translate(29.558 -11.497)">
    <circle cx="73.258" cy="128.95" r="2.2392" fill="#59f" stroke="#025" stroke-width=".26458"/>
    <rect x="72.058" y="128.67" width="2.4003" height=".56254" stroke="#000" stroke-width=".19415"/>
    <path transform="scale(.26458)" d="m307.51 478.7v7.543h-22v2.0879h22v7.543l7.4356-4.293 7.4375-4.293-7.4375-4.2949z" fill="#025" stroke="#025"/>
   </g>
   <g transform="translate(17.322 -17.786)">
    <circle cx="73.258" cy="128.95" r="2.2392" fill="#59f" stroke="#025" stroke-width=".26458"/>
    <rect x="72.058" y="128.67" width="2.4003" height=".56254" stroke="#000" stroke-width=".19415"/>
    <path transform="scale(.26458)" d="m307.51 478.7v7.543h-22v2.0879h22v7.543l7.4356-4.293 7.4375-4.293-7.4375-4.2949z" fill="#025" stroke="#025"/>
   </g>
   <g transform="translate(2.851 -11.944)">
    <circle cx="73.258" cy="128.95" r="2.2392" fill="#59f" stroke="#025" stroke-width=".26458"/>
    <rect x="72.058" y="128.67" width="2.4003" height=".56254" stroke="#000" stroke-width=".19415"/>
    <path transform="scale(.26458)" d="m307.51 478.7v7.543h-22v2.0879h22v7.543l7.4356-4.293 7.4375-4.293-7.4375-4.2949z" fill="#025" stroke="#025"/>
   </g>
   <g transform="translate(43.955 -16.67)">
    <circle cx="73.258" cy="128.95" r="2.2392" fill="#59f" stroke="#025" stroke-width=".26458"/>
    <rect x="72.058" y="128.67" width="2.4003" height=".56254" stroke="#000" stroke-width=".19415"/>
    <path transform="scale(.26458)" d="m307.51 478.7v7.543h-22v2.0879h22v7.543l7.4356-4.293 7.4375-4.293-7.4375-4.2949z" fill="#025" stroke="#025"/>
   </g>
   <g transform="matrix(.84227 0 0 .84227 16.069 27.744)">
    <path transform="scale(.26458)" d="m281.46 503.59v22.223h-10v81.471h187.06v-81.471h-10v-22.223h-27.523v22.223h-112.01v-22.223z" fill="#1a1a1a" stroke="#000"/>
    <rect x="75.728" y="135.56" width="4.8515" height="1.1419" fill="#fc0"/>
    <path d="m114.4 133.84v1.8552h-1.8547v1.1415h1.8547v1.8552h1.142v-1.8552h1.8547v-1.1415h-1.8547v-1.8552z" fill="#fc0"/>
    <text x="96.440994" y="145.5242" fill="#ffcc00" font-family="sans-serif" font-size="4.6527px" stroke-width=".11632" text-anchor="middle" style="line-height:1.25" xml:space="preserve"><tspan x="96.440994" y="145.5242" text-align="center">Generador</tspan><tspan x="96.440994" y="151.3401" text-align="center">de</tspan><tspan x="96.440994" y="157.15601" text-align="center">tensión</tspan></text>
   </g>
  </g>
  <text x="-218.77895" y="-181.57542" fill="#2c2ca0" font-family="sans-serif" font-size="31.17px" stroke-width=".77925" style="line-height:1.25" xml:space="preserve"><tspan x="-218.77895" y="-181.57542" fill="#2c2ca0" stroke-width=".77925">Corriente</tspan></text>
  <text x="-210.24297" y="35.789444" fill="#808000" font-family="sans-serif" font-size="31.17px" stroke-width=".26458" style="line-height:1.25" xml:space="preserve"><tspan x="-210.24297" y="35.789444" fill="#808000" font-size="31.17px" stroke-width=".26458">Voltaje</tspan></text>
 </g>
</svg>
