<?xml version="1.0" encoding="UTF-8" standalone="no"?>
<svg
   version="1.1"
   width="46.912209mm"
   height="22.545799mm"
   viewBox="0 0 46.912209 22.545799"
   id="svg390"
   sodipodi:docname="ejercicio3.svg"
   inkscape:version="1.1.1 (3bf5ae0d25, 2021-09-20)"
   xmlns:inkscape="http://www.inkscape.org/namespaces/inkscape"
   xmlns:sodipodi="http://sodipodi.sourceforge.net/DTD/sodipodi-0.dtd"
   xmlns="http://www.w3.org/2000/svg"
   xmlns:svg="http://www.w3.org/2000/svg"
   xmlns:rdf="http://www.w3.org/1999/02/22-rdf-syntax-ns#"
   xmlns:cc="http://creativecommons.org/ns#"
   xmlns:dc="http://purl.org/dc/elements/1.1/">
  <defs
     id="defs394" />
  <sodipodi:namedview
     id="namedview392"
     pagecolor="#ffffff"
     bordercolor="#666666"
     borderopacity="1.0"
     inkscape:pageshadow="2"
     inkscape:pageopacity="0.0"
     inkscape:pagecheckerboard="0"
     inkscape:document-units="mm"
     showgrid="false"
     inkscape:zoom="0.48552299"
     inkscape:cx="36.043607"
     inkscape:cy="62.818858"
     inkscape:window-width="1280"
     inkscape:window-height="736"
     inkscape:window-x="0"
     inkscape:window-y="0"
     inkscape:window-maximized="1"
     inkscape:current-layer="svg390" />
  <title
     id="title2">SVG Image created as mediciones_p2.svg date 2023/02/22 19:10:23 </title>
  <desc
     id="desc4">Image generated by Eeschema-SVG </desc>
  <g
     style="fill:#000000;fill-opacity:1;stroke:#000000;stroke-linecap:round;stroke-linejoin:round;stroke-opacity:1"
     id="g6"
     transform="translate(-80.042429,-71.5104)" />
  <g
     style="fill:#006464;fill-opacity:0;stroke:#006464;stroke-width:0.1524;stroke-linecap:round;stroke-linejoin:round;stroke-opacity:1"
     id="g372"
     transform="translate(-80.042429,-71.5104)" />
  <g
     id="g588"
     transform="translate(-80.042429,-71.5104)">
    <g
       style="fill:#000000;fill-opacity:0;stroke:#000000;stroke-width:0.1524;stroke-linecap:round;stroke-linejoin:round;stroke-opacity:1"
       id="g72">
      <g
         id="g8" />
      <g
         style="fill:#840000;fill-opacity:0;stroke:#840000;stroke-width:0.1524;stroke-linecap:round;stroke-linejoin:round;stroke-opacity:1"
         id="g10" />
      <g
         style="fill:#840000;fill-opacity:0;stroke:#840000;stroke-width:0.254;stroke-linecap:round;stroke-linejoin:round;stroke-opacity:1"
         id="g14">
        <rect
           x="120.904"
           y="82.550003"
           width="2.0320001"
           height="5.0799999"
           rx="0.000000"
           id="rect12" />
      </g>
      <g
         style="fill:#840000;fill-opacity:0;stroke:#840000;stroke-width:0.1524;stroke-linecap:round;stroke-linejoin:round;stroke-opacity:1"
         id="g20">
        <path
           d="M 121.92,87.63 V 88.9"
           id="path16" />
        <path
           d="M 121.92,82.55 V 81.28"
           id="path18" />
      </g>
      <g
         style="fill:#006464;fill-opacity:0;stroke:#006464;stroke-width:0.1524;stroke-linecap:round;stroke-linejoin:round;stroke-opacity:1"
         id="g70">
        <text
           x="125.7712"
           y="85.089996"
           textLength="2.6064999"
           font-size="1.6933px"
           lengthAdjust="spacingAndGlyphs"
           text-anchor="middle"
           opacity="0"
           id="text22">R2</text>
        <g
           class="stroked-text"
           id="g68">
          <desc
             id="desc24">R2</desc>
          <path
             d="m 125.5595,84.9216 -0.4233,-0.6048"
             id="path26" />
          <path
             d="m 124.8338,84.9216 v -1.27"
             id="path28" />
          <path
             d="m 124.8338,83.6516 h 0.4838"
             id="path30" />
          <path
             d="m 125.3176,83.6516 0.121,0.0605"
             id="path32" />
          <path
             d="m 125.4386,83.7121 0.0605,0.0604"
             id="path34" />
          <path
             d="m 125.4991,83.7725 0.0604,0.121"
             id="path36" />
          <path
             d="m 125.5595,83.8935 v 0.1814"
             id="path38" />
          <path
             d="m 125.5595,84.0749 -0.0604,0.121"
             id="path40" />
          <path
             d="m 125.4991,84.1959 -0.0605,0.0604"
             id="path42" />
          <path
             d="m 125.4386,84.2563 -0.121,0.0605"
             id="path44" />
          <path
             d="m 125.3176,84.3168 h -0.4838"
             id="path46" />
          <path
             d="m 126.0434,83.7725 0.0604,-0.0604"
             id="path48" />
          <path
             d="m 126.1038,83.7121 0.121,-0.0605"
             id="path50" />
          <path
             d="m 126.2248,83.6516 h 0.3024"
             id="path52" />
          <path
             d="m 126.5272,83.6516 0.1209,0.0605"
             id="path54" />
          <path
             d="m 126.6481,83.7121 0.0605,0.0604"
             id="path56" />
          <path
             d="m 126.7086,83.7725 0.0605,0.121"
             id="path58" />
          <path
             d="m 126.7691,83.8935 v 0.1209"
             id="path60" />
          <path
             d="m 126.7691,84.0144 -0.0605,0.1815"
             id="path62" />
          <path
             d="m 126.7086,84.1959 -0.7257,0.7257"
             id="path64" />
          <path
             d="m 125.9829,84.9216 h 0.7862"
             id="path66" />
        </g>
      </g>
    </g>
    <g
       style="fill:#006464;fill-opacity:0;stroke:#006464;stroke-width:0.1524;stroke-linecap:round;stroke-linejoin:round;stroke-opacity:1"
       id="g128">
      <g
         id="g74" />
      <g
         style="fill:#840000;fill-opacity:0;stroke:#840000;stroke-width:0.1524;stroke-linecap:round;stroke-linejoin:round;stroke-opacity:1"
         id="g76" />
      <g
         style="fill:#840000;fill-opacity:0;stroke:#840000;stroke-width:0.254;stroke-linecap:round;stroke-linejoin:round;stroke-opacity:1"
         id="g80">
        <rect
           x="104.14"
           y="73.914001"
           width="5.0799999"
           height="2.0320001"
           rx="0.000000"
           id="rect78" />
      </g>
      <g
         style="fill:#840000;fill-opacity:0;stroke:#840000;stroke-width:0.1524;stroke-linecap:round;stroke-linejoin:round;stroke-opacity:1"
         id="g86">
        <path
           d="m 104.14,74.93 h -1.27"
           id="path82" />
        <path
           d="m 109.22,74.93 h 1.27"
           id="path84" />
      </g>
      <g
         style="fill:#006464;fill-opacity:0;stroke:#006464;stroke-width:0.1524;stroke-linecap:round;stroke-linejoin:round;stroke-opacity:1"
         id="g126">
        <text
           x="106.6799"
           y="73.025002"
           textLength="2.6064999"
           font-size="1.6933px"
           lengthAdjust="spacingAndGlyphs"
           text-anchor="middle"
           opacity="0"
           id="text88">R1</text>
        <g
           class="stroked-text"
           id="g124">
          <desc
             id="desc90">R1</desc>
          <path
             d="m 106.4682,72.8566 -0.4233,-0.6048"
             id="path92" />
          <path
             d="m 105.7425,72.8566 v -1.27"
             id="path94" />
          <path
             d="m 105.7425,71.5866 h 0.4838"
             id="path96" />
          <path
             d="m 106.2263,71.5866 0.121,0.0605"
             id="path98" />
          <path
             d="m 106.3473,71.6471 0.0605,0.0604"
             id="path100" />
          <path
             d="m 106.4078,71.7075 0.0604,0.121"
             id="path102" />
          <path
             d="m 106.4682,71.8285 v 0.1814"
             id="path104" />
          <path
             d="m 106.4682,72.0099 -0.0604,0.121"
             id="path106" />
          <path
             d="m 106.4078,72.1309 -0.0605,0.0604"
             id="path108" />
          <path
             d="m 106.3473,72.1913 -0.121,0.0605"
             id="path110" />
          <path
             d="m 106.2263,72.2518 h -0.4838"
             id="path112" />
          <path
             d="m 107.6778,72.8566 h -0.7257"
             id="path114" />
          <path
             d="m 107.3149,72.8566 v -1.27"
             id="path116" />
          <path
             d="M 107.3149,71.5866 107.194,71.768"
             id="path118" />
          <path
             d="m 107.194,71.768 -0.121,0.121"
             id="path120" />
          <path
             d="m 107.073,71.889 -0.1209,0.0604"
             id="path122" />
        </g>
      </g>
    </g>
    <g
       style="fill:#006464;fill-opacity:0;stroke:#006464;stroke-width:0.1524;stroke-linecap:round;stroke-linejoin:round;stroke-opacity:1"
       id="g370">
      <g
         id="g130" />
      <g
         style="fill:#840000;fill-opacity:0;stroke:#840000;stroke-width:0.1524;stroke-linecap:round;stroke-linejoin:round;stroke-opacity:1"
         id="g138">
        <path
           style="fill:none;fill-opacity:0;stroke:#840000;stroke-width:0.1524;stroke-linecap:round;stroke-linejoin:round;stroke-opacity:1"
           d="m 86.995,86.995 1.27,-1.27"
           id="path132" />
        <path
           style="fill:none;fill-opacity:0;stroke:#840000;stroke-width:0.1524;stroke-linecap:round;stroke-linejoin:round;stroke-opacity:1"
           d="m 92.075,81.915 1.27,-1.27"
           id="path134" />
        <path
           style="fill:none;fill-opacity:0;stroke:#840000;stroke-width:0.1524;stroke-linecap:round;stroke-linejoin:round;stroke-opacity:1"
           d="m 92.075,80.645 h 1.27 v 1.27"
           id="path136" />
      </g>
      <g
         style="fill:#840000;fill-opacity:0;stroke:#840000;stroke-width:0.254;stroke-linecap:round;stroke-linejoin:round;stroke-opacity:1"
         id="g142">
        <circle
           cx="90.169998"
           cy="83.82"
           r="2.54"
           id="circle140" />
      </g>
      <g
         style="fill:#840000;fill-opacity:0;stroke:#840000;stroke-width:0.3175;stroke-linecap:round;stroke-linejoin:round;stroke-opacity:1"
         id="g188">
        <text
           x="90.169998"
           y="85.089996"
           textLength="3.1887"
           font-size="3.3866px"
           lengthAdjust="spacingAndGlyphs"
           text-anchor="middle"
           opacity="0"
           id="text144">Ω</text>
        <g
           class="stroked-text"
           id="g186">
          <desc
             id="desc146">Ω</desc>
          <path
             d="m 89.2024,84.7531 h 0.6047"
             id="path148" />
          <path
             d="M 89.8071,84.7531 V 84.2693"
             id="path150" />
          <path
             d="m 89.8071,84.2693 -0.2419,-0.121"
             id="path152" />
          <path
             d="M 89.5652,84.1483 89.3233,83.9064"
             id="path154" />
          <path
             d="M 89.3233,83.9064 89.2024,83.5436"
             id="path156" />
          <path
             d="M 89.2024,83.5436 V 82.9388"
             id="path158" />
          <path
             d="M 89.2024,82.9388 89.3233,82.576"
             id="path160" />
          <path
             d="m 89.3233,82.576 0.2419,-0.2419"
             id="path162" />
          <path
             d="m 89.5652,82.3341 0.3629,-0.121"
             id="path164" />
          <path
             d="m 89.9281,82.2131 h 0.4838"
             id="path166" />
          <path
             d="m 90.4119,82.2131 0.3628,0.121"
             id="path168" />
          <path
             d="m 90.7747,82.3341 0.2419,0.2419"
             id="path170" />
          <path
             d="m 91.0166,82.576 0.121,0.3628"
             id="path172" />
          <path
             d="m 91.1376,82.9388 v 0.6048"
             id="path174" />
          <path
             d="m 91.1376,83.5436 -0.121,0.3628"
             id="path176" />
          <path
             d="m 91.0166,83.9064 -0.2419,0.2419"
             id="path178" />
          <path
             d="m 90.7747,84.1483 -0.2419,0.121"
             id="path180" />
          <path
             d="m 90.5328,84.2693 v 0.4838"
             id="path182" />
          <path
             d="m 90.5328,84.7531 h 0.6048"
             id="path184" />
        </g>
      </g>
      <g
         style="fill:#840000;fill-opacity:0;stroke:#840000;stroke-width:0.1524;stroke-linecap:round;stroke-linejoin:round;stroke-opacity:1"
         id="g194">
        <path
           d="M 90.17,86.36 V 88.9"
           id="path190" />
        <path
           d="M 90.17,81.28 V 78.74"
           id="path192" />
      </g>
      <g
         style="fill:#006464;fill-opacity:0;stroke:#006464;stroke-width:0.1524;stroke-linecap:round;stroke-linejoin:round;stroke-opacity:1"
         id="g368">
        <text
           x="84.8591"
           y="80.644997"
           textLength="9.6822004"
           font-size="1.6933px"
           lengthAdjust="spacingAndGlyphs"
           text-anchor="middle"
           opacity="0"
           id="text196">Ohmmeter</text>
        <g
           class="stroked-text"
           id="g366">
          <desc
             id="desc198">Ohmmeter</desc>
          <path
             d="m 80.6257,79.2066 h 0.2419"
             id="path200" />
          <path
             d="m 80.8676,79.2066 0.121,0.0605"
             id="path202" />
          <path
             d="m 80.9886,79.2671 0.1209,0.1209"
             id="path204" />
          <path
             d="M 81.1095,79.388 81.17,79.6299"
             id="path206" />
          <path
             d="m 81.17,79.6299 v 0.4233"
             id="path208" />
          <path
             d="m 81.17,80.0532 -0.0605,0.2419"
             id="path210" />
          <path
             d="m 81.1095,80.2951 -0.1209,0.121"
             id="path212" />
          <path
             d="m 80.9886,80.4161 -0.121,0.0605"
             id="path214" />
          <path
             d="M 80.8676,80.4766 H 80.6257"
             id="path216" />
          <path
             d="M 80.6257,80.4766 80.5048,80.4161"
             id="path218" />
          <path
             d="m 80.5048,80.4161 -0.121,-0.121"
             id="path220" />
          <path
             d="M 80.3838,80.2951 80.3234,80.0532"
             id="path222" />
          <path
             d="M 80.3234,80.0532 V 79.6299"
             id="path224" />
          <path
             d="M 80.3234,79.6299 80.3838,79.388"
             id="path226" />
          <path
             d="m 80.3838,79.388 0.121,-0.1209"
             id="path228" />
          <path
             d="m 80.5048,79.2671 0.1209,-0.0605"
             id="path230" />
          <path
             d="m 81.7143,80.4766 v -1.27"
             id="path232" />
          <path
             d="M 82.2586,80.4766 V 79.8113"
             id="path234" />
          <path
             d="M 82.2586,79.8113 82.1981,79.6904"
             id="path236" />
          <path
             d="M 82.1981,79.6904 82.0772,79.6299"
             id="path238" />
          <path
             d="M 82.0772,79.6299 H 81.8958"
             id="path240" />
          <path
             d="m 81.8958,79.6299 -0.121,0.0605"
             id="path242" />
          <path
             d="m 81.7748,79.6904 -0.0605,0.0605"
             id="path244" />
          <path
             d="M 82.8633,80.4766 V 79.6299"
             id="path246" />
          <path
             d="m 82.8633,79.7509 0.0605,-0.0605"
             id="path248" />
          <path
             d="m 82.9238,79.6904 0.121,-0.0605"
             id="path250" />
          <path
             d="m 83.0448,79.6299 h 0.1814"
             id="path252" />
          <path
             d="m 83.2262,79.6299 0.1209,0.0605"
             id="path254" />
          <path
             d="m 83.3471,79.6904 0.0605,0.1209"
             id="path256" />
          <path
             d="m 83.4076,79.8113 v 0.6653"
             id="path258" />
          <path
             d="m 83.4076,79.8113 0.0605,-0.1209"
             id="path260" />
          <path
             d="M 83.4681,79.6904 83.589,79.6299"
             id="path262" />
          <path
             d="m 83.589,79.6299 h 0.1815"
             id="path264" />
          <path
             d="m 83.7705,79.6299 0.1209,0.0605"
             id="path266" />
          <path
             d="m 83.8914,79.6904 0.0605,0.1209"
             id="path268" />
          <path
             d="m 83.9519,79.8113 v 0.6653"
             id="path270" />
          <path
             d="M 84.5566,80.4766 V 79.6299"
             id="path272" />
          <path
             d="m 84.5566,79.7509 0.0605,-0.0605"
             id="path274" />
          <path
             d="m 84.6171,79.6904 0.121,-0.0605"
             id="path276" />
          <path
             d="m 84.7381,79.6299 h 0.1814"
             id="path278" />
          <path
             d="m 84.9195,79.6299 0.1209,0.0605"
             id="path280" />
          <path
             d="m 85.0404,79.6904 0.0605,0.1209"
             id="path282" />
          <path
             d="m 85.1009,79.8113 v 0.6653"
             id="path284" />
          <path
             d="m 85.1009,79.8113 0.0605,-0.1209"
             id="path286" />
          <path
             d="m 85.1614,79.6904 0.1209,-0.0605"
             id="path288" />
          <path
             d="m 85.2823,79.6299 h 0.1815"
             id="path290" />
          <path
             d="m 85.4638,79.6299 0.1209,0.0605"
             id="path292" />
          <path
             d="m 85.5847,79.6904 0.0605,0.1209"
             id="path294" />
          <path
             d="m 85.6452,79.8113 v 0.6653"
             id="path296" />
          <path
             d="m 86.7337,80.4161 -0.1209,0.0605"
             id="path298" />
          <path
             d="M 86.6128,80.4766 H 86.3709"
             id="path300" />
          <path
             d="m 86.3709,80.4766 -0.121,-0.0605"
             id="path302" />
          <path
             d="m 86.2499,80.4161 -0.0604,-0.121"
             id="path304" />
          <path
             d="M 86.1895,80.2951 V 79.8113"
             id="path306" />
          <path
             d="m 86.1895,79.8113 0.0604,-0.1209"
             id="path308" />
          <path
             d="m 86.2499,79.6904 0.121,-0.0605"
             id="path310" />
          <path
             d="m 86.3709,79.6299 h 0.2419"
             id="path312" />
          <path
             d="m 86.6128,79.6299 0.1209,0.0605"
             id="path314" />
          <path
             d="m 86.7337,79.6904 0.0605,0.1209"
             id="path316" />
          <path
             d="m 86.7942,79.8113 v 0.121"
             id="path318" />
          <path
             d="m 86.7942,79.9323 -0.6047,0.1209"
             id="path320" />
          <path
             d="m 87.1571,79.6299 h 0.4838"
             id="path322" />
          <path
             d="m 87.3385,79.2066 v 1.0885"
             id="path324" />
          <path
             d="m 87.3385,80.2951 0.0605,0.121"
             id="path326" />
          <path
             d="m 87.399,80.4161 0.121,0.0605"
             id="path328" />
          <path
             d="m 87.52,80.4766 h 0.1209"
             id="path330" />
          <path
             d="m 88.548,80.4161 -0.1209,0.0605"
             id="path332" />
          <path
             d="M 88.4271,80.4766 H 88.1852"
             id="path334" />
          <path
             d="m 88.1852,80.4766 -0.121,-0.0605"
             id="path336" />
          <path
             d="m 88.0642,80.4161 -0.0604,-0.121"
             id="path338" />
          <path
             d="M 88.0038,80.2951 V 79.8113"
             id="path340" />
          <path
             d="m 88.0038,79.8113 0.0604,-0.1209"
             id="path342" />
          <path
             d="m 88.0642,79.6904 0.121,-0.0605"
             id="path344" />
          <path
             d="m 88.1852,79.6299 h 0.2419"
             id="path346" />
          <path
             d="m 88.4271,79.6299 0.1209,0.0605"
             id="path348" />
          <path
             d="m 88.548,79.6904 0.0605,0.1209"
             id="path350" />
          <path
             d="m 88.6085,79.8113 v 0.121"
             id="path352" />
          <path
             d="m 88.6085,79.9323 -0.6047,0.1209"
             id="path354" />
          <path
             d="M 89.1528,80.4766 V 79.6299"
             id="path356" />
          <path
             d="m 89.1528,79.8718 0.0605,-0.1209"
             id="path358" />
          <path
             d="m 89.2133,79.7509 0.0605,-0.0605"
             id="path360" />
          <path
             d="m 89.2738,79.6904 0.1209,-0.0605"
             id="path362" />
          <path
             d="m 89.3947,79.6299 h 0.121"
             id="path364" />
        </g>
      </g>
    </g>
    <g
       style="fill:#009600;fill-opacity:0;stroke:#009600;stroke-width:0.1524;stroke-linecap:round;stroke-linejoin:round;stroke-opacity:1"
       id="g388">
      <path
         d="m 110.49,74.93 h 11.43"
         id="path374" />
      <path
         d="m 121.92,88.9 v 5.08"
         id="path376" />
      <path
         d="m 121.92,74.93 v 6.35"
         id="path378" />
      <path
         d="M 121.92,93.98 H 90.17"
         id="path380" />
      <path
         d="m 90.17,74.93 h 12.7"
         id="path382" />
      <path
         d="M 90.17,93.98 V 88.9"
         id="path384" />
      <path
         d="M 90.17,78.74 V 74.93"
         id="path386" />
    </g>
  </g>
  <metadata
     id="metadata396">
    <rdf:RDF>
      <cc:Work
         rdf:about="">
        <dc:title>SVG Image created as mediciones_p2.svg date 2023/02/22 19:10:23 </dc:title>
      </cc:Work>
    </rdf:RDF>
  </metadata>
</svg>
