<?xml version="1.0" encoding="UTF-8" standalone="no"?>
<svg
   version="1.1"
   width="45.56057mm"
   height="23.003004mm"
   viewBox="0 0 45.56057 23.003004"
   id="svg476"
   sodipodi:docname="ejercicio5.svg"
   inkscape:version="1.1.1 (3bf5ae0d25, 2021-09-20)"
   xmlns:inkscape="http://www.inkscape.org/namespaces/inkscape"
   xmlns:sodipodi="http://sodipodi.sourceforge.net/DTD/sodipodi-0.dtd"
   xmlns="http://www.w3.org/2000/svg"
   xmlns:svg="http://www.w3.org/2000/svg"
   xmlns:rdf="http://www.w3.org/1999/02/22-rdf-syntax-ns#"
   xmlns:cc="http://creativecommons.org/ns#"
   xmlns:dc="http://purl.org/dc/elements/1.1/">
  <defs
     id="defs480" />
  <sodipodi:namedview
     id="namedview478"
     pagecolor="#ffffff"
     bordercolor="#666666"
     borderopacity="1.0"
     inkscape:pageshadow="2"
     inkscape:pageopacity="0.0"
     inkscape:pagecheckerboard="0"
     inkscape:document-units="mm"
     showgrid="false"
     inkscape:zoom="0.6866332"
     inkscape:cx="297.83005"
     inkscape:cy="125.97701"
     inkscape:window-width="1280"
     inkscape:window-height="736"
     inkscape:window-x="0"
     inkscape:window-y="0"
     inkscape:window-maximized="1"
     inkscape:current-layer="svg476" />
  <title
     id="title2">SVG Image created as mediciones_p2.svg date 2023/02/22 19:25:10 </title>
  <desc
     id="desc4">Image generated by Eeschema-SVG </desc>
  <g
     style="fill:#000000;fill-opacity:1;stroke:#000000;stroke-linecap:round;stroke-linejoin:round;stroke-opacity:1"
     id="g6"
     transform="translate(-69.882425,-71.5104)" />
  <g
     style="fill:#000000;fill-opacity:0;stroke:#000000;stroke-width:0.1524;stroke-linecap:round;stroke-linejoin:round;stroke-opacity:1"
     id="g62"
     transform="translate(-69.882425,-71.5104)">
    <g
       id="g8" />
    <g
       style="fill:#840000;fill-opacity:0;stroke:#840000;stroke-width:0.1524;stroke-linecap:round;stroke-linejoin:round;stroke-opacity:1"
       id="g10" />
    <g
       style="fill:#840000;fill-opacity:0;stroke:#840000;stroke-width:0.254;stroke-linecap:round;stroke-linejoin:round;stroke-opacity:1"
       id="g14">
      <rect
         x="88.900002"
         y="73.914001"
         width="5.0799999"
         height="2.0320001"
         rx="0.000000"
         id="rect12" />
    </g>
    <g
       style="fill:#840000;fill-opacity:0;stroke:#840000;stroke-width:0.1524;stroke-linecap:round;stroke-linejoin:round;stroke-opacity:1"
       id="g20">
      <path
         d="M 88.9,74.93 H 87.63"
         id="path16" />
      <path
         d="m 93.98,74.93 h 1.27"
         id="path18" />
    </g>
    <g
       style="fill:#006464;fill-opacity:0;stroke:#006464;stroke-width:0.1524;stroke-linecap:round;stroke-linejoin:round;stroke-opacity:1"
       id="g60">
      <text
         x="91.439903"
         y="73.025002"
         textLength="2.6064999"
         font-size="1.6933px"
         lengthAdjust="spacingAndGlyphs"
         text-anchor="middle"
         opacity="0"
         id="text22">R1</text>
      <g
         class="stroked-text"
         id="g58">
        <desc
           id="desc24">R1</desc>
        <path
           d="M 91.2282,72.8566 90.8049,72.2518"
           id="path26" />
        <path
           d="m 90.5025,72.8566 v -1.27"
           id="path28" />
        <path
           d="m 90.5025,71.5866 h 0.4838"
           id="path30" />
        <path
           d="m 90.9863,71.5866 0.121,0.0605"
           id="path32" />
        <path
           d="m 91.1073,71.6471 0.0605,0.0604"
           id="path34" />
        <path
           d="m 91.1678,71.7075 0.0604,0.121"
           id="path36" />
        <path
           d="m 91.2282,71.8285 v 0.1814"
           id="path38" />
        <path
           d="m 91.2282,72.0099 -0.0604,0.121"
           id="path40" />
        <path
           d="m 91.1678,72.1309 -0.0605,0.0604"
           id="path42" />
        <path
           d="m 91.1073,72.1913 -0.121,0.0605"
           id="path44" />
        <path
           d="M 90.9863,72.2518 H 90.5025"
           id="path46" />
        <path
           d="M 92.4378,72.8566 H 91.7121"
           id="path48" />
        <path
           d="m 92.0749,72.8566 v -1.27"
           id="path50" />
        <path
           d="M 92.0749,71.5866 91.954,71.768"
           id="path52" />
        <path
           d="m 91.954,71.768 -0.121,0.121"
           id="path54" />
        <path
           d="m 91.833,71.889 -0.1209,0.0604"
           id="path56" />
      </g>
    </g>
  </g>
  <g
     style="fill:#006464;fill-opacity:0;stroke:#006464;stroke-width:0.1524;stroke-linecap:round;stroke-linejoin:round;stroke-opacity:1"
     id="g304"
     transform="translate(-69.882425,-71.5104)">
    <g
       id="g64" />
    <g
       style="fill:#840000;fill-opacity:0;stroke:#840000;stroke-width:0.1524;stroke-linecap:round;stroke-linejoin:round;stroke-opacity:1"
       id="g72">
      <path
         style="fill:none;fill-opacity:0;stroke:#840000;stroke-width:0.1524;stroke-linecap:round;stroke-linejoin:round;stroke-opacity:1"
         d="m 76.835,86.995 1.27,-1.27"
         id="path66" />
      <path
         style="fill:none;fill-opacity:0;stroke:#840000;stroke-width:0.1524;stroke-linecap:round;stroke-linejoin:round;stroke-opacity:1"
         d="m 81.915,81.915 1.27,-1.27"
         id="path68" />
      <path
         style="fill:none;fill-opacity:0;stroke:#840000;stroke-width:0.1524;stroke-linecap:round;stroke-linejoin:round;stroke-opacity:1"
         d="m 81.915,80.645 h 1.27 v 1.27"
         id="path70" />
    </g>
    <g
       style="fill:#840000;fill-opacity:0;stroke:#840000;stroke-width:0.254;stroke-linecap:round;stroke-linejoin:round;stroke-opacity:1"
       id="g76">
      <circle
         cx="80.010002"
         cy="83.82"
         r="2.54"
         id="circle74" />
    </g>
    <g
       style="fill:#840000;fill-opacity:0;stroke:#840000;stroke-width:0.3175;stroke-linecap:round;stroke-linejoin:round;stroke-opacity:1"
       id="g122">
      <text
         x="80.010002"
         y="85.089996"
         textLength="3.1887"
         font-size="3.3866px"
         lengthAdjust="spacingAndGlyphs"
         text-anchor="middle"
         opacity="0"
         id="text78">Ω</text>
      <g
         class="stroked-text"
         id="g120">
        <desc
           id="desc80">Ω</desc>
        <path
           d="m 79.0424,84.7531 h 0.6047"
           id="path82" />
        <path
           d="M 79.6471,84.7531 V 84.2693"
           id="path84" />
        <path
           d="m 79.6471,84.2693 -0.2419,-0.121"
           id="path86" />
        <path
           d="M 79.4052,84.1483 79.1633,83.9064"
           id="path88" />
        <path
           d="M 79.1633,83.9064 79.0424,83.5436"
           id="path90" />
        <path
           d="M 79.0424,83.5436 V 82.9388"
           id="path92" />
        <path
           d="M 79.0424,82.9388 79.1633,82.576"
           id="path94" />
        <path
           d="m 79.1633,82.576 0.2419,-0.2419"
           id="path96" />
        <path
           d="m 79.4052,82.3341 0.3629,-0.121"
           id="path98" />
        <path
           d="m 79.7681,82.2131 h 0.4838"
           id="path100" />
        <path
           d="m 80.2519,82.2131 0.3628,0.121"
           id="path102" />
        <path
           d="m 80.6147,82.3341 0.2419,0.2419"
           id="path104" />
        <path
           d="m 80.8566,82.576 0.121,0.3628"
           id="path106" />
        <path
           d="m 80.9776,82.9388 v 0.6048"
           id="path108" />
        <path
           d="m 80.9776,83.5436 -0.121,0.3628"
           id="path110" />
        <path
           d="m 80.8566,83.9064 -0.2419,0.2419"
           id="path112" />
        <path
           d="m 80.6147,84.1483 -0.2419,0.121"
           id="path114" />
        <path
           d="m 80.3728,84.2693 v 0.4838"
           id="path116" />
        <path
           d="m 80.3728,84.7531 h 0.6048"
           id="path118" />
      </g>
    </g>
    <g
       style="fill:#840000;fill-opacity:0;stroke:#840000;stroke-width:0.1524;stroke-linecap:round;stroke-linejoin:round;stroke-opacity:1"
       id="g128">
      <path
         d="M 80.01,86.36 V 88.9"
         id="path124" />
      <path
         d="M 80.01,81.28 V 78.74"
         id="path126" />
    </g>
    <g
       style="fill:#006464;fill-opacity:0;stroke:#006464;stroke-width:0.1524;stroke-linecap:round;stroke-linejoin:round;stroke-opacity:1"
       id="g302">
      <text
         x="74.699097"
         y="80.644997"
         textLength="9.6822004"
         font-size="1.6933px"
         lengthAdjust="spacingAndGlyphs"
         text-anchor="middle"
         opacity="0"
         id="text130">Ohmmeter</text>
      <g
         class="stroked-text"
         id="g300">
        <desc
           id="desc132">Ohmmeter</desc>
        <path
           d="m 70.4657,79.2066 h 0.2419"
           id="path134" />
        <path
           d="m 70.7076,79.2066 0.121,0.0605"
           id="path136" />
        <path
           d="m 70.8286,79.2671 0.1209,0.1209"
           id="path138" />
        <path
           d="M 70.9495,79.388 71.01,79.6299"
           id="path140" />
        <path
           d="m 71.01,79.6299 v 0.4233"
           id="path142" />
        <path
           d="m 71.01,80.0532 -0.0605,0.2419"
           id="path144" />
        <path
           d="m 70.9495,80.2951 -0.1209,0.121"
           id="path146" />
        <path
           d="m 70.8286,80.4161 -0.121,0.0605"
           id="path148" />
        <path
           d="M 70.7076,80.4766 H 70.4657"
           id="path150" />
        <path
           d="M 70.4657,80.4766 70.3448,80.4161"
           id="path152" />
        <path
           d="m 70.3448,80.4161 -0.121,-0.121"
           id="path154" />
        <path
           d="M 70.2238,80.2951 70.1634,80.0532"
           id="path156" />
        <path
           d="M 70.1634,80.0532 V 79.6299"
           id="path158" />
        <path
           d="M 70.1634,79.6299 70.2238,79.388"
           id="path160" />
        <path
           d="m 70.2238,79.388 0.121,-0.1209"
           id="path162" />
        <path
           d="m 70.3448,79.2671 0.1209,-0.0605"
           id="path164" />
        <path
           d="m 71.5543,80.4766 v -1.27"
           id="path166" />
        <path
           d="M 72.0986,80.4766 V 79.8113"
           id="path168" />
        <path
           d="M 72.0986,79.8113 72.0381,79.6904"
           id="path170" />
        <path
           d="M 72.0381,79.6904 71.9172,79.6299"
           id="path172" />
        <path
           d="M 71.9172,79.6299 H 71.7358"
           id="path174" />
        <path
           d="m 71.7358,79.6299 -0.121,0.0605"
           id="path176" />
        <path
           d="m 71.6148,79.6904 -0.0605,0.0605"
           id="path178" />
        <path
           d="M 72.7033,80.4766 V 79.6299"
           id="path180" />
        <path
           d="m 72.7033,79.7509 0.0605,-0.0605"
           id="path182" />
        <path
           d="m 72.7638,79.6904 0.121,-0.0605"
           id="path184" />
        <path
           d="m 72.8848,79.6299 h 0.1814"
           id="path186" />
        <path
           d="m 73.0662,79.6299 0.1209,0.0605"
           id="path188" />
        <path
           d="m 73.1871,79.6904 0.0605,0.1209"
           id="path190" />
        <path
           d="m 73.2476,79.8113 v 0.6653"
           id="path192" />
        <path
           d="m 73.2476,79.8113 0.0605,-0.1209"
           id="path194" />
        <path
           d="M 73.3081,79.6904 73.429,79.6299"
           id="path196" />
        <path
           d="m 73.429,79.6299 h 0.1815"
           id="path198" />
        <path
           d="m 73.6105,79.6299 0.1209,0.0605"
           id="path200" />
        <path
           d="m 73.7314,79.6904 0.0605,0.1209"
           id="path202" />
        <path
           d="m 73.7919,79.8113 v 0.6653"
           id="path204" />
        <path
           d="M 74.3966,80.4766 V 79.6299"
           id="path206" />
        <path
           d="m 74.3966,79.7509 0.0605,-0.0605"
           id="path208" />
        <path
           d="m 74.4571,79.6904 0.121,-0.0605"
           id="path210" />
        <path
           d="m 74.5781,79.6299 h 0.1814"
           id="path212" />
        <path
           d="m 74.7595,79.6299 0.1209,0.0605"
           id="path214" />
        <path
           d="m 74.8804,79.6904 0.0605,0.1209"
           id="path216" />
        <path
           d="m 74.9409,79.8113 v 0.6653"
           id="path218" />
        <path
           d="m 74.9409,79.8113 0.0605,-0.1209"
           id="path220" />
        <path
           d="m 75.0014,79.6904 0.1209,-0.0605"
           id="path222" />
        <path
           d="m 75.1223,79.6299 h 0.1815"
           id="path224" />
        <path
           d="m 75.3038,79.6299 0.1209,0.0605"
           id="path226" />
        <path
           d="m 75.4247,79.6904 0.0605,0.1209"
           id="path228" />
        <path
           d="m 75.4852,79.8113 v 0.6653"
           id="path230" />
        <path
           d="m 76.5737,80.4161 -0.1209,0.0605"
           id="path232" />
        <path
           d="M 76.4528,80.4766 H 76.2109"
           id="path234" />
        <path
           d="m 76.2109,80.4766 -0.121,-0.0605"
           id="path236" />
        <path
           d="m 76.0899,80.4161 -0.0604,-0.121"
           id="path238" />
        <path
           d="M 76.0295,80.2951 V 79.8113"
           id="path240" />
        <path
           d="m 76.0295,79.8113 0.0604,-0.1209"
           id="path242" />
        <path
           d="m 76.0899,79.6904 0.121,-0.0605"
           id="path244" />
        <path
           d="m 76.2109,79.6299 h 0.2419"
           id="path246" />
        <path
           d="m 76.4528,79.6299 0.1209,0.0605"
           id="path248" />
        <path
           d="m 76.5737,79.6904 0.0605,0.1209"
           id="path250" />
        <path
           d="m 76.6342,79.8113 v 0.121"
           id="path252" />
        <path
           d="m 76.6342,79.9323 -0.6047,0.1209"
           id="path254" />
        <path
           d="m 76.9971,79.6299 h 0.4838"
           id="path256" />
        <path
           d="m 77.1785,79.2066 v 1.0885"
           id="path258" />
        <path
           d="m 77.1785,80.2951 0.0605,0.121"
           id="path260" />
        <path
           d="m 77.239,80.4161 0.121,0.0605"
           id="path262" />
        <path
           d="m 77.36,80.4766 h 0.1209"
           id="path264" />
        <path
           d="m 78.388,80.4161 -0.1209,0.0605"
           id="path266" />
        <path
           d="M 78.2671,80.4766 H 78.0252"
           id="path268" />
        <path
           d="m 78.0252,80.4766 -0.121,-0.0605"
           id="path270" />
        <path
           d="m 77.9042,80.4161 -0.0604,-0.121"
           id="path272" />
        <path
           d="M 77.8438,80.2951 V 79.8113"
           id="path274" />
        <path
           d="m 77.8438,79.8113 0.0604,-0.1209"
           id="path276" />
        <path
           d="m 77.9042,79.6904 0.121,-0.0605"
           id="path278" />
        <path
           d="m 78.0252,79.6299 h 0.2419"
           id="path280" />
        <path
           d="m 78.2671,79.6299 0.1209,0.0605"
           id="path282" />
        <path
           d="m 78.388,79.6904 0.0605,0.1209"
           id="path284" />
        <path
           d="m 78.4485,79.8113 v 0.121"
           id="path286" />
        <path
           d="m 78.4485,79.9323 -0.6047,0.1209"
           id="path288" />
        <path
           d="M 78.9928,80.4766 V 79.6299"
           id="path290" />
        <path
           d="m 78.9928,79.8718 0.0605,-0.1209"
           id="path292" />
        <path
           d="m 79.0533,79.7509 0.0605,-0.0605"
           id="path294" />
        <path
           d="m 79.1138,79.6904 0.1209,-0.0605"
           id="path296" />
        <path
           d="m 79.2347,79.6299 h 0.121"
           id="path298" />
      </g>
    </g>
  </g>
  <g
     style="fill:#006464;fill-opacity:0;stroke:#006464;stroke-width:0.1524;stroke-linecap:round;stroke-linejoin:round;stroke-opacity:1"
     id="g370"
     transform="translate(-69.882425,-71.5104)">
    <g
       id="g306" />
    <g
       style="fill:#840000;fill-opacity:0;stroke:#840000;stroke-width:0.1524;stroke-linecap:round;stroke-linejoin:round;stroke-opacity:1"
       id="g308" />
    <g
       style="fill:#840000;fill-opacity:0;stroke:#840000;stroke-width:0.254;stroke-linecap:round;stroke-linejoin:round;stroke-opacity:1"
       id="g312">
      <rect
         x="101.854"
         y="81.279999"
         width="2.0320001"
         height="5.0799999"
         rx="0.000000"
         id="rect310" />
    </g>
    <g
       style="fill:#840000;fill-opacity:0;stroke:#840000;stroke-width:0.1524;stroke-linecap:round;stroke-linejoin:round;stroke-opacity:1"
       id="g318">
      <path
         d="m 102.87,86.36 v 1.27"
         id="path314" />
      <path
         d="M 102.87,81.28 V 80.01"
         id="path316" />
    </g>
    <g
       style="fill:#006464;fill-opacity:0;stroke:#006464;stroke-width:0.1524;stroke-linecap:round;stroke-linejoin:round;stroke-opacity:1"
       id="g368">
      <text
         x="99.0187"
         y="84.455002"
         textLength="2.6064999"
         font-size="1.6933px"
         lengthAdjust="spacingAndGlyphs"
         text-anchor="middle"
         opacity="0"
         id="text320">R2</text>
      <g
         class="stroked-text"
         id="g366">
        <desc
           id="desc322">R2</desc>
        <path
           d="M 98.807,84.2866 98.3837,83.6818"
           id="path324" />
        <path
           d="m 98.0813,84.2866 v -1.27"
           id="path326" />
        <path
           d="m 98.0813,83.0166 h 0.4838"
           id="path328" />
        <path
           d="m 98.5651,83.0166 0.121,0.0605"
           id="path330" />
        <path
           d="m 98.6861,83.0771 0.0605,0.0604"
           id="path332" />
        <path
           d="m 98.7466,83.1375 0.0604,0.121"
           id="path334" />
        <path
           d="m 98.807,83.2585 v 0.1814"
           id="path336" />
        <path
           d="m 98.807,83.4399 -0.0604,0.121"
           id="path338" />
        <path
           d="m 98.7466,83.5609 -0.0605,0.0604"
           id="path340" />
        <path
           d="m 98.6861,83.6213 -0.121,0.0605"
           id="path342" />
        <path
           d="M 98.5651,83.6818 H 98.0813"
           id="path344" />
        <path
           d="m 99.2909,83.1375 0.0604,-0.0604"
           id="path346" />
        <path
           d="m 99.3513,83.0771 0.121,-0.0605"
           id="path348" />
        <path
           d="m 99.4723,83.0166 h 0.3024"
           id="path350" />
        <path
           d="m 99.7747,83.0166 0.1209,0.0605"
           id="path352" />
        <path
           d="m 99.8956,83.0771 0.0605,0.0604"
           id="path354" />
        <path
           d="m 99.9561,83.1375 0.0605,0.121"
           id="path356" />
        <path
           d="m 100.0166,83.2585 v 0.1209"
           id="path358" />
        <path
           d="m 100.0166,83.3794 -0.0605,0.1815"
           id="path360" />
        <path
           d="m 99.9561,83.5609 -0.7257,0.7257"
           id="path362" />
        <path
           d="m 99.2304,84.2866 h 0.7862"
           id="path364" />
      </g>
    </g>
  </g>
  <g
     style="fill:#006464;fill-opacity:0;stroke:#006464;stroke-width:0.1524;stroke-linecap:round;stroke-linejoin:round;stroke-opacity:1"
     id="g442"
     transform="translate(-69.882425,-71.5104)">
    <g
       id="g372" />
    <g
       style="fill:#840000;fill-opacity:0;stroke:#840000;stroke-width:0.1524;stroke-linecap:round;stroke-linejoin:round;stroke-opacity:1"
       id="g374" />
    <g
       style="fill:#840000;fill-opacity:0;stroke:#840000;stroke-width:0.254;stroke-linecap:round;stroke-linejoin:round;stroke-opacity:1"
       id="g378">
      <rect
         x="113.284"
         y="81.279999"
         width="2.0320001"
         height="5.0799999"
         rx="0.000000"
         id="rect376" />
    </g>
    <g
       style="fill:#840000;fill-opacity:0;stroke:#840000;stroke-width:0.1524;stroke-linecap:round;stroke-linejoin:round;stroke-opacity:1"
       id="g384">
      <path
         d="m 114.3,86.36 v 1.27"
         id="path380" />
      <path
         d="M 114.3,81.28 V 80.01"
         id="path382" />
    </g>
    <g
       style="fill:#006464;fill-opacity:0;stroke:#006464;stroke-width:0.1524;stroke-linecap:round;stroke-linejoin:round;stroke-opacity:1"
       id="g440">
      <text
         x="110.4487"
         y="84.455002"
         textLength="2.6064999"
         font-size="1.6933px"
         lengthAdjust="spacingAndGlyphs"
         text-anchor="middle"
         opacity="0"
         id="text386">R3</text>
      <g
         class="stroked-text"
         id="g438">
        <desc
           id="desc388">R3</desc>
        <path
           d="m 110.237,84.2866 -0.4233,-0.6048"
           id="path390" />
        <path
           d="m 109.5113,84.2866 v -1.27"
           id="path392" />
        <path
           d="m 109.5113,83.0166 h 0.4838"
           id="path394" />
        <path
           d="m 109.9951,83.0166 0.121,0.0605"
           id="path396" />
        <path
           d="m 110.1161,83.0771 0.0605,0.0604"
           id="path398" />
        <path
           d="m 110.1766,83.1375 0.0604,0.121"
           id="path400" />
        <path
           d="m 110.237,83.2585 v 0.1814"
           id="path402" />
        <path
           d="m 110.237,83.4399 -0.0604,0.121"
           id="path404" />
        <path
           d="m 110.1766,83.5609 -0.0605,0.0604"
           id="path406" />
        <path
           d="m 110.1161,83.6213 -0.121,0.0605"
           id="path408" />
        <path
           d="m 109.9951,83.6818 h -0.4838"
           id="path410" />
        <path
           d="m 110.6604,83.0166 h 0.7862"
           id="path412" />
        <path
           d="m 111.4466,83.0166 -0.4234,0.4838"
           id="path414" />
        <path
           d="m 111.0232,83.5004 h 0.1815"
           id="path416" />
        <path
           d="m 111.2047,83.5004 0.1209,0.0605"
           id="path418" />
        <path
           d="m 111.3256,83.5609 0.0605,0.0604"
           id="path420" />
        <path
           d="m 111.3861,83.6213 0.0605,0.121"
           id="path422" />
        <path
           d="m 111.4466,83.7423 v 0.3024"
           id="path424" />
        <path
           d="m 111.4466,84.0447 -0.0605,0.1209"
           id="path426" />
        <path
           d="m 111.3861,84.1656 -0.0605,0.0605"
           id="path428" />
        <path
           d="m 111.3256,84.2261 -0.1209,0.0605"
           id="path430" />
        <path
           d="m 111.2047,84.2866 h -0.3629"
           id="path432" />
        <path
           d="m 110.8418,84.2866 -0.1209,-0.0605"
           id="path434" />
        <path
           d="m 110.7209,84.2261 -0.0605,-0.0605"
           id="path436" />
      </g>
    </g>
  </g>
  <g
     style="fill:#006464;fill-opacity:0;stroke:#006464;stroke-width:0.1524;stroke-linecap:round;stroke-linejoin:round;stroke-opacity:1"
     id="g444"
     transform="translate(-69.882425,-71.5104)" />
  <g
     style="fill:#009600;fill-opacity:0;stroke:#009600;stroke-width:0.1524;stroke-linecap:round;stroke-linejoin:round;stroke-opacity:1"
     id="g468"
     transform="translate(-69.882425,-71.5104)">
    <path
       d="M 80.01,78.74 V 74.93"
       id="path446" />
    <path
       d="m 80.01,74.93 h 7.62"
       id="path448" />
    <path
       d="M 80.01,93.98 V 88.9"
       id="path450" />
    <path
       d="m 80.01,93.98 h 22.86"
       id="path452" />
    <path
       d="M 102.87,93.98 H 114.3"
       id="path454" />
    <path
       d="m 114.3,87.63 v 6.35"
       id="path456" />
    <path
       d="m 102.87,87.63 v 6.35"
       id="path458" />
    <path
       d="m 102.87,74.93 v 5.08"
       id="path460" />
    <path
       d="M 114.3,80.01 V 74.93"
       id="path462" />
    <path
       d="M 102.87,74.93 H 114.3"
       id="path464" />
    <path
       d="m 95.25,74.93 h 7.62"
       id="path466" />
  </g>
  <g
     style="fill:#009600;fill-opacity:1;stroke:#009600;stroke-width:0.1524;stroke-linecap:round;stroke-linejoin:round;stroke-opacity:1"
     id="g474"
     transform="translate(-69.882425,-71.5104)">
    <circle
       cx="102.87"
       cy="93.980003"
       r="0.45719999"
       id="circle470" />
    <circle
       cx="102.87"
       cy="74.93"
       r="0.45719999"
       id="circle472" />
  </g>
  <metadata
     id="metadata482">
    <rdf:RDF>
      <cc:Work
         rdf:about="">
        <dc:title>SVG Image created as mediciones_p2.svg date 2023/02/22 19:25:10 </dc:title>
      </cc:Work>
    </rdf:RDF>
  </metadata>
</svg>
