<?xml version="1.0" encoding="UTF-8" standalone="no"?>
<svg
   version="1.1"
   width="35.400566mm"
   height="20.116802mm"
   viewBox="0 0 35.400566 20.116802"
   id="svg402"
   sodipodi:docname="ejercicio4.svg"
   inkscape:version="1.1.1 (3bf5ae0d25, 2021-09-20)"
   xmlns:inkscape="http://www.inkscape.org/namespaces/inkscape"
   xmlns:sodipodi="http://sodipodi.sourceforge.net/DTD/sodipodi-0.dtd"
   xmlns="http://www.w3.org/2000/svg"
   xmlns:svg="http://www.w3.org/2000/svg"
   xmlns:rdf="http://www.w3.org/1999/02/22-rdf-syntax-ns#"
   xmlns:cc="http://creativecommons.org/ns#"
   xmlns:dc="http://purl.org/dc/elements/1.1/">
  <defs
     id="defs406" />
  <sodipodi:namedview
     id="namedview404"
     pagecolor="#ffffff"
     bordercolor="#666666"
     borderopacity="1.0"
     inkscape:pageshadow="2"
     inkscape:pageopacity="0.0"
     inkscape:pagecheckerboard="0"
     inkscape:document-units="mm"
     showgrid="false"
     inkscape:zoom="0.6866332"
     inkscape:cx="258.50775"
     inkscape:cy="115.78234"
     inkscape:window-width="1280"
     inkscape:window-height="736"
     inkscape:window-x="0"
     inkscape:window-y="0"
     inkscape:window-maximized="1"
     inkscape:current-layer="svg402" />
  <title
     id="title2">SVG Image created as mediciones_p2.svg date 2023/02/22 19:24:24 </title>
  <desc
     id="desc4">Image generated by Eeschema-SVG </desc>
  <g
     style="fill:#000000;fill-opacity:1;stroke:#000000;stroke-linecap:round;stroke-linejoin:round;stroke-opacity:1"
     id="g6"
     transform="translate(-80.042429,-74.3966)" />
  <g
     style="fill:#000000;fill-opacity:0;stroke:#000000;stroke-width:0.1524;stroke-linecap:round;stroke-linejoin:round;stroke-opacity:1"
     id="g248"
     transform="translate(-80.042429,-74.3966)">
    <g
       id="g8" />
    <g
       style="fill:#840000;fill-opacity:0;stroke:#840000;stroke-width:0.1524;stroke-linecap:round;stroke-linejoin:round;stroke-opacity:1"
       id="g16">
      <path
         style="fill:none;fill-opacity:0;stroke:#840000;stroke-width:0.1524;stroke-linecap:round;stroke-linejoin:round;stroke-opacity:1"
         d="m 86.995,86.995 1.27,-1.27"
         id="path10" />
      <path
         style="fill:none;fill-opacity:0;stroke:#840000;stroke-width:0.1524;stroke-linecap:round;stroke-linejoin:round;stroke-opacity:1"
         d="m 92.075,81.915 1.27,-1.27"
         id="path12" />
      <path
         style="fill:none;fill-opacity:0;stroke:#840000;stroke-width:0.1524;stroke-linecap:round;stroke-linejoin:round;stroke-opacity:1"
         d="m 92.075,80.645 h 1.27 v 1.27"
         id="path14" />
    </g>
    <g
       style="fill:#840000;fill-opacity:0;stroke:#840000;stroke-width:0.254;stroke-linecap:round;stroke-linejoin:round;stroke-opacity:1"
       id="g20">
      <circle
         cx="90.169998"
         cy="83.82"
         r="2.54"
         id="circle18" />
    </g>
    <g
       style="fill:#840000;fill-opacity:0;stroke:#840000;stroke-width:0.3175;stroke-linecap:round;stroke-linejoin:round;stroke-opacity:1"
       id="g66">
      <text
         x="90.169998"
         y="85.089996"
         textLength="3.1887"
         font-size="3.3866px"
         lengthAdjust="spacingAndGlyphs"
         text-anchor="middle"
         opacity="0"
         id="text22">Ω</text>
      <g
         class="stroked-text"
         id="g64">
        <desc
           id="desc24">Ω</desc>
        <path
           d="m 89.2024,84.7531 h 0.6047"
           id="path26" />
        <path
           d="M 89.8071,84.7531 V 84.2693"
           id="path28" />
        <path
           d="m 89.8071,84.2693 -0.2419,-0.121"
           id="path30" />
        <path
           d="M 89.5652,84.1483 89.3233,83.9064"
           id="path32" />
        <path
           d="M 89.3233,83.9064 89.2024,83.5436"
           id="path34" />
        <path
           d="M 89.2024,83.5436 V 82.9388"
           id="path36" />
        <path
           d="M 89.2024,82.9388 89.3233,82.576"
           id="path38" />
        <path
           d="m 89.3233,82.576 0.2419,-0.2419"
           id="path40" />
        <path
           d="m 89.5652,82.3341 0.3629,-0.121"
           id="path42" />
        <path
           d="m 89.9281,82.2131 h 0.4838"
           id="path44" />
        <path
           d="m 90.4119,82.2131 0.3628,0.121"
           id="path46" />
        <path
           d="m 90.7747,82.3341 0.2419,0.2419"
           id="path48" />
        <path
           d="m 91.0166,82.576 0.121,0.3628"
           id="path50" />
        <path
           d="m 91.1376,82.9388 v 0.6048"
           id="path52" />
        <path
           d="m 91.1376,83.5436 -0.121,0.3628"
           id="path54" />
        <path
           d="m 91.0166,83.9064 -0.2419,0.2419"
           id="path56" />
        <path
           d="m 90.7747,84.1483 -0.2419,0.121"
           id="path58" />
        <path
           d="m 90.5328,84.2693 v 0.4838"
           id="path60" />
        <path
           d="m 90.5328,84.7531 h 0.6048"
           id="path62" />
      </g>
    </g>
    <g
       style="fill:#840000;fill-opacity:0;stroke:#840000;stroke-width:0.1524;stroke-linecap:round;stroke-linejoin:round;stroke-opacity:1"
       id="g72">
      <path
         d="M 90.17,86.36 V 88.9"
         id="path68" />
      <path
         d="M 90.17,81.28 V 78.74"
         id="path70" />
    </g>
    <g
       style="fill:#006464;fill-opacity:0;stroke:#006464;stroke-width:0.1524;stroke-linecap:round;stroke-linejoin:round;stroke-opacity:1"
       id="g246">
      <text
         x="84.8591"
         y="80.644997"
         textLength="9.6822004"
         font-size="1.6933px"
         lengthAdjust="spacingAndGlyphs"
         text-anchor="middle"
         opacity="0"
         id="text74">Ohmmeter</text>
      <g
         class="stroked-text"
         id="g244">
        <desc
           id="desc76">Ohmmeter</desc>
        <path
           d="m 80.6257,79.2066 h 0.2419"
           id="path78" />
        <path
           d="m 80.8676,79.2066 0.121,0.0605"
           id="path80" />
        <path
           d="m 80.9886,79.2671 0.1209,0.1209"
           id="path82" />
        <path
           d="M 81.1095,79.388 81.17,79.6299"
           id="path84" />
        <path
           d="m 81.17,79.6299 v 0.4233"
           id="path86" />
        <path
           d="m 81.17,80.0532 -0.0605,0.2419"
           id="path88" />
        <path
           d="m 81.1095,80.2951 -0.1209,0.121"
           id="path90" />
        <path
           d="m 80.9886,80.4161 -0.121,0.0605"
           id="path92" />
        <path
           d="M 80.8676,80.4766 H 80.6257"
           id="path94" />
        <path
           d="M 80.6257,80.4766 80.5048,80.4161"
           id="path96" />
        <path
           d="m 80.5048,80.4161 -0.121,-0.121"
           id="path98" />
        <path
           d="M 80.3838,80.2951 80.3234,80.0532"
           id="path100" />
        <path
           d="M 80.3234,80.0532 V 79.6299"
           id="path102" />
        <path
           d="M 80.3234,79.6299 80.3838,79.388"
           id="path104" />
        <path
           d="m 80.3838,79.388 0.121,-0.1209"
           id="path106" />
        <path
           d="m 80.5048,79.2671 0.1209,-0.0605"
           id="path108" />
        <path
           d="m 81.7143,80.4766 v -1.27"
           id="path110" />
        <path
           d="M 82.2586,80.4766 V 79.8113"
           id="path112" />
        <path
           d="M 82.2586,79.8113 82.1981,79.6904"
           id="path114" />
        <path
           d="M 82.1981,79.6904 82.0772,79.6299"
           id="path116" />
        <path
           d="M 82.0772,79.6299 H 81.8958"
           id="path118" />
        <path
           d="m 81.8958,79.6299 -0.121,0.0605"
           id="path120" />
        <path
           d="m 81.7748,79.6904 -0.0605,0.0605"
           id="path122" />
        <path
           d="M 82.8633,80.4766 V 79.6299"
           id="path124" />
        <path
           d="m 82.8633,79.7509 0.0605,-0.0605"
           id="path126" />
        <path
           d="m 82.9238,79.6904 0.121,-0.0605"
           id="path128" />
        <path
           d="m 83.0448,79.6299 h 0.1814"
           id="path130" />
        <path
           d="m 83.2262,79.6299 0.1209,0.0605"
           id="path132" />
        <path
           d="m 83.3471,79.6904 0.0605,0.1209"
           id="path134" />
        <path
           d="m 83.4076,79.8113 v 0.6653"
           id="path136" />
        <path
           d="m 83.4076,79.8113 0.0605,-0.1209"
           id="path138" />
        <path
           d="M 83.4681,79.6904 83.589,79.6299"
           id="path140" />
        <path
           d="m 83.589,79.6299 h 0.1815"
           id="path142" />
        <path
           d="m 83.7705,79.6299 0.1209,0.0605"
           id="path144" />
        <path
           d="m 83.8914,79.6904 0.0605,0.1209"
           id="path146" />
        <path
           d="m 83.9519,79.8113 v 0.6653"
           id="path148" />
        <path
           d="M 84.5566,80.4766 V 79.6299"
           id="path150" />
        <path
           d="m 84.5566,79.7509 0.0605,-0.0605"
           id="path152" />
        <path
           d="m 84.6171,79.6904 0.121,-0.0605"
           id="path154" />
        <path
           d="m 84.7381,79.6299 h 0.1814"
           id="path156" />
        <path
           d="m 84.9195,79.6299 0.1209,0.0605"
           id="path158" />
        <path
           d="m 85.0404,79.6904 0.0605,0.1209"
           id="path160" />
        <path
           d="m 85.1009,79.8113 v 0.6653"
           id="path162" />
        <path
           d="m 85.1009,79.8113 0.0605,-0.1209"
           id="path164" />
        <path
           d="m 85.1614,79.6904 0.1209,-0.0605"
           id="path166" />
        <path
           d="m 85.2823,79.6299 h 0.1815"
           id="path168" />
        <path
           d="m 85.4638,79.6299 0.1209,0.0605"
           id="path170" />
        <path
           d="m 85.5847,79.6904 0.0605,0.1209"
           id="path172" />
        <path
           d="m 85.6452,79.8113 v 0.6653"
           id="path174" />
        <path
           d="m 86.7337,80.4161 -0.1209,0.0605"
           id="path176" />
        <path
           d="M 86.6128,80.4766 H 86.3709"
           id="path178" />
        <path
           d="m 86.3709,80.4766 -0.121,-0.0605"
           id="path180" />
        <path
           d="m 86.2499,80.4161 -0.0604,-0.121"
           id="path182" />
        <path
           d="M 86.1895,80.2951 V 79.8113"
           id="path184" />
        <path
           d="m 86.1895,79.8113 0.0604,-0.1209"
           id="path186" />
        <path
           d="m 86.2499,79.6904 0.121,-0.0605"
           id="path188" />
        <path
           d="m 86.3709,79.6299 h 0.2419"
           id="path190" />
        <path
           d="m 86.6128,79.6299 0.1209,0.0605"
           id="path192" />
        <path
           d="m 86.7337,79.6904 0.0605,0.1209"
           id="path194" />
        <path
           d="m 86.7942,79.8113 v 0.121"
           id="path196" />
        <path
           d="m 86.7942,79.9323 -0.6047,0.1209"
           id="path198" />
        <path
           d="m 87.1571,79.6299 h 0.4838"
           id="path200" />
        <path
           d="m 87.3385,79.2066 v 1.0885"
           id="path202" />
        <path
           d="m 87.3385,80.2951 0.0605,0.121"
           id="path204" />
        <path
           d="m 87.399,80.4161 0.121,0.0605"
           id="path206" />
        <path
           d="m 87.52,80.4766 h 0.1209"
           id="path208" />
        <path
           d="m 88.548,80.4161 -0.1209,0.0605"
           id="path210" />
        <path
           d="M 88.4271,80.4766 H 88.1852"
           id="path212" />
        <path
           d="m 88.1852,80.4766 -0.121,-0.0605"
           id="path214" />
        <path
           d="m 88.0642,80.4161 -0.0604,-0.121"
           id="path216" />
        <path
           d="M 88.0038,80.2951 V 79.8113"
           id="path218" />
        <path
           d="m 88.0038,79.8113 0.0604,-0.1209"
           id="path220" />
        <path
           d="m 88.0642,79.6904 0.121,-0.0605"
           id="path222" />
        <path
           d="m 88.1852,79.6299 h 0.2419"
           id="path224" />
        <path
           d="m 88.4271,79.6299 0.1209,0.0605"
           id="path226" />
        <path
           d="m 88.548,79.6904 0.0605,0.1209"
           id="path228" />
        <path
           d="m 88.6085,79.8113 v 0.121"
           id="path230" />
        <path
           d="m 88.6085,79.9323 -0.6047,0.1209"
           id="path232" />
        <path
           d="M 89.1528,80.4766 V 79.6299"
           id="path234" />
        <path
           d="m 89.1528,79.8718 0.0605,-0.1209"
           id="path236" />
        <path
           d="m 89.2133,79.7509 0.0605,-0.0605"
           id="path238" />
        <path
           d="m 89.2738,79.6904 0.1209,-0.0605"
           id="path240" />
        <path
           d="m 89.3947,79.6299 h 0.121"
           id="path242" />
      </g>
    </g>
  </g>
  <g
     style="fill:#006464;fill-opacity:0;stroke:#006464;stroke-width:0.1524;stroke-linecap:round;stroke-linejoin:round;stroke-opacity:1"
     id="g304"
     transform="translate(-80.042429,-74.3966)">
    <g
       id="g250" />
    <g
       style="fill:#840000;fill-opacity:0;stroke:#840000;stroke-width:0.1524;stroke-linecap:round;stroke-linejoin:round;stroke-opacity:1"
       id="g252" />
    <g
       style="fill:#840000;fill-opacity:0;stroke:#840000;stroke-width:0.254;stroke-linecap:round;stroke-linejoin:round;stroke-opacity:1"
       id="g256">
      <rect
         x="101.854"
         y="81.279999"
         width="2.0320001"
         height="5.0799999"
         rx="0.000000"
         id="rect254" />
    </g>
    <g
       style="fill:#840000;fill-opacity:0;stroke:#840000;stroke-width:0.1524;stroke-linecap:round;stroke-linejoin:round;stroke-opacity:1"
       id="g262">
      <path
         d="M 102.87,81.28 V 80.01"
         id="path258" />
      <path
         d="m 102.87,86.36 v 1.27"
         id="path260" />
    </g>
    <g
       style="fill:#006464;fill-opacity:0;stroke:#006464;stroke-width:0.1524;stroke-linecap:round;stroke-linejoin:round;stroke-opacity:1"
       id="g302">
      <text
         x="100.3299"
         y="84.455002"
         textLength="2.6064999"
         font-size="1.6933px"
         lengthAdjust="spacingAndGlyphs"
         text-anchor="middle"
         opacity="0"
         id="text264">R1</text>
      <g
         class="stroked-text"
         id="g300">
        <desc
           id="desc266">R1</desc>
        <path
           d="M 100.1182,84.2866 99.6949,83.6818"
           id="path268" />
        <path
           d="m 99.3925,84.2866 v -1.27"
           id="path270" />
        <path
           d="m 99.3925,83.0166 h 0.4838"
           id="path272" />
        <path
           d="m 99.8763,83.0166 0.121,0.0605"
           id="path274" />
        <path
           d="m 99.9973,83.0771 0.0605,0.0604"
           id="path276" />
        <path
           d="m 100.0578,83.1375 0.0604,0.121"
           id="path278" />
        <path
           d="m 100.1182,83.2585 v 0.1814"
           id="path280" />
        <path
           d="m 100.1182,83.4399 -0.0604,0.121"
           id="path282" />
        <path
           d="m 100.0578,83.5609 -0.0605,0.0604"
           id="path284" />
        <path
           d="m 99.9973,83.6213 -0.121,0.0605"
           id="path286" />
        <path
           d="M 99.8763,83.6818 H 99.3925"
           id="path288" />
        <path
           d="m 101.3278,84.2866 h -0.7257"
           id="path290" />
        <path
           d="m 100.9649,84.2866 v -1.27"
           id="path292" />
        <path
           d="M 100.9649,83.0166 100.844,83.198"
           id="path294" />
        <path
           d="m 100.844,83.198 -0.121,0.121"
           id="path296" />
        <path
           d="m 100.723,83.319 -0.1209,0.0604"
           id="path298" />
      </g>
    </g>
  </g>
  <g
     style="fill:#006464;fill-opacity:0;stroke:#006464;stroke-width:0.1524;stroke-linecap:round;stroke-linejoin:round;stroke-opacity:1"
     id="g370"
     transform="translate(-80.042429,-74.3966)">
    <g
       id="g306" />
    <g
       style="fill:#840000;fill-opacity:0;stroke:#840000;stroke-width:0.1524;stroke-linecap:round;stroke-linejoin:round;stroke-opacity:1"
       id="g308" />
    <g
       style="fill:#840000;fill-opacity:0;stroke:#840000;stroke-width:0.254;stroke-linecap:round;stroke-linejoin:round;stroke-opacity:1"
       id="g312">
      <rect
         x="113.284"
         y="81.279999"
         width="2.0320001"
         height="5.0799999"
         rx="0.000000"
         id="rect310" />
    </g>
    <g
       style="fill:#840000;fill-opacity:0;stroke:#840000;stroke-width:0.1524;stroke-linecap:round;stroke-linejoin:round;stroke-opacity:1"
       id="g318">
      <path
         d="m 114.3,86.36 v 1.27"
         id="path314" />
      <path
         d="M 114.3,81.28 V 80.01"
         id="path316" />
    </g>
    <g
       style="fill:#006464;fill-opacity:0;stroke:#006464;stroke-width:0.1524;stroke-linecap:round;stroke-linejoin:round;stroke-opacity:1"
       id="g368">
      <text
         x="110.4487"
         y="84.455002"
         textLength="2.6064999"
         font-size="1.6933px"
         lengthAdjust="spacingAndGlyphs"
         text-anchor="middle"
         opacity="0"
         id="text320">R2</text>
      <g
         class="stroked-text"
         id="g366">
        <desc
           id="desc322">R2</desc>
        <path
           d="m 110.237,84.2866 -0.4233,-0.6048"
           id="path324" />
        <path
           d="m 109.5113,84.2866 v -1.27"
           id="path326" />
        <path
           d="m 109.5113,83.0166 h 0.4838"
           id="path328" />
        <path
           d="m 109.9951,83.0166 0.121,0.0605"
           id="path330" />
        <path
           d="m 110.1161,83.0771 0.0605,0.0604"
           id="path332" />
        <path
           d="m 110.1766,83.1375 0.0604,0.121"
           id="path334" />
        <path
           d="m 110.237,83.2585 v 0.1814"
           id="path336" />
        <path
           d="m 110.237,83.4399 -0.0604,0.121"
           id="path338" />
        <path
           d="m 110.1766,83.5609 -0.0605,0.0604"
           id="path340" />
        <path
           d="m 110.1161,83.6213 -0.121,0.0605"
           id="path342" />
        <path
           d="m 109.9951,83.6818 h -0.4838"
           id="path344" />
        <path
           d="m 110.7209,83.1375 0.0604,-0.0604"
           id="path346" />
        <path
           d="m 110.7813,83.0771 0.121,-0.0605"
           id="path348" />
        <path
           d="m 110.9023,83.0166 h 0.3024"
           id="path350" />
        <path
           d="m 111.2047,83.0166 0.1209,0.0605"
           id="path352" />
        <path
           d="m 111.3256,83.0771 0.0605,0.0604"
           id="path354" />
        <path
           d="m 111.3861,83.1375 0.0605,0.121"
           id="path356" />
        <path
           d="m 111.4466,83.2585 v 0.1209"
           id="path358" />
        <path
           d="m 111.4466,83.3794 -0.0605,0.1815"
           id="path360" />
        <path
           d="m 111.3861,83.5609 -0.7257,0.7257"
           id="path362" />
        <path
           d="m 110.6604,84.2866 h 0.7862"
           id="path364" />
      </g>
    </g>
  </g>
  <g
     style="fill:#006464;fill-opacity:0;stroke:#006464;stroke-width:0.1524;stroke-linecap:round;stroke-linejoin:round;stroke-opacity:1"
     id="g372"
     transform="translate(-80.042429,-74.3966)" />
  <g
     style="fill:#009600;fill-opacity:0;stroke:#009600;stroke-width:0.1524;stroke-linecap:round;stroke-linejoin:round;stroke-opacity:1"
     id="g394"
     transform="translate(-80.042429,-74.3966)">
    <path
       d="m 90.17,74.93 h 12.7"
       id="path374" />
    <path
       d="M 90.17,93.98 V 88.9"
       id="path376" />
    <path
       d="M 90.17,78.74 V 74.93"
       id="path378" />
    <path
       d="m 90.17,93.98 h 12.7"
       id="path380" />
    <path
       d="m 102.87,74.93 v 5.08"
       id="path382" />
    <path
       d="m 102.87,87.63 v 6.35"
       id="path384" />
    <path
       d="M 102.87,93.98 H 114.3"
       id="path386" />
    <path
       d="m 114.3,87.63 v 6.35"
       id="path388" />
    <path
       d="M 102.87,74.93 H 114.3"
       id="path390" />
    <path
       d="M 114.3,80.01 V 74.93"
       id="path392" />
  </g>
  <g
     style="fill:#009600;fill-opacity:1;stroke:#009600;stroke-width:0.1524;stroke-linecap:round;stroke-linejoin:round;stroke-opacity:1"
     id="g400"
     transform="translate(-80.042429,-74.3966)">
    <circle
       cx="102.87"
       cy="93.980003"
       r="0.45719999"
       id="circle396" />
    <circle
       cx="102.87"
       cy="74.93"
       r="0.45719999"
       id="circle398" />
  </g>
  <metadata
     id="metadata408">
    <rdf:RDF>
      <cc:Work
         rdf:about="">
        <dc:title>SVG Image created as mediciones_p2.svg date 2023/02/22 19:24:24 </dc:title>
      </cc:Work>
    </rdf:RDF>
  </metadata>
</svg>
