<?xml version="1.0" encoding="UTF-8" standalone="no"?>
<!-- Generator: Adobe Illustrator 18.0.0, SVG Export Plug-In . SVG Version: 6.00 Build 0)  -->

<svg
   version="1.1"
   id="Capa_1"
   x="0px"
   y="0px"
   viewBox="0 0 893.99999 353.99529"
   xml:space="preserve"
   sodipodi:docname="resistor-nema.svg"
   width="894"
   height="353.9953"
   inkscape:version="1.1.1 (3bf5ae0d25, 2021-09-20)"
   xmlns:inkscape="http://www.inkscape.org/namespaces/inkscape"
   xmlns:sodipodi="http://sodipodi.sourceforge.net/DTD/sodipodi-0.dtd"
   xmlns="http://www.w3.org/2000/svg"
   xmlns:svg="http://www.w3.org/2000/svg"><defs
   id="defs37" /><sodipodi:namedview
   id="namedview35"
   pagecolor="#ffffff"
   bordercolor="#666666"
   borderopacity="1.0"
   inkscape:pageshadow="2"
   inkscape:pageopacity="0.0"
   inkscape:pagecheckerboard="0"
   showgrid="false"
   inkscape:zoom="0.29441508"
   inkscape:cx="307.38915"
   inkscape:cy="205.49219"
   inkscape:window-width="1280"
   inkscape:window-height="744"
   inkscape:window-x="0"
   inkscape:window-y="0"
   inkscape:window-maximized="1"
   inkscape:current-layer="Capa_1" />
<g
   id="XMLID_21_"
   transform="matrix(1.9317993,0,0,1.9317993,0,-270.00512)">
	<path
   id="XMLID_904_"
   d="m 350.272,323.014 c -5.974,0 -11.411,-3.556 -13.783,-9.091 l -50.422,-117.65 -40.505,116.662 c -2.08,5.989 -7.699,10.023 -14.038,10.08 -0.044,0 -0.089,0 -0.133,0 -6.286,0 -11.911,-3.921 -14.081,-9.831 L 175.331,198.826 134.533,313.06 c -2.095,5.867 -7.599,9.828 -13.827,9.952 -6.242,0.127 -11.886,-3.615 -14.213,-9.394 L 75.011,235.446 H 0 v -30 h 85.141 c 6.121,0 11.627,3.719 13.914,9.396 l 20.511,50.93 41.446,-116.048 c 2.124,-5.947 7.745,-9.927 14.06,-9.955 0.022,0 0.044,0 0.066,0 6.289,0 11.912,3.923 14.081,9.831 l 41.779,113.814 39.431,-113.565 c 2.032,-5.851 7.451,-9.852 13.64,-10.071 6.203,-0.217 11.877,3.389 14.317,9.082 l 49.683,115.927 15.254,-48.815 c 1.957,-6.262 7.756,-10.526 14.317,-10.526 h 85.141 v 30 h -74.113 l -24.076,77.043 c -1.873,5.994 -7.281,10.186 -13.553,10.506 -0.255,0.012 -0.512,0.019 -0.767,0.019 z" />
</g>
<g
   id="g4"
   transform="translate(0,-139.76873)">
</g>
<g
   id="g6"
   transform="translate(0,-139.76873)">
</g>
<g
   id="g8"
   transform="translate(0,-139.76873)">
</g>
<g
   id="g10"
   transform="translate(0,-139.76873)">
</g>
<g
   id="g12"
   transform="translate(0,-139.76873)">
</g>
<g
   id="g14"
   transform="translate(0,-139.76873)">
</g>
<g
   id="g16"
   transform="translate(0,-139.76873)">
</g>
<g
   id="g18"
   transform="translate(0,-139.76873)">
</g>
<g
   id="g20"
   transform="translate(0,-139.76873)">
</g>
<g
   id="g22"
   transform="translate(0,-139.76873)">
</g>
<g
   id="g24"
   transform="translate(0,-139.76873)">
</g>
<g
   id="g26"
   transform="translate(0,-139.76873)">
</g>
<g
   id="g28"
   transform="translate(0,-139.76873)">
</g>
<g
   id="g30"
   transform="translate(0,-139.76873)">
</g>
<g
   id="g32"
   transform="translate(0,-139.76873)">
</g>
</svg>
