<?xml version="1.0" encoding="iso-8859-1"?>
<!-- Generator: Adobe Illustrator 18.1.1, SVG Export Plug-In . SVG Version: 6.00 Build 0)  -->
<svg version="1.1" id="Capa_1" xmlns="http://www.w3.org/2000/svg" xmlns:xlink="http://www.w3.org/1999/xlink" x="0px" y="0px"
	 viewBox="0 0 13.894 13.894" style="enable-background:new 0 0 13.894 13.894;" xml:space="preserve">
<g>
	<path style="fill:#030104;" d="M11.285,3.234l2.529-2.529L13.108,0L10.58,2.529l-0.69-0.691c-0.315-0.315-0.829-0.315-1.146,0
		L6.739,3.842C6.673,3.908,6.645,4.006,6.668,4.098l0.089,0.359l-1.98,1.979L4.418,6.347C4.326,6.325,4.229,6.351,4.162,6.418
		L2.03,8.553c-0.316,0.315-0.316,0.829,0,1.145l0.77,0.771l-2.72,2.72l0.705,0.705l2.72-2.72l0.77,0.77
		c0.316,0.315,0.83,0.315,1.146,0l2.132-2.133c0.048-0.048,0.076-0.11,0.079-0.177l0.023-0.44l1.93-1.931L9.899,7.31
		c0.085,0.013,0.17-0.016,0.23-0.076l2.005-2.004c0.315-0.316,0.315-0.83,0-1.146L11.285,3.234z M5.039,11.561
		c-0.106,0.105-0.277,0.105-0.382,0L2.412,9.316c-0.105-0.104-0.105-0.276,0-0.382L3.157,8.19l2.626,2.626L5.039,11.561z
		 M7.098,9.502l-0.646,0.646L3.826,7.522L4.437,6.91l0.359,0.089c0.055,0.014,0.111,0.008,0.163-0.012l2.158,2.157L7.098,9.502z
		 M7.697,8.387L5.644,6.335l0.918-0.918l2.052,2.051L7.697,8.387z M9.845,6.756L9.531,6.709c-0.085-0.013-0.17,0.015-0.23,0.076
		L9.284,6.801L7.232,4.749l0.017-0.016c0.066-0.067,0.094-0.165,0.07-0.257L7.231,4.118l0.495-0.496l2.627,2.626L9.845,6.756z
		 M11.753,4.847L11.02,5.579L8.394,2.952l0.732-0.731c0.105-0.106,0.277-0.105,0.382,0l2.245,2.244
		C11.857,4.571,11.858,4.742,11.753,4.847z"/>
</g>
<g>
</g>
<g>
</g>
<g>
</g>
<g>
</g>
<g>
</g>
<g>
</g>
<g>
</g>
<g>
</g>
<g>
</g>
<g>
</g>
<g>
</g>
<g>
</g>
<g>
</g>
<g>
</g>
<g>
</g>
</svg>
